<ttFont>
<head>
    <!-- Most of this table will be recalculated by the compiler -->
    <tableVersion value="1.0"/>
    <fontRevision value="2.004"/>
    <checkSumAdjustment value="0x5b8eff6c"/>
    <magicNumber value="0x5f0f3cf5"/>
    <flags value="00000000 00000011"/>
    <unitsPerEm value="1000"/>
    <created value="Thu Oct  8 10:00:15 2009"/>
    <modified value="Thu Oct  8 10:00:15 2009"/>
    <xMin value="-433"/>
    <yMin value="-313"/>
    <xMax value="1466"/>
    <yMax value="1155"/>
    <macStyle value="00000000 00000000"/>
    <lowestRecPPEM value="3"/>
    <fontDirectionHint value="2"/>
    <indexToLocFormat value="0"/>
    <glyphDataFormat value="0"/>
  </head>
          <CharString index="0">
            422 hmoveto
            289 vlineto
            99 -73 73 -99 -65 -48 -17 -27 -48 vhcurveto
            6 -71 rlineto
            37 50 49 15 55 hhcurveto
            56 34 -45 -65 hvcurveto
            -42 vlineto
            -172 -4 -113 -45 -81 vvcurveto
            -47 31 -80 87 20 87 2 47 63 vhcurveto
            -38 vlineto
            -3 140 rmoveto
            -21 0 -25 -36 -21 vhcurveto
            -15 -25 -33 -4 -20 hhcurveto
            -51 -43 24 40 71 195 3 13 hvcurveto
            return
          </CharString>
          <CharString index="1">
            427 219 rmoveto
            31 -1 76 -39 60 vhcurveto
            63 -42 -64 12 -38 hhcurveto
            -116 -92 -107 -128 -132 98 -105 125 48 58 12 37 58 hvcurveto
            -6 69 rlineto
            -45 -63 -59 -8 -35 hhcurveto
            -83 -64 73 92 -3 hvcurveto
            258 59 rmoveto
            -252 hlineto
            64 16 49 54 63 hhcurveto
            37 68 -17 -101 19 hvcurveto
            return
          </CharString>
          <CharString index="2">
            -12 callsubr
            hintmask 11100110
            -107 callsubr
            return
          </CharString>
          <CharString index="3">
            657 hmoveto
            -268 694 rlineto
            -92 hlineto
            -268 -694 rlineto
            79 hlineto
            76 199 rlineto
            297 hlineto
            77 -199 rlineto
            -101 258 rmoveto
            -249 hlineto
            124 362 rlineto
            return
          </CharString>
          <CharString index="4">
            rmoveto
            -126 134 rlineto
            -60 hlineto
            -126 -134 rlineto
            59 hlineto
            97 97 97 -97 rlineto
            return
          </CharString>
          <CharString index="5">
            rmoveto
            -12 67 rlineto
            -19 -67 0 -32 -74 hvcurveto
            11 -15 -37 21 -47 hhcurveto
            -92 -73 -75 -88 -25 6 -37 28 -39 hvcurveto
            -19 -25 -10 -30 -28 vvcurveto
            -28 10 -28 15 -19 vhcurveto
            hintmask 1000000001010000
            -52 -33 -12 -43 -28 vvcurveto
            -73 98 -62 129 vhcurveto
            hintmask 0110100000011100
            129 99 61 75 139 -166 2 -44 hvcurveto
            -92 hlineto
            -13 -45 0 52 20 4 6 5 8 hvcurveto
            -18 27 34 -11 34 hhcurveto
            92 73 75 88 34 -10 28 -16 27 hvcurveto
            -4 5 0 2 0 vvcurveto
            hintmask 0001010000100010
            5 49 0 13 8 37 0 -4 29 vhcurveto
            -180 -96 rmoveto
            -81 -51 -23 -40 -46 -45 29 74 vhcurveto
            hintmask 0110001001001100
            81 51 23 40 46 45 -29 -74 vhcurveto
            91 -363 rmoveto
            -44 -73 -31 -80 -78 -76 29 47 0 0 65 77 vhcurveto
            94 hlineto
            21 115 0 -66 hvcurveto
            return
          </CharString>
          <CharString index="6">
            611 233 rmoveto
            461 -83 -461 vlineto
            -134 -87 -62 -84 -83 -83 62 133 vhcurveto
            462 -96 -460 vlineto
            -149 123 -107 138 138 117 110 145 vhcurveto
            return
          </CharString>
          <CharString index="7">
            615 38 rmoveto
            262 -217 -65 133 -158 vlineto
            -13 -43 -45 -7 -45 hhcurveto
            -65 -60 34 51 -42 hvcurveto
            -47 58 -22 73 74 vvcurveto
            75 22 73 47 57 vhcurveto
            51 42 60 34 65 hhcurveto
            35 35 -4 -11 32 hvcurveto
            34 -12 29 -19 28 -23 15 88 rcurveline
            -32 16 -34 14 -35 8 rrcurveto
            8 -35 -36 3 -36 hhcurveto
            -89 -85 -39 -66 -61 hvcurveto
            -63 -68 -34 -91 -94 vvcurveto
            -93 34 -91 63 -69 vhcurveto
            -66 61 85 -39 89 hhcurveto
            75 74 17 32 68 hvcurveto
            return
          </CharString>
          <CharString index="8">
            3 callgsubr
            hintmask 11100110
            -106 callsubr
            return
          </CharString>
          <CharString index="9">
            hstemhm
            hintmask 11100000
            -104 callsubr
            return
          </CharString>
          <CharString index="10">
            rmoveto
            -65 hlineto
            hintmask 00010000
            -22 -7 -36 -31 -23 -23 15 12 -17 vhcurveto
            hintmask 00001000
            16 -25 -22 15 -27 hhcurveto
            hintmask 00010000
            -51 -49 -46 -77 -1 hvcurveto
            65 hlineto
            hintmask 00001000
            22 7 36 31 23 23 -15 -12 17 vhcurveto
            hintmask 00010000
            -16 25 22 -15 27 hhcurveto
            hintmask 00001000
            51 49 46 77 1 hvcurveto
            endchar
          </CharString>
          <CharString index="11">
            573 hmoveto
            76 -100 vlineto
            -282 -2 rlineto
            253 339 65 -339 231 38 vlineto
            244 -2 rlineto
            86 70 -464 -691 hlineto
            return
          </CharString>
          <CharString index="12">
            -88 callgsubr
            -208 150 -158 172 return
          </CharString>
          <CharString index="13">
            459 444 rmoveto
            -79 hlineto
            -76 -182 -55 -133 -5 -70 -3 46 -42 103 -12 29 -41 102 -17 34 -31 71 rrcurveto
            -84 hlineto
            200 -444 -37 -89 rlineto
            -56 -26 -19 0 -14 hhcurveto
            -16 -35 4 13 -30 hvcurveto
            6 -69 rlineto
            -1 3 37 -7 34 hhcurveto
            27 43 0 119 50 hvcurveto
            return
          </CharString>
          <CharString index="14">
            -20 -98 callsubr
            hintmask 00011000
            return
          </CharString>
          <CharString index="15">
            102 28 72 72 82 vvcurveto
            103 -116 84 -143 vhcurveto
            -252 -694 93 315 160 hlineto
            190 -315 rlineto
            -19 507 rmoveto
            -65 -61 -62 -123 vhcurveto
            -147 255 147 hlineto
            116 68 -56 -72 hvcurveto
            return
          </CharString>
          <CharString index="16">
            700 344 rmoveto
            96 -31 94 -63 73 vhcurveto
            -12 14 -13 13 -14 11 65 50 rcurveline
            -31 callsubr
            -84 hlineto
            -1 -1 rlineto
            -85 vlineto
            1 -1 rlineto
            23 hlineto
            -31 -28 rlineto
            32 -48 -55 18 -58 hhcurveto
            -88 -81 -42 -67 -58 hvcurveto
            -63 -73 -31 -94 -96 vvcurveto
            -95 32 -92 62 -72 vhcurveto
            -65 58 82 -42 87 hhcurveto
            88 82 42 65 58 hvcurveto
            return
          </CharString>
          <CharString index="17">
            rmoveto
            -65 hlineto
            hintmask 10000000
            -22 -7 -36 -31 -23 -23 15 12 -17 vhcurveto
            hintmask 01000000
            16 -25 -22 15 -27 hhcurveto
            hintmask 10000000
            -51 -49 -46 -77 -1 hvcurveto
            65 hlineto
            hintmask 01000000
            22 7 36 31 23 23 -15 -12 17 vhcurveto
            hintmask 10000000
            -16 25 22 -15 27 hhcurveto
            hintmask 01000000
            51 49 46 77 1 hvcurveto
            endchar
          </CharString>
          <CharString index="18">
            687 444 rmoveto
            -77 hlineto
            -23 -72 -82 -256 -7 -60 rrcurveto
            -1 hlineto
            -6 42 -21 68 -17 56 -69 222 rcurveline
            -74 hlineto
            -32 -98 -71 -224 -4 -63 rrcurveto
            -1 hlineto
            -3 37 -26 91 -19 62 -60 195 rcurveline
            -80 hlineto
            141 -444 rlineto
            83 hlineto
            60 193 21 71 24 80 3 43 rlinecurve
            1 hlineto
            2 -19 9 -39 2 -10 11 -44 0 -2 8 -26 76 -247 rcurveline
            91 hlineto
            return
          </CharString>
          <CharString index="19">
            rmoveto
            -125 172 rlineto
            -60 hlineto
            -125 -172 rlineto
            59 hlineto
            96 123 96 -123 rlineto
            return
          </CharString>
          <CharString index="20">
            hstemhm
            95 96 hintmask 11100100
            -96 callsubr
            return
          </CharString>
          <CharString index="21">
            342 26 rmoveto
            -17 63 rlineto
            -20 -26 -35 -12 -31 hhcurveto
            -39 -13 35 52 hvcurveto
            238 144 62 -144 127 -74 -127 -88 -62 85 -256 vlineto
            -59 13 -78 73 44 52 9 28 56 vhcurveto
            return
          </CharString>
          <CharString index="22">
            rmoveto
            -65 hlineto
            hintmask 00001000
            -22 -7 -36 -31 -23 -23 15 12 -17 vhcurveto
            hintmask 00000100
            16 -25 -22 15 -27 hhcurveto
            hintmask 00001000
            -51 -49 -46 -77 -1 hvcurveto
            65 hlineto
            hintmask 00000100
            22 7 36 31 23 23 -15 -12 17 vhcurveto
            hintmask 00001000
            -16 25 22 -15 27 hhcurveto
            hintmask 00000100
            51 49 46 77 1 hvcurveto
            endchar
          </CharString>
          <CharString index="23">
            449 hmoveto
            297 vlineto
            74 -20 84 -121 -79 -48 -46 -30 -23 vhcurveto
            71 -77 -450 46 callsubr
            return
          </CharString>
          <CharString index="24">
            rmoveto
            -59 hlineto
            -97 -97 -97 97 rlineto
            -59 hlineto
            126 -134 -27 callsubr
          </CharString>
          <CharString index="25">
            223 rmoveto
            56 -8 50 -34 54 vhcurveto
            63 -40 -35 17 -47 hhcurveto
            -38 -74 -11 -71 -62 hvcurveto
            134 11 68 99 107 hhcurveto
            20 37 -1 -20 51 hvcurveto
            63 vlineto
            18 -48 -39 2 -22 hhcurveto
            -144 -130 -140 -215 -274 121 -69 94 61 44 22 45 40 hvcurveto
            48 53 19 46 79 vvcurveto
            -87 hmoveto
            -39 0 -41 -26 -43 vhcurveto
            -30 -19 -28 -27 -52 hhcurveto
            -107 -15 143 33 -3 hvcurveto
            return
          </CharString>
          <CharString index="26">
            rmoveto
            96 -96 -96 vlineto
            endchar
          </CharString>
          <CharString index="27">
            741 344 rmoveto
            122 -54 107 -78 64 vhcurveto
            51 89 -59 34 -48 -83 rlineto
            21 -40 -56 18 -58 hhcurveto
            -186 -156 -164 -208 -133 66 -103 66 -52 hvcurveto
            -51 -88 59 -34 48 83 rlineto
            -25 48 50 -14 56 hhcurveto
            186 156 161 205 hvcurveto
            -223 274 rmoveto
            -292 -499 rlineto
            -55 61 -23 82 82 vvcurveto
            197 122 110 129 35 39 -8 -25 45 vhcurveto
            132 -274 rmoveto
            -192 -121 -109 -130 -46 -38 13 20 -35 vhcurveto
            291 497 rlineto
            70 -77 9 -98 -54 vvcurveto
            return
          </CharString>
          <CharString index="28">
            -73 callgsubr
            169 rmoveto
            -89 hlineto
            -197 122 rlineto
            111 hlineto
            endchar
          </CharString>
          <CharString index="29">
            683 694 rmoveto
            -94 hlineto
            -165 -236 -71 -105 -65 97 -171 244 rlineto
            -114 hlineto
            294 -416 rlineto
            -278 93 278 vlineto
            return
          </CharString>
          <CharString index="30">
            rmoveto
            -83 hlineto
            -134 -167 rlineto
            65 hlineto
            endchar
          </CharString>
          <CharString index="31">
            336 383 rmoveto
            72 vlineto
            -72 -1 -66 -36 -41 -59 rrcurveto
            91 -74 -450 80 213 vlineto
            105 82 64 91 1 vhcurveto
            return
          </CharString>
          <CharString index="32">
            rmoveto
            124 -89 99 -106 -13 -49 0 -40 -47 vhcurveto
            200 269 68 -346 -372 72 vlineto
            74 32 61 5 19 hhcurveto
            41 60 -31 -126 -122 -72 -39 -60 -52 -68 25 67 -39 hvcurveto
            -36 -59 rlineto
            hintmask 11000110
            -22 16 67 -76 113 hhcurveto
            125 102 100 125 hvcurveto
            endchar
          </CharString>
          <CharString index="33">
            rmoveto
            86 -87 -86 vlineto
            275 hmoveto
            86 -87 -86 vlineto
            return
          </CharString>
          <CharString index="34">
            66 26 80 76 100 0 -71 -29 vhcurveto
            -290 return
          </CharString>
          <CharString index="35">
            rmoveto
            -175 122 rlineto
            -111 hlineto
            197 -122 rlineto
            endchar
          </CharString>
          <CharString index="36">
            -14 59 -22 -9 -23 -6 -22 1 rlinecurve
            -28 2 -24 6 -1 30 return
          </CharString>
          <CharString index="37">
            191 -59 rmoveto
            503 -80 -512 vlineto
            -66 -60 -3 -16 -28 -25 11 20 -22 vhcurveto
            -23 -65 rlineto
            -28 50 48 -6 26 hhcurveto
            68 62 54 92 hvcurveto
            return
          </CharString>
          <CharString index="38">
            -76 -30 -61 -38 -13 -52 5 131 130 50 7 15 39 29 -64 -72 vhcurveto
            return
          </CharString>
          <CharString index="39">
            118 -68 84 -73 -75 -69 -85 -116 -119 70 -83 74 74 67 86 115 vhcurveto
            return
          </CharString>
          <CharString index="40">
            rmoveto
            -32 -31 -5 -20 -19 -32 6 31 32 31 5 20 19 32 -6 -31 -37 callgsubr
          </CharString>
          <CharString index="41">
            1000 -22 65 -43 76 252 65 163 70 -2 70 -43 65 hstemhm
            29 93 364 93 hintmask 01110001
            956 hmoveto
            76 -98 vlineto
            -279 -2 rlineto
            254 334 65 -334 233 38 vlineto
            hintmask 00001000
            241 -2 rlineto
            84 70 -406 hlineto
            -11 -24 0 11 -52 hvcurveto
            hintmask 10000110
            9 -39 -23 2 -17 hhcurveto
            -181 -160 -160 -212 -210 162 -156 178 13 21 0 11 46 hvcurveto
            hintmask 01000000
            11 52 25 0 10 hhcurveto
            -50 346 rmoveto
            -1 -119 rlineto
            hintmask 10010111
            -139 -1 -6 -45 -104 hhcurveto
            -144 -108 146 170 164 111 128 141 84 16 -30 -65 8 hvcurveto
            4 -32 0 -87 -91 vvcurveto
            endchar
          </CharString>
          <CharString index="42">
            -35 callgsubr
            33 25 6 19 40 hvcurveto
            return
          </CharString>
          <CharString index="43">
            799 -43 callgsubr
            hstem
            30 77 279 83 238 62 vstem
            769 219 rmoveto
            36 -1 70 -35 59 vhcurveto
            58 -33 -55 19 -46 hhcurveto
            -71 -64 -40 -57 -37 hvcurveto
            45 -31 -62 52 -86 hhcurveto
            -118 -100 -104 -132 -133 100 -103 118 58 70 25 74 53 hvcurveto
            -57 37 70 -42 79 hhcurveto
            55 53 19 30 41 hvcurveto
            -6 69 rlineto
            -48 -57 -61 -5 -24 hhcurveto
            -77 -65 66 99 -5 hvcurveto
            238 59 rmoveto
            -232 hlineto
            68 17 50 50 57 hhcurveto
            39 54 -24 -94 15 hvcurveto
            -321 -48 rmoveto
            -120 -68 -56 -70 -73 -68 59 117 115 71 51 70 67 71 -48 -118 vhcurveto
            endchar
          </CharString>
          <CharString index="44">
            617 0 76 251 65 229 70 return
          </CharString>
          <CharString index="45">
            rmoveto
            -134 167 rlineto
            -83 hlineto
            152 53 callgsubr
          </CharString>
          <CharString index="46">
            rmoveto
            69 -371 -69 vlineto
            endchar
          </CharString>
          <CharString index="47">
            -19 -2 -16 -1 -19 -1 rrcurveto
            -65 75 vlineto
            97 31 -79 -60 -79 -47 -60 -76 -82 -76 45 54 -38 hvcurveto
            -8 -40 0 -2 -4 -22 rrcurveto
            -59 49 76 -41 85 hhcurveto
            126 91 98 105 hvcurveto
            endchar
          </CharString>
          <CharString index="48">
            842 hmoveto
            76 vlineto
            -194 -1 rlineto
            -67 -41 0 -1 -14 hvcurveto
            254 273 65 -273 233 22 vlineto
            211 -2 rlineto
            69 70 -508 hlineto
            -291 -694 rlineto
            80 hlineto
            91 219 rlineto
            231 -219 hlineto
            278 vmoveto
            -206 hlineto
            146 348 rlineto
            60 hlineto
            return
          </CharString>
          <CharString index="49">
            rmoveto
            79 -58 66 -82 27 vhcurveto
            70 36 42 65 69 vvcurveto
            86 -85 67 -103 -84 -71 -43 -63 -42 vhcurveto
            39 -57 rlineto
            87 44 76 14 37 hhcurveto
            51 50 -28 -63 -37 -21 -86 -108 -10 hvcurveto
            return
          </CharString>
          <CharString index="50">
            516 hmoveto
            70 -44 vlineto
            -243 -2 rlineto
            -38 626 -96 -694 hlineto
            return
          </CharString>
          <CharString index="51">
            -61 callgsubr
            -20 return
          </CharString>
          <CharString index="52">
            514 -11 68 339 65 return
          </CharString>
          <CharString index="53">
            334 -65 callgsubr
            -33 -56 rlineto
            -36 45 45 -11 47 hhcurveto
            134 125 139 217 hvcurveto
            -91 76 rmoveto
            -82 -51 -72 -78 -54 -24 29 25 -16 vhcurveto
            -25 40 -1 40 42 vvcurveto
            43 1 43 32 44 vhcurveto
            17 12 26 35 59 hhcurveto
            104 13 -145 -36 1 hvcurveto
            1 -6 0 -10 -7 vvcurveto
            endchar
          </CharString>
          <CharString index="54">
            -187 -8 callgsubr
            return
          </CharString>
          <CharString index="55">
            191 hmoveto
            694 -96 -694 vlineto
            return
          </CharString>
          <CharString index="56">
            686 0 59 269 65 242 59 hstemhm
            98 90 155 87 85 84 -58 87 hintmask 10111100
            628 188 rmoveto
            89 -91 70 -107 16 vhcurveto
            99 25 70 59 73 vvcurveto
            92 -111 82 -143 vhcurveto
            -247 -694 274 hlineto
            hintmask 01110010
            150 106 92 96 hvcurveto
            -113 330 rmoveto
            -58 -71 -67 -139 vhcurveto
            -117 242 128 hlineto
            hintmask 11011100
            102 97 -47 -70 hvcurveto
            26 -329 rmoveto
            -71 -87 -59 -111 vhcurveto
            -155 269 147 hlineto
            hintmask 00000010
            106 100 -60 -79 hvcurveto
            endchar
          </CharString>
          <CharString index="57">
            -65 callsubr
            -33 callgsubr
            return
          </CharString>
          <CharString index="58">
            -10 callgsubr
            -414 403 -25 callgsubr
            294 180 rmoveto
            14 -12 8 -9 -13 -5 -9 -8 -5 vhcurveto
            -445 -747 rlineto
            -8 -13 -1 -2 -5 vvcurveto
            -13 10 -9 12 12 5 9 8 5 vhcurveto
            return
          </CharString>
          <CharString index="59">
            399 149 rmoveto
            545 -93 -542 vlineto
            -17 0 -92 -119 -53 -48 26 31 -29 vhcurveto
            -14 -80 rlineto
            -36 72 65 -6 39 hhcurveto
            103 77 55 116 hvcurveto
            return
          </CharString>
          <CharString index="60">
            494 -11 65 325 65 196 65 hstemhm
            83 80 96 82 13 82 -54 82 hintmask 01111100
            464 179 rmoveto
            101 -53 86 -70 43 vhcurveto
            76 46 19 63 39 vvcurveto
            82 -79 66 -98 -76 -100 -45 -111 vhcurveto
            -549 80 547 vlineto
            16 0 77 96 56 39 -33 -50 -46 -35 -65 -99 -2 vhcurveto
            -65 vlineto
            hintmask 10000010
            101 -2 61 -93 -104 vvcurveto
            -85 -47 -41 -52 -10 -28 2 13 -29 vhcurveto
            -23 -62 rlineto
            -13 31 35 -5 24 hhcurveto
            102 79 84 106 hvcurveto
            endchar
          </CharString>
          <CharString index="61">
            230 rmoveto
            68 -11 69 -43 51 vhcurveto
            46 -40 -61 18 -61 hhcurveto
            -61 -61 -18 -46 -40 hvcurveto
            -43 -51 -11 -69 -68 vvcurveto
            -68 11 -69 43 -51 vhcurveto
            -46 40 61 -18 61 hhcurveto
            61 61 18 46 40 hvcurveto
            43 51 11 69 68 vvcurveto
            -84 hmoveto
            -49 -5 -51 -28 -40 vhcurveto
            -31 -23 -37 -16 -39 hhcurveto
            -39 -37 16 31 -23 hvcurveto
            -28 40 -5 51 49 vvcurveto
            49 5 51 28 40 vhcurveto
            31 23 37 16 39 hhcurveto
            39 37 -16 -31 23 hvcurveto
            28 -40 5 -51 -49 vvcurveto
            endchar
          </CharString>
          <CharString index="62">
            65 165 -16 callsubr
            return
          </CharString>
          <CharString index="63">
            483 220 rmoveto
            131 -100 110 -127 -124 -102 -108 -133 -126 95 -96 114 -8 vhcurveto
            -42 -29 -31 -43 3 -45 -50 callsubr
            42 41 33 44 26 rrcurveto
            95 26 72 89 108 vvcurveto
            -83 10 rmoveto
            -116 -70 -57 -73 -77 -67 60 113 117 75 49 68 72 72 -51 -115 vhcurveto
            return
          </CharString>
          <CharString index="64">
            325 rmoveto
            95 -7 88 -47 79 vhcurveto
            55 -33 -62 34 -66 hhcurveto
            -50 -71 -19 -78 -45 hvcurveto
            -47 -79 -3 -106 -69 vvcurveto
            -50 0 -114 45 -81 vhcurveto
            -88 50 76 -14 44 hhcurveto
            58 72 24 83 43 hvcurveto
            38 73 5 87 80 vvcurveto
            -83 12 rmoveto
            -68 0 -69 -23 -65 vhcurveto
            -69 -23 -47 -23 -39 hhcurveto
            -133 0 200 94 63 0 51 15 52 hvcurveto
            69 19 41 39 57 hhcurveto
            133 0 -181 -93 hvcurveto
            endchar
          </CharString>
          <CharString index="65">
            -21 199 59 436 return
          </CharString>
          <CharString index="66">
            -195 272 172 172 rlineto
            -95 hlineto
            -205 -206 rlineto
            456 -76 -694 73 142 vlineto
            81 80 159 -222 rlineto
            return
          </CharString>
          <CharString index="67">
            457 -11 65 118 59 165 65 hstem
            35 60 258 74 vstem
            427 224 rmoveto
            132 -98 105 -125 -48 -58 -12 -37 -58 vhcurveto
            6 -69 rlineto
            45 63 59 8 35 hhcurveto
            83 64 -73 -92 3 hvcurveto
            -318 hlineto
            -31 1 -76 39 -60 vhcurveto
            -63 42 64 -12 38 hhcurveto
            116 92 107 128 hvcurveto
            -80 -52 rmoveto
            -64 -16 -49 -54 -63 hhcurveto
            -37 -68 17 101 -19 hvcurveto
            endchar
          </CharString>
          <CharString index="68">
            83 244 hlineto
            -37 callsubr
            return
          </CharString>
          <CharString index="69">
            rmoveto
            -1 48 -43 33 -41 18 rrcurveto
            19 -45 -48 8 -48 hhcurveto
            -46 -47 -6 -19 -43 hvcurveto
            -43 -18 -47 -32 -1 -51 rrcurveto
            84 hlineto
            46 4 90 11 45 hhcurveto
            45 96 -7 -50 5 hvcurveto
            endchar
          </CharString>
          <CharString index="70">
            -73 callsubr
            vlineto
            return
          </CharString>
          <CharString index="71">
            531 -11 59 396 -20 return
          </CharString>
          <CharString index="72">
            21 -40 callgsubr
            return
          </CharString>
          <CharString index="73">
            113 67 63 79 19 19 -4 -7 17 vhcurveto
            90 -165 rmoveto
            -116 -74 -50 -71 -18 -19 3 7 -17 vhcurveto
            161 280 rlineto
            28 -34 10 -47 -43 vvcurveto
            return
          </CharString>
          <CharString index="74">
            80 hintmask 11001000
            -44 callgsubr
            return
          </CharString>
          <CharString index="75">
            707 -22 59 657 -20 return
          </CharString>
          <CharString index="76">
            85 vlineto
            -1 1 rlineto
            return
          </CharString>
          <CharString index="77">
            -43 1 31 -42 67 hhcurveto
            return
          </CharString>
          <CharString index="78">
            87 0 87 hintmask 00000010
            636 hmoveto
            -202 325 rlineto
            return
          </CharString>
          <CharString index="79">
            hmoveto
            75 -188 vlineto
            -12 -12 -1 -12 hhcurveto
            -110 hlineto
            164 149 rlineto
            105 86 65 54 97 vvcurveto
            115 -83 101 -136 -106 -63 -61 -99 -31 vhcurveto
            46 -58 rlineto
            117 26 52 33 62 hhcurveto
            89 56 -68 -82 -91 -64 -58 -74 -66 hvcurveto
            hintmask 10010000
            -185 -175 rlineto
            -68 vlineto
            endchar
          </CharString>
          <CharString index="80">
            rlineto
            60 hlineto
            endchar
          </CharString>
          <CharString index="81">
            734 hmoveto
            297 vlineto
            74 -20 84 -121 -84 -47 -51 -31 -24 vhcurveto
            20 -7 -21 62 -102 hhcurveto
            -79 -48 -46 -30 -23 hvcurveto
            71 -77 -450 48 callgsubr
            46 callsubr
            return
          </CharString>
          <CharString index="82">
            314 -1 callsubr
            vstem
            356 623 rmoveto
            71 vlineto
            3 -12 -32 8 -38 hhcurveto
            -97 -74 -73 -100 hvcurveto
            -88 -3 callgsubr
            111 62 -114 116 vlineto
            72 65 8 28 9 33 0 -17 41 vhcurveto
            endchar
          </CharString>
          <CharString index="83">
            54 77 208 83 return
          </CharString>
          <CharString index="84">
            315 311 rmoveto
            37 -93 368 -15 vlineto
            -39 -48 -69 0 -25 hhcurveto
            -37 vlineto
            20 37 0 14 39 hvcurveto
            -306 -92 -37 vlineto
            return
          </CharString>
          <CharString index="85">
            -87 -201 -226 vvcurveto
            90 hlineto
            258 110 211 115 127 vhcurveto
            endchar
          </CharString>
          <CharString index="86">
            -21 167 return
          </CharString>
          <CharString index="87">
            427 219 rmoveto
            31 -1 76 -39 60 vhcurveto
            63 -42 -64 12 -38 hhcurveto
            -116 -92 -107 -128 -132 98 -105 125 hvcurveto
            -43 -29 -29 -41 3 -46 -35 callgsubr
            hintmask 0100000000000000
            33 25 6 19 40 hvcurveto
            -14 59 rlineto
            return
          </CharString>
          <CharString index="88">
            -20 hstemhm
            120 87 101 87 hintmask 10011000
            12 callgsubr
            hintmask 01100000
            return
          </CharString>
          <CharString index="89">
            rmoveto
            -83 hlineto
            -63 -167 rlineto
            65 hlineto
            return
          </CharString>
          <CharString index="90">
            -22 -9 -23 -6 -22 1 -28 2 -24 6 -1 30 -1 44 return
          </CharString>
          <CharString index="91">
            59 118 65 return
          </CharString>
          <CharString index="92">
            -71 callgsubr
            endchar
          </CharString>
          <CharString index="93">
            51 callgsubr
            113 -23 callgsubr
            83 80 hintmask 11001000
            -76 callsubr
            return
          </CharString>
          <CharString index="94">
            930 vlineto
            14 0 21 -21 -22 0 -19 -16 vhcurveto
            -930 vlineto
            -8 callsubr
            return
          </CharString>
          <CharString index="95">
            hstemhm
            -24 callsubr
            return
          </CharString>
          <CharString index="96">
            65 -7 65 hstemhm
            return
          </CharString>
          <CharString index="97">
            vstem
            303 382 rmoveto
            62 -123 118 vlineto
            64 37 14 24 26 24 -10 -7 12 vhcurveto
            71 vlineto
            3 -8 -25 8 -29 hhcurveto
            -76 -62 -71 -101 hvcurveto
            -89 -3 callgsubr
            vlineto
            return
          </CharString>
          <CharString index="98">
            83 240 vlineto
            -35 37 50 -22 52 hhcurveto
            101 88 99 135 hvcurveto
            -83 -1 rmoveto
            -96 -70 -72 -78 -32 -36 13 49 -29 vhcurveto
            216 vlineto
            18 13 37 37 57 hhcurveto
            75 63 -71 -94 hvcurveto
            endchar
          </CharString>
          <CharString index="99">
            -16 0 -19 22 21 0 21 14 vhcurveto
            return
          </CharString>
          <CharString index="100">
            hmoveto
            65 -100 417 -97 vlineto
            -258 -417 rlineto
            -65 271 -194 84 194 vlineto
            -78 65 rmoveto
            -194 hlineto
            61 100 rlineto
            hintmask 01001000
            30 51 102 169 1 51 rrcurveto
            endchar
          </CharString>
          <CharString index="101">
            167 rmoveto
            65 -100 422 -97 vlineto
            -258 -422 rlineto
            -65 271 -167 84 167 vlineto
            -78 65 rmoveto
            -194 hlineto
            61 100 30 51 102 174 1 51 rlinecurve
            endchar
          </CharString>
          <CharString index="102">
            rmoveto
            71 vlineto
            6 -20 -27 5 -24 hhcurveto
            -86 -68 -71 -102 hvcurveto
            -88 -3 callgsubr
            119 62 -122 117 vlineto
            69 52 10 24 39 33 -17 0 vhcurveto
            return
          </CharString>
          <CharString index="103">
            445 14 callsubr
            return
          </CharString>
          <CharString index="104">
            rmoveto
            -69 callsubr
            return
          </CharString>
          <CharString index="105">
            rmoveto
            62 -274 -62 vlineto
            endchar
          </CharString>
          <CharString index="106">
            21 -21 382 62 196 65 hstem
            103 80 return
          </CharString>
          <CharString index="107">
            82 509 -105 callgsubr
            return
          </CharString>
          <CharString index="108">
            rmoveto
            -65 hlineto
            -76 -168 rlineto
            74 hlineto
            return
          </CharString>
          <CharString index="109">
            87 -23 callgsubr
            return
          </CharString>
          <CharString index="110">
            hmoveto
            -88 219 88 219 rlineto
            -65 hlineto
            -107 -219 107 -219 rlineto
            return
          </CharString>
          <CharString index="111">
            666 21 -21 315 64 callgsubr
            return
          </CharString>
          <CharString index="112">
            727 21 -21 328 65 301 -20 return
          </CharString>
          <CharString index="113">
            287 -35 callsubr
            return
          </CharString>
          <CharString index="114">
            rmoveto
            -14 17 rlineto
            -41 -49 -53 -30 -51 hhcurveto
            -40 -29 17 20 -35 hvcurveto
            17 -29 -31 17 -40 hhcurveto
            hintmask 00100000
            -25 -26 -8 -10 -22 hvcurveto
            return
          </CharString>
          <CharString index="115">
            286 37 callsubr
            99 86 vstem
            186 21 callsubr
            endchar
          </CharString>
          <CharString index="116">
            16 callgsubr
            hstemhm
            return
          </CharString>
          <CharString index="117">
            221 568 -71 callgsubr
            return
          </CharString>
          <CharString index="118">
            -140 568 -71 callgsubr
            return
          </CharString>
          <CharString index="119">
            419 rmoveto
            48 -41 39 -59 17 vhcurveto
            50 21 30 39 42 vvcurveto
            51 -61 40 -74 -61 -51 -25 -38 -30 vhcurveto
            28 -34 rlineto
            return
          </CharString>
          <CharString index="120">
            84 62 148 62 hstem
            285 294 rmoveto
            62 -274 -62 vlineto
            274 -210 -2 callsubr
          </CharString>
          <CharString index="121">
            rmoveto
            -31 callsubr
            -85 hlineto
            return
          </CharString>
          <CharString index="122">
            -27 callgsubr
            124 -21 167 -20 -38 callgsubr
            return
          </CharString>
          <CharString index="123">
            394 -11 67 220 63 59 63 return
          </CharString>
          <CharString index="124">
            457 -11 68 336 68 return
          </CharString>
          <CharString index="125">
            rmoveto
            22 -22 0 -15 vhcurveto
            -610 hlineto
            -15 -22 0 -22 -21 20 0 13 hvcurveto
            618 hlineto
            14 19 0 21 hvcurveto
            return
          </CharString>
          <CharString index="126">
            rmoveto
            39 -72 253 -70 vlineto
            -185 -253 rlineto
            -39 195 -100 60 100 vlineto
            4 574 rmoveto
            -50 hlineto
            return
          </CharString>
          <CharString index="127">
            hlineto
            -77 -278 rlineto
            -4 -12 0 -2 -4 vvcurveto
            -13 9 -9 13 15 4 12 12 3 vhcurveto
            82 294 rlineto
            return
          </CharString>
          <CharString index="128">
            694 -32 callgsubr
            return
          </CharString>
          <CharString index="129">
            618 148 rmoveto
            -84 hlineto
            -43 -22 -43 -39 -30 -29 6 7 -29 vhcurveto
            -53 13 -54 14 -54 1 26 return
          </CharString>
          <CharString index="130">
            -22 65 278 62 15 65 151 62 return
          </CharString>
          <CharString index="131">
            64 -54 rcurveline
            39 46 102 -25 81 -20 rrcurveto
            -9 35 36 -7 37 hhcurveto
            85 60 80 90 hvcurveto
            endchar
          </CharString>
          <CharString index="132">
            65 336 65 239 -20 hstemhm
            return
          </CharString>
          <CharString index="133">
            86 hstem
            99 86 vstem
            185 return
          </CharString>
          <CharString index="134">
            hlineto
            -12 callgsubr
            -65 callsubr
            endchar
          </CharString>
          <CharString index="135">
            45 callgsubr
            81 77 0 77 131 96 hintmask 11111010
            462 return
          </CharString>
          <CharString index="136">
            886 0 75 144 59 50 65 231 70 return
          </CharString>
          <CharString index="137">
            hstem
            228 64 102 64 vstem
            394 return
          </CharString>
          <CharString index="138">
            21 73 callgsubr
            return
          </CharString>
          <CharString index="139">
            83 202 83 return
          </CharString>
          <CharString index="140">
            514 -250 25 462 26 462 25 hstem
            221 71 cntrmask 11100000
            440 return
          </CharString>
          <CharString index="141">
            hintmask 00111000
            286 868 -95 callgsubr
          </CharString>
          <CharString index="142">
            514 -92 -21 102 65 342 65 0 65 return
          </CharString>
          <CharString index="143">
            799 -45 -21 44 65 608 65 44 -20 return
          </CharString>
          <CharString index="144">
            481 86 127 -20 hstem
            return
          </CharString>
          <CharString index="145">
            80 84 201 83 16 87 return
          </CharString>
          <CharString index="146">
            628 0 70 557 67 return
          </CharString>
          <CharString index="147">
            rmoveto
            20 -16 17 -21 -20 -17 -17 -20 -21 17 -16 20 21 16 16 21 vhcurveto
            return
          </CharString>
          <CharString index="148">
            hstemhm
            81 80 -80 32 callsubr
            return
          </CharString>
          <CharString index="149">
            vvcurveto
            32 -70 -55 vlineto
            -36 -8 -82 -77 -77 vhcurveto
            -21 -22 -30 -30 -70 vvcurveto
            return
          </CharString>
          <CharString index="150">
            rmoveto
            11 -6 25 -33 -17 -25 -6 -6 -21 vhcurveto
            -30 -8 -14 -3 -14 -1 return
          </CharString>
          <CharString index="151">
            514 -15 callgsubr
            93 68 339 65 return
          </CharString>
          <CharString index="152">
            86 114 86 vstem
            return
          </CharString>
          <CharString index="153">
            48 callgsubr
            vlineto
            return
          </CharString>
          <CharString index="154">
            87 -56 89 0 87 128 92 -91 91 -89 89 hintmask 1111000010000000
            return
          </CharString>
          <CharString index="155">
            67 52 -18 -36 54 hvcurveto
            16 87 rlineto
            25 -66 -58 10 -64 hhcurveto
            return
          </CharString>
          <CharString index="156">
            65 148 65 358 62 return
          </CharString>
          <CharString index="157">
            531 -173 -21 183 return
          </CharString>
          <CharString index="158">
            63 -21 134 -20 hstemhm
            return
          </CharString>
          <CharString index="159">
            57 85 286 85 return
          </CharString>
          <CharString index="160">
            88 -74 72 54 74 -1 74 52 88 -86 72 hintmask 0000001010000000
            return
          </CharString>
          <CharString index="161">
            799 -30 -21 603 -20 hstem
            86 626 vstem
            712 return
          </CharString>
          <CharString index="162">
            514 -22 65 568 65 hstem
            41 83 265 83 vstem
            return
          </CharString>
          <CharString index="163">
            34 46 26 rrcurveto
            return
          </CharString>
          <CharString index="164">
            1028 10 -21 239 44 -43 44 239 -20 hstemhm
            return
          </CharString>
          <CharString index="165">
            20 45 hhcurveto
            64 40 -41 -49 -55 -46 -35 -53 -39 hvcurveto
            return
          </CharString>
          <CharString index="166">
            rmoveto
            -50 hlineto
            71 callgsubr
            return
          </CharString>
          <CharString index="167">
            687 -11 callgsubr
            return
          </CharString>
          <CharString index="168">
            -63 183 -8 2 rlineto
            -75 hlineto
            82 -185 rlineto
            return
          </CharString>
          <CharString index="169">
            -242 -17 callgsubr
            -20 return
          </CharString>
          <CharString index="170">
            hstem
            95 96 vstem
            191 return
          </CharString>
          <CharString index="171">
            50 callsubr
            65 333 68 return
          </CharString>
          <CharString index="172">
            -21 590 75 hstem
            155 90 vstem
            470 return
          </CharString>
          <CharString index="173">
            -21 590 75 hstem
            150 90 vstem
            465 return
          </CharString>
          <CharString index="174">
            -1 -9 hhcurveto
            -79 hlineto
            118 90 rlineto
            76 51 return
          </CharString>
          <CharString index="175">
            657 -11 68 580 68 return
          </CharString>
          <CharString index="176">
            96 63 callsubr
            return
          </CharString>
          <CharString index="177">
            0 40 614 40 return
          </CharString>
          <CharString index="178">
            30 83 287 83 return
          </CharString>
          <CharString index="179">
            -21 172 -20 return
          </CharString>
          <CharString index="180">
            657 -22 68 602 68 hstem
            66 96 return
          </CharString>
          <CharString index="181">
            86 hstem
            -370 87 73 87 vstem
            -283 return
          </CharString>
          <CharString index="182">
            hstemhm
            95 96 198 63 24 63 -63 96 return
          </CharString>
          <CharString index="183">
            hlineto
            -13 -20 0 -21 -22 22 0 15 hvcurveto
            return
          </CharString>
          <CharString index="184">
            14 21 0 21 hvcurveto
            endchar
          </CharString>
          <CharString index="185">
            -21 109 71 return
          </CharString>
        <CharString name=".notdef">
          280 endchar
        </CharString>
        <CharString name="A">
          -56 callsubr
          hstem
          -104 callsubr
          endchar
        </CharString>
        <CharString name="AE">
          29 callsubr
          hstem
          225 95 111 95 vstem
          -59 callsubr
          endchar
        </CharString>
        <CharString name="AE.dup">
          29 callsubr
          hstem
          225 95 111 95 vstem
          -59 callsubr
          endchar
        </CharString>
        <CharString name="AEacute">
          29 callsubr
          31 callgsubr
          225 95 111 95 hintmask 11110011
          -59 callsubr
          hintmask 00001100
          203 242 -95 callgsubr
        </CharString>
        <CharString name="Aacute">
          -56 callsubr
          93 -21 122 -93 callsubr
          202 248 -95 callgsubr
        </CharString>
        <CharString name="Abreve">
          -56 callsubr
          72 -17 callgsubr
          -93 callsubr
          -1 callgsubr
          endchar
        </CharString>
        <CharString name="Abreveacute">
          -56 callsubr
          72 71 266 -93 callsubr
          185 306 -62 callgsubr
        </CharString>
        <CharString name="Abrevedotbelow">
          21 callgsubr
          72 -17 callgsubr
          -20 hstemhm
          296 96 hintmask 01111100
          -104 callsubr
          -1 callgsubr
          hintmask 10000010
          -125 -1126 -81 callsubr
        </CharString>
        <CharString name="Abrevegrave">
          -56 callsubr
          72 -17 callgsubr
          -93 callsubr
          185 306 -60 callgsubr
        </CharString>
        <CharString name="Abrevehookabove">
          -56 callsubr
          72 71 338 -93 callsubr
          -1 callgsubr
          -74 150 -107 callgsubr
        </CharString>
        <CharString name="Abrevetilde">
          -56 callsubr
          72 71 164 65 -7 65 -98 callsubr
          hintmask 00010100
          -1 callgsubr
          -4 178 -85 callsubr
        </CharString>
        <CharString name="Acaron">
          -56 callsubr
          83 -21 134 -63 callgsubr
          250 -83 callsubr
        </CharString>
        <CharString name="Acircumflex">
          -56 callsubr
          83 -21 134 -63 callgsubr
          116 -103 callsubr
          endchar
        </CharString>
        <CharString name="Acircumflexacute">
          -56 callsubr
          83 -21 291 -63 callgsubr
          116 -78 callgsubr
        </CharString>
        <CharString name="Acircumflexdotbelow">
          21 callgsubr
          83 -21 134 -20 hstemhm
          296 96 hintmask 01111100
          -104 callsubr
          167 116 -103 callsubr
          hintmask 10000010
          -48 -936 -81 callsubr
        </CharString>
        <CharString name="Acircumflexgrave">
          -56 callsubr
          83 -21 134 -63 callgsubr
          116 -79 callsubr
        </CharString>
        <CharString name="Acircumflexhookabove">
          -56 callsubr
          83 -21 363 -63 callgsubr
          116 -103 callsubr
          103 284 -107 callgsubr
        </CharString>
        <CharString name="Acircumflextilde">
          -56 callsubr
          83 -21 189 65 -7 65 -98 callsubr
          hintmask 00010100
          167 116 -103 callsubr
          74 312 -85 callsubr
        </CharString>
        <CharString name="Adblgrave">
          -56 callsubr
          93 -21 167 -93 callsubr
          130 126 -87 callgsubr
        </CharString>
        <CharString name="Adieresis">
          -56 callsubr
          62 86 hstemhm
          206 87 101 87 hintmask 11100100
          -104 callsubr
          hintmask 00011100
          -39 116 -74 callsubr
          endchar
        </CharString>
        <CharString name="Adotbelow">
          21 callgsubr
          hstemhm
          296 96 hintmask 01110000
          -104 callsubr
          hintmask 10001000
          60 -820 -81 callsubr
        </CharString>
        <CharString name="Agrave">
          -56 callsubr
          93 -21 122 -93 callsubr
          106 126 -72 callsubr
        </CharString>
        <CharString name="Ahookabove">
          -56 callsubr
          83 -21 214 -93 callsubr
          111 251 -107 callgsubr
        </CharString>
        <CharString name="Alpha">
          -56 callsubr
          hstem
          -104 callsubr
          endchar
        </CharString>
        <CharString name="Amacron">
          -56 callsubr
          82 69 -98 callsubr
          hintmask 00010000
          196 136 -61 callsubr
        </CharString>
        <CharString name="Aogonek">
          47 callgsubr
          hstemhm
          471 63 hintmask 01000000
          668 -187 rmoveto
          -14 59 rlineto
          hintmask 10111100
          -36 callgsubr
          endchar
        </CharString>
        <CharString name="Aogonekacute">
          47 callgsubr
          93 22 callgsubr
          471 63 hintmask 01000000
          668 -187 rmoveto
          -14 59 rlineto
          hintmask 10111001
          -36 callgsubr
          hintmask 00000111
          202 248 -95 callgsubr
        </CharString>
        <CharString name="Aring">
          -61 callgsubr
          47 74 47 hstemhm
          228 64 102 64 hintmask 11100000
          -104 callsubr
          hintmask 00111100
          62 158 -76 callgsubr
          endchar
        </CharString>
        <CharString name="Aringacute">
          -61 callgsubr
          47 74 47 157 -20 hstemhm
          228 64 102 64 hintmask 11100000
          -104 callsubr
          hintmask 00111110
          62 158 -76 callgsubr
          28 242 -95 callgsubr
        </CharString>
        <CharString name="Atilde">
          -56 callsubr
          62 65 -7 65 -98 callsubr
          hintmask 00001000
          181 239 -97 callsubr
        </CharString>
        <CharString name="B">
          -51 callsubr
        </CharString>
        <CharString name="Beta">
          -51 callsubr
        </CharString>
        <CharString name="C">
          68 callsubr
          hstem
          66 96 vstem
          -92 callgsubr
          endchar
        </CharString>
        <CharString name="Cacute">
          68 callsubr
          62 22 callgsubr
          66 96 hintmask 11001000
          -92 callgsubr
          hintmask 00110000
          -51 823 -95 callgsubr
        </CharString>
        <CharString name="Ccaron">
          68 callsubr
          52 -21 134 -20 hstemhm
          66 96 hintmask 11001000
          -92 callgsubr
          hintmask 00110000
          -86 825 -83 callsubr
        </CharString>
        <CharString name="Ccedilla">
          73 callsubr
          55 callgsubr
          -153 -92 149 152 160 99 141 143 48 callsubr
          -200 -139 -174 -195 -193 137 -176 203 90 39 15 41 70 hvcurveto
          -195 -80 1 callsubr
          endchar
        </CharString>
        <CharString name="Ccircumflex">
          68 callsubr
          52 -21 134 -20 hstemhm
          66 96 hintmask 11001000
          -92 callgsubr
          hintmask 00110000
          -86 691 -103 callsubr
          endchar
        </CharString>
        <CharString name="Cdotaccent">
          68 callsubr
          31 96 hstemhm
          66 96 151 96 hintmask 11010000
          -92 callgsubr
          hintmask 00101000
          -194 691 -81 callsubr
        </CharString>
        <CharString name="Chi">
          -20 callgsubr
        </CharString>
        <CharString name="D">
          743 0 59 576 59 hstem
          97 93 402 93 vstem
          -70 callgsubr
          endchar
        </CharString>
        <CharString name="Dcaron">
          743 0 59 576 59 51 callsubr
          97 93 402 93 hintmask 11001100
          -70 callgsubr
          hintmask 00110000
          -169 529 -83 callsubr
        </CharString>
        <CharString name="Dcroat">
          -39 callgsubr
        </CharString>
        <CharString name="Ddotbelow">
          743 -15 callgsubr
          104 59 576 59 hstemhm
          97 93 29 96 277 93 hintmask 01110100
          -70 callgsubr
          hintmask 10001000
          -277 -541 -81 callsubr
        </CharString>
        <CharString name="Delta">
          856 0 90 604 -20 hstem
          812 hmoveto
          -337 694 rlineto
          -95 hlineto
          -337 -694 rlineto
          619 90 rmoveto
          -493 hlineto
          141 295 45 95 47 98 13 42 rlinecurve
          13 -43 53 -111 44 -91 rrcurveto
          endchar
        </CharString>
        <CharString name="Dlinebelow">
          743 -186 69 117 59 576 59 hstemhm
          97 93 402 93 hintmask 01111000
          -70 callgsubr
          hintmask 10000000
          -140 -527 -61 callsubr
        </CharString>
        <CharString name="E">
          -63 callsubr
          hstem
          95 96 vstem
          -96 callsubr
          endchar
        </CharString>
        <CharString name="Eacute">
          -63 callsubr
          76 -21 122 -85 callgsubr
          405 868 -95 callgsubr
        </CharString>
        <CharString name="Ebreve">
          -63 callsubr
          55 -17 callgsubr
          -85 callgsubr
          388 926 -105 callgsubr
          endchar
        </CharString>
        <CharString name="Ecaron">
          -63 callsubr
          66 -21 134 -57 callgsubr
          870 -83 callsubr
        </CharString>
        <CharString name="Ecircumflex">
          -63 callsubr
          66 -21 134 -57 callgsubr
          736 -103 callsubr
          endchar
        </CharString>
        <CharString name="Ecircumflexacute">
          -63 callsubr
          66 -21 291 -57 callgsubr
          736 -78 callgsubr
        </CharString>
        <CharString name="Ecircumflexdotbelow">
          617 -15 callgsubr
          104 76 251 65 229 70 66 -21 134 -20 hstemhm
          95 96 70 96 hintmask 01111110
          -96 callsubr
          370 736 -103 callsubr
          hintmask 10000001
          -49 -936 -81 callsubr
        </CharString>
        <CharString name="Ecircumflexgrave">
          -63 callsubr
          66 -21 134 -57 callgsubr
          736 -79 callsubr
        </CharString>
        <CharString name="Ecircumflexhookabove">
          -63 callsubr
          66 -21 363 -57 callgsubr
          736 -103 callsubr
          103 284 -107 callgsubr
        </CharString>
        <CharString name="Ecircumflextilde">
          -63 callsubr
          66 -21 189 -11 callsubr
          95 96 hintmask 11100010
          -96 callsubr
          hintmask 00010100
          370 736 -103 callsubr
          74 312 -85 callsubr
        </CharString>
        <CharString name="Edblgrave">
          -63 callsubr
          76 -21 167 -85 callgsubr
          361 746 -87 callgsubr
        </CharString>
        <CharString name="Edieresis">
          -63 callsubr
          45 86 hstemhm
          95 96 -19 87 101 87 hintmask 11101000
          -96 callsubr
          hintmask 00010110
          164 736 -74 callsubr
          endchar
        </CharString>
        <CharString name="Edotaccent">
          -63 callsubr
          45 96 hstemhm
          95 96 70 96 hintmask 11101000
          -96 callsubr
          hintmask 00010100
          262 736 -81 callsubr
        </CharString>
        <CharString name="Edotbelow">
          617 -15 callgsubr
          104 76 251 65 229 70 hstemhm
          95 96 70 96 hintmask 01111000
          -96 callsubr
          hintmask 10000100
          262 -200 -81 callsubr
        </CharString>
        <CharString name="Egrave">
          -63 callsubr
          76 -21 122 -85 callgsubr
          309 746 -72 callsubr
        </CharString>
        <CharString name="Ehookabove">
          -63 callsubr
          66 -21 214 -85 callgsubr
          314 871 -107 callgsubr
        </CharString>
        <CharString name="Emacron">
          -63 callsubr
          65 69 hstemhm
          95 96 hintmask 11101000
          -96 callsubr
          hintmask 00010000
          399 756 -61 callsubr
        </CharString>
        <CharString name="Eng">
          727 -22 84 570 84 hstem
          95 96 344 96 vstem
          631 347 rmoveto
          183 -71 186 -160 -82 -73 -32 -53 -54 vhcurveto
          63 -96 -694 96 468 vlineto
          94 23 84 70 102 hhcurveto
          116 19 -149 -136 -135 -19 -150 -116 hvcurveto
          -84 vlineto
          160 71 186 183 hvcurveto
          endchar
        </CharString>
        <CharString name="Eogonek">
          54 callgsubr
          75 callsubr
          hintmask 10000101
          586 -53 callsubr
          rrcurveto
          hintmask 11111110
          -1 44 42 56 callsubr
          34 76 -100 hlineto
          -282 -2 rlineto
          253 339 65 -339 231 38 vlineto
          244 -2 rlineto
          86 70 -464 -691 381 27 callsubr
        </CharString>
        <CharString name="Eogonekacute">
          54 callgsubr
          76 -21 122 -20 75 callsubr
          hintmask 1000000101000000
          586 -53 callsubr
          rrcurveto
          hintmask 1111001110000000
          -1 44 42 56 callsubr
          34 76 -100 hlineto
          -282 -2 rlineto
          253 339 65 -339 231 38 vlineto
          244 -2 rlineto
          86 70 -464 -691 381 hlineto
          -12 callgsubr
          -65 callsubr
          hintmask 0000110100000000
          -86 1055 -95 callgsubr
        </CharString>
        <CharString name="Epsilon">
          -63 callsubr
          hstem
          95 96 vstem
          -96 callsubr
          endchar
        </CharString>
        <CharString name="Ereversed">
          -63 callsubr
          hstem
          477 96 vstem
          573 hmoveto
          691 -464 -70 86 vlineto
          244 2 rlineto
          38 -231 -339 -65 339 -253 hlineto
          -282 2 rlineto
          -100 -76 hlineto
          endchar
        </CharString>
        <CharString name="Eta">
          5 callsubr
          hstem
          95 96 344 96 vstem
          -59 callgsubr
          endchar
        </CharString>
        <CharString name="Eth">
          -39 callgsubr
        </CharString>
        <CharString name="Etilde">
          -63 callsubr
          45 65 -7 65 -87 callsubr
          hintmask 00001000
          384 859 -97 callsubr
        </CharString>
        <CharString name="Euro">
          615 -22 68 210 58 66 58 210 68 hstem
          123 96 vstem
          564 34 rmoveto
          -6 74 rlineto
          -50 -50 -30 -12 -71 hhcurveto
          -56 -46 40 48 -31 hvcurveto
          -23 38 -15 41 -9 43 rrcurveto
          250 hlineto
          10 58 rlineto
          -267 hlineto
          -1 11 0 11 11 vvcurveto
          11 0 11 1 11 vhcurveto
          279 hlineto
          10 58 rlineto
          -282 hlineto
          9 43 15 42 23 37 rrcurveto
          49 31 46 39 56 hhcurveto
          54 38 -15 -38 38 hvcurveto
          15 87 rlineto
          25 -50 -39 9 -56 hhcurveto
          -80 -72 -44 -64 -49 hvcurveto
          -38 -50 -25 -58 -11 -62 rrcurveto
          -70 hlineto
          -10 -58 rlineto
          72 hlineto
          -1 -11 0 -11 -11 vvcurveto
          -11 0 -11 1 -11 vhcurveto
          -62 hlineto
          -10 -58 rlineto
          80 hlineto
          11 -61 25 -59 38 -50 rrcurveto
          -64 49 72 -44 80 hhcurveto
          72 30 11 45 55 hvcurveto
          endchar
        </CharString>
        <CharString name="F">
          589 21 -21 313 65 243 70 hstem
          95 96 vstem
          545 621 rmoveto
          70 -450 -691 96 313 311 65 -311 245 34 vlineto
          237 -2 rlineto
          endchar
        </CharString>
        <CharString name="G">
          4 callgsubr
          hstem
          66 96 369 84 vstem
          -100 callsubr
          endchar
        </CharString>
        <CharString name="Gacute">
          4 callgsubr
          62 22 callgsubr
          66 96 369 84 hintmask 11100110
          -100 callsubr
          hintmask 00011000
          -81 830 -95 callgsubr
        </CharString>
        <CharString name="Gamma">
          560 21 -21 621 70 hstem
          95 96 vstem
          516 621 rmoveto
          70 -421 -691 96 623 27 vlineto
          223 -2 rlineto
          endchar
        </CharString>
        <CharString name="Gbreve">
          4 callgsubr
          41 -17 callgsubr
          -20 hstemhm
          66 96 369 84 hintmask 11100110
          -100 callsubr
          hintmask 00011000
          -98 888 -105 callgsubr
          endchar
        </CharString>
        <CharString name="Gcaron">
          4 callgsubr
          52 -21 134 -20 hstemhm
          66 96 369 84 hintmask 11100110
          -100 callsubr
          hintmask 00011000
          -116 832 -83 callsubr
        </CharString>
        <CharString name="Gcedilla">
          685 -42 callgsubr
          68 6 callgsubr
          hstem
          66 96 369 84 vstem
          -100 callsubr
          -233 -194 -86 callgsubr
        </CharString>
        <CharString name="Gcircumflex">
          4 callgsubr
          52 -21 134 -20 hstemhm
          66 96 369 84 hintmask 11100110
          -100 callsubr
          hintmask 00011000
          -116 698 -103 callsubr
          endchar
        </CharString>
        <CharString name="Gcommaaccent">
          685 -42 callgsubr
          68 6 callgsubr
          hstemhm
          66 96 369 84 hintmask 00111110
          -100 callsubr
          hintmask 11000000
          -233 -194 -86 callgsubr
        </CharString>
        <CharString name="Gdotaccent">
          4 callgsubr
          31 96 hstemhm
          66 96 133 96 140 84 hintmask 11101010
          -100 callsubr
          hintmask 00010100
          -224 698 -81 callsubr
        </CharString>
        <CharString name="H">
          5 callsubr
          hstem
          95 96 344 96 vstem
          -59 callgsubr
          endchar
        </CharString>
        <CharString name="H_uni0303">
          5 callsubr
          62 -11 callsubr
          95 96 344 96 hintmask 11100110
          -59 callgsubr
          hintmask 00001000
          -2 859 -97 callsubr
        </CharString>
        <CharString name="Hbar">
          727 21 -21 328 65 94 68 139 -20 hstem
          95 96 344 96 vstem
          687 487 rmoveto
          68 -56 139 -96 -139 -344 139 -96 -139 -56 -68 56 -487 96 328 344 -328 96 487 vlineto
          -96 -94 rmoveto
          -344 94 344 hlineto
          endchar
        </CharString>
        <CharString name="Hbrevebelow">
          727 62 callsubr
          103 75 callgsubr
          344 96 hintmask 00111110
          -59 callgsubr
          hintmask 11000000
          2 -62 -105 callgsubr
          endchar
        </CharString>
        <CharString name="Hcircumflex">
          5 callsubr
          83 -21 134 -20 hstemhm
          95 96 344 96 hintmask 11100110
          -59 callgsubr
          hintmask 00011000
          -16 736 -103 callsubr
          endchar
        </CharString>
        <CharString name="Hdieresis">
          5 callsubr
          62 86 hstemhm
          95 96 35 87 101 87 34 96 hintmask 11101001
          -59 callgsubr
          hintmask 00010110
          -222 736 -74 callsubr
          endchar
        </CharString>
        <CharString name="Hdotbelow">
          727 -200 96 125 75 callgsubr
          125 96 123 96 hintmask 01111010
          -59 callgsubr
          hintmask 10000100
          -123 -200 -81 callsubr
        </CharString>
        <CharString name="I">
          6 callsubr
          hstem
          95 96 vstem
          -52 callsubr
          endchar
        </CharString>
        <CharString name="I_J">
          744 -22 65 -43 20 674 -20 hstemhm
          95 96 373 93 hintmask 01111000
          -52 callsubr
          562 149 rmoveto
          545 -93 -542 vlineto
          hintmask 10000000
          -17 0 -92 -119 -53 -48 26 31 -29 vhcurveto
          hintmask 01000000
          -14 -80 rlineto
          hintmask 10001000
          -36 72 65 -6 39 hhcurveto
          103 77 55 116 hvcurveto
          endchar
        </CharString>
        <CharString name="Iacute">
          6 callsubr
          93 22 callgsubr
          95 96 hintmask 11001000
          -52 callsubr
          34 callsubr
        </CharString>
        <CharString name="Ibreve">
          6 callsubr
          72 -17 callgsubr
          -20 hstemhm
          95 96 hintmask 11001000
          -52 callsubr
          hintmask 00110000
          223 926 -105 callgsubr
          endchar
        </CharString>
        <CharString name="Icaron">
          6 callsubr
          83 -21 134 -20 hstemhm
          95 96 hintmask 11001000
          -52 callsubr
          hintmask 00110000
          205 870 -83 callsubr
        </CharString>
        <CharString name="Icircumflex">
          6 callsubr
          83 -21 134 -20 hstemhm
          95 96 hintmask 11001000
          -52 callsubr
          hintmask 00110000
          205 736 -103 callsubr
          endchar
        </CharString>
        <CharString name="Idblgrave">
          6 callsubr
          93 -23 callgsubr
          95 96 hintmask 11001000
          -52 callsubr
          hintmask 00110000
          196 746 -87 callgsubr
        </CharString>
        <CharString name="Idieresis">
          287 60 callgsubr
          7 87 1 96 4 87 hintmask 11001000
          -52 callsubr
          hintmask 00110100
          -1 736 -74 callsubr
          endchar
        </CharString>
        <CharString name="Idieresisacute">
          6 callsubr
          62 86 31 callgsubr
          7 87 1 96 4 87 hintmask 11000010
          -52 callsubr
          hintmask 00111101
          -1 736 -74 callsubr
          140 260 -95 callgsubr
        </CharString>
        <CharString name="Idotaccent">
          6 callsubr
          62 96 hstemhm
          95 96 -95 96 hintmask 11010000
          -52 callsubr
          hintmask 00101000
          97 736 -81 callsubr
        </CharString>
        <CharString name="Idotbelow">
          287 -11 callgsubr
          694 -20 hstemhm
          95 96 -95 96 hintmask 01110000
          -52 callsubr
          hintmask 10001000
          97 -200 -81 callsubr
        </CharString>
        <CharString name="Igrave">
          6 callsubr
          93 22 callgsubr
          95 96 hintmask 11001000
          -52 callsubr
          hintmask 00111000
          96 746 -72 callsubr
        </CharString>
        <CharString name="Ihookabove">
          6 callsubr
          83 -21 214 -20 hstemhm
          95 96 hintmask 11001000
          -52 callsubr
          hintmask 00110000
          149 871 -107 callgsubr
        </CharString>
        <CharString name="Imacron">
          6 callsubr
          82 69 hstemhm
          95 96 hintmask 11010000
          -52 callsubr
          hintmask 00100000
          234 756 -61 callsubr
        </CharString>
        <CharString name="Imacron.alt">
          6 callsubr
          82 69 hstemhm
          95 96 hintmask 11010000
          -52 callsubr
          hintmask 00100000
          148 756 -2 callgsubr
        </CharString>
        <CharString name="Iogonek">
          287 -212 70 163 -40 callgsubr
          hstemhm
          95 96 -65 96 hintmask 10001000
          236 -53 callsubr
          rrcurveto
          hintmask 01110000
          -1 44 44 56 callsubr
          694 -96 -694 vlineto
          hintmask 11001000
          31 27 callsubr
        </CharString>
        <CharString name="Iogonekacute">
          287 -212 70 163 -40 callgsubr
          93 22 callgsubr
          95 96 -65 96 hintmask 10000010
          236 -53 callsubr
          rrcurveto
          hintmask 01100100
          -1 44 44 56 callsubr
          694 -96 -694 vlineto
          hintmask 11000010
          31 hlineto
          -12 callgsubr
          -65 callsubr
          hintmask 00011100
          145 1055 -95 callgsubr
        </CharString>
        <CharString name="Iota">
          6 callsubr
          hstem
          95 96 vstem
          -52 callsubr
          endchar
        </CharString>
        <CharString name="Itilde">
          6 callsubr
          62 -11 callsubr
          95 96 hintmask 11001000
          -52 callsubr
          hintmask 00010000
          219 859 -102 callgsubr
        </CharString>
        <CharString name="J">
          486 -22 65 651 -20 hstem
          306 93 vstem
          -48 callsubr
          endchar
        </CharString>
        <CharString name="J_uni030C.cap">
          486.10715 -22 65 480 -21 114 78 hstem
          306 93 vstem
          -48 callsubr
          116 468 -86 callgsubr
        </CharString>
        <CharString name="Jacute">
          486 -22 65 651 -20 93 22 callgsubr
          306 93 hintmask 11001000
          -48 callsubr
          hintmask 00111000
          193 719 -95 callgsubr
        </CharString>
        <CharString name="Jcircumflex">
          486 -22 65 651 -20 83 -21 134 -20 hstemhm
          306 93 hintmask 11001000
          -48 callsubr
          hintmask 00110000
          109 587 -103 callsubr
          endchar
        </CharString>
        <CharString name="K">
          715 24 callgsubr
          98 91 vstem
          -48 callgsubr
          endchar
        </CharString>
        <CharString name="Kappa">
          715 24 callgsubr
          98 91 vstem
          -48 callgsubr
          endchar
        </CharString>
        <CharString name="Kcedilla">
          715 16 callgsubr
          hstem
          98 91 vstem
          -48 callgsubr
          -175 -156 -86 callgsubr
        </CharString>
        <CharString name="Kcommaaccent">
          715 9 callsubr
          98 91 hintmask 00111000
          -48 callgsubr
          hintmask 11000000
          -175 -156 -86 callgsubr
        </CharString>
        <CharString name="L">
          560 0 70 624 -20 hstem
          95 96 vstem
          -57 callsubr
          endchar
        </CharString>
        <CharString name="L_uni0303">
          560 0 70 624 -20 62 -11 callsubr
          95 96 hintmask 11001000
          -57 callsubr
          hintmask 00010000
          218 859 -102 callgsubr
        </CharString>
        <CharString name="Lacute">
          560 0 70 624 -20 93 22 callgsubr
          95 96 hintmask 11001000
          -57 callsubr
          34 callsubr
        </CharString>
        <CharString name="Lambda">
          630 24 callgsubr
          600 hmoveto
          -240 694 rlineto
          -91 hlineto
          -240 -694 rlineto
          78 hlineto
          106 311 51 158 34 112 2 19 2 17 rlinecurve
          1 hlineto
          0 4 -36 36 -118 vhcurveto
          55 -169 101 -294 rlineto
          endchar
        </CharString>
        <CharString name="Lcaron">
          560 0 70 453 -21 114 78 hstem
          95 96 vstem
          -57 callsubr
          231 617 -86 callgsubr
        </CharString>
        <CharString name="Lcedilla">
          560 -42 callgsubr
          79 70 624 -20 hstem
          95 96 vstem
          -57 callsubr
          224 -156 -86 callgsubr
        </CharString>
        <CharString name="Lcommaaccent">
          560 -42 callgsubr
          79 70 624 -20 hstemhm
          95 96 hintmask 00111000
          -57 callsubr
          hintmask 11000000
          224 -156 -86 callgsubr
        </CharString>
        <CharString name="Ldot">
          560 0 70 251 96 277 -20 hstem
          95 96 184 96 vstem
          -57 callsubr
          376 321 -81 callsubr
        </CharString>
        <CharString name="Ldotbelow">
          560 -15 callgsubr
          104 70 624 -20 hstemhm
          95 96 41 96 hintmask 01110000
          -57 callsubr
          hintmask 10001000
          233 -200 -81 callsubr
        </CharString>
        <CharString name="Ldotbelowmacron">
          560 -15 callgsubr
          104 70 624 -20 82 69 hstemhm
          95 96 41 96 hintmask 11101100
          -57 callsubr
          233 -200 rmoveto
          96 -96 -96 vlineto
          hintmask 00010100
          96 956 -61 callsubr
        </CharString>
        <CharString name="Lslash">
          646 0 68 626 -20 hstem
          171 96 vstem
          592 hmoveto
          70 -44 vlineto
          -243 -2 rlineto
          -38 298 hlineto
          165 137 -38 45 -127 -107 rlineto
          253 -96 -334 vlineto
          -97 -82 37 -43 60 51 rlineto
          -286 vlineto
          endchar
        </CharString>
        <CharString name="M">
          -45 callgsubr
        </CharString>
        <CharString name="Mdotbelow">
          898 -11 callgsubr
          694 -20 hstemhm
          102 82 0 82 135 96 44 82 90 82 hintmask 01110011
          795 hmoveto
          694 -120 vlineto
          -134 -342 -26 -67 -54 -138 -12 -49 rlinecurve
          -1 hlineto
          -10 41 -46 121 -19 48 -133 341 rcurveline
          -18 45 rlineto
          -120 -694 82 616 1 hlineto
          hintmask 01001011
          12 -51 58 -149 11 -28 110 -282 rcurveline
          33 -84 rlineto
          76 hlineto
          138 352 15 37 61 158 13 47 rlinecurve
          1 -616 hlineto
          hintmask 10000100
          -216 -200 -81 callsubr
        </CharString>
        <CharString name="Mu">
          -45 callgsubr
        </CharString>
        <CharString name="N">
          727 24 callgsubr
          98 82 366 82 vstem
          -89 callgsubr
          endchar
        </CharString>
        <CharString name="Nacute">
          727 -35 callsubr
          93 22 callgsubr
          98 82 366 82 hintmask 11001100
          -89 callgsubr
          hintmask 00110000
          58 868 -95 callgsubr
        </CharString>
        <CharString name="Ncaron">
          727 -35 callsubr
          83 -21 134 -20 hstemhm
          98 82 366 82 hintmask 11001100
          -89 callgsubr
          hintmask 00110000
          23 870 -83 callsubr
        </CharString>
        <CharString name="Ncedilla">
          727 16 callgsubr
          hstem
          98 82 366 82 vstem
          -89 callgsubr
          -94 -156 -86 callgsubr
        </CharString>
        <CharString name="Ncommaaccent">
          727 9 callsubr
          98 82 366 82 hintmask 00111100
          -89 callgsubr
          hintmask 11000000
          -94 -156 -86 callgsubr
        </CharString>
        <CharString name="Ndotaccent">
          727 -35 callsubr
          62 96 hstemhm
          98 82 136 96 134 82 hintmask 11010100
          -89 callgsubr
          hintmask 00101000
          -84 736 -81 callsubr
        </CharString>
        <CharString name="Ndotbelow">
          727 -11 callgsubr
          694 -20 hstemhm
          98 82 136 96 134 82 hintmask 01110100
          -89 callgsubr
          hintmask 10001000
          -84 -200 -81 callsubr
        </CharString>
        <CharString name="Ntilde">
          727 -35 callsubr
          62 -11 callsubr
          98 82 366 82 hintmask 11001100
          -89 callgsubr
          hintmask 00010000
          37 859 -102 callgsubr
        </CharString>
        <CharString name="Nu">
          727 24 callgsubr
          98 82 366 82 vstem
          -89 callgsubr
          endchar
        </CharString>
        <CharString name="O">
          -54 callgsubr
          hstem
          57 96 452 96 vstem
          -106 callgsubr
          endchar
        </CharString>
        <CharString name="OE">
          -66 callsubr
        </CharString>
        <CharString name="OE.dup">
          -66 callsubr
        </CharString>
        <CharString name="Oacute">
          17 callgsubr
          122 -100 callgsubr
          -34 509 -95 callgsubr
        </CharString>
        <CharString name="Obreve">
          -54 callgsubr
          30 -17 callgsubr
          -100 callgsubr
          -51 567 -105 callgsubr
          endchar
        </CharString>
        <CharString name="Ocaron">
          -54 callgsubr
          41 -21 134 -79 callgsubr
          511 -83 callsubr
        </CharString>
        <CharString name="Ocircumflex">
          -54 callgsubr
          41 -21 134 -79 callgsubr
          377 -103 callsubr
          endchar
        </CharString>
        <CharString name="Ocircumflexacute">
          -54 callgsubr
          41 -21 291 -79 callgsubr
          377 -78 callgsubr
        </CharString>
        <CharString name="Ocircumflexdotbelow">
          759 -15 callgsubr
          82 70 600 68 41 -21 134 -20 hstemhm
          57 96 179 96 177 96 hintmask 01111101
          -106 callgsubr
          -69 377 -103 callsubr
          hintmask 10000010
          -49 -936 -81 callsubr
        </CharString>
        <CharString name="Ocircumflexgrave">
          -54 callgsubr
          41 -21 134 -79 callgsubr
          377 -79 callsubr
        </CharString>
        <CharString name="Ocircumflexhookabove">
          -54 callgsubr
          41 -21 363 -79 callgsubr
          377 -103 callsubr
          103 284 -107 callgsubr
        </CharString>
        <CharString name="Ocircumflextilde">
          -54 callgsubr
          41 -21 189 -11 callsubr
          57 96 452 96 hintmask 11000110
          -106 callgsubr
          hintmask 00101000
          -69 377 -103 callsubr
          74 312 -97 callsubr
        </CharString>
        <CharString name="Odblgrave">
          17 callgsubr
          167 -100 callgsubr
          -78 387 -87 callgsubr
        </CharString>
        <CharString name="Odieresis">
          -54 callgsubr
          20 86 hstemhm
          57 96 90 87 101 87 87 96 hintmask 11010010
          -106 callgsubr
          hintmask 00101100
          -275 377 -74 callsubr
          endchar
        </CharString>
        <CharString name="Odotbelow">
          759 -15 callgsubr
          82 70 600 68 hstemhm
          57 96 179 96 177 96 hintmask 01110100
          -106 callgsubr
          hintmask 10001000
          -177 -559 -81 callsubr
        </CharString>
        <CharString name="Ograve">
          17 callgsubr
          122 -100 callgsubr
          -130 387 -72 callsubr
        </CharString>
        <CharString name="Ohookabove">
          -54 callgsubr
          41 -21 214 -100 callgsubr
          -125 512 -107 callgsubr
        </CharString>
        <CharString name="Ohorn">
          -54 callgsubr
          65 -20 hstemhm
          57 96 393 86 -28 96 hintmask 11111000
          -91 callsubr
          hintmask 11010100
          -83 callgsubr
          endchar
        </CharString>
        <CharString name="Ohornacute">
          17 callgsubr
          35 -20 107 -20 hstemhm
          57 96 393 86 -28 96 hintmask 11010110
          -91 callsubr
          hintmask 11000101
          -83 callgsubr
          hintmask 00101000
          -62 507 -95 callgsubr
        </CharString>
        <CharString name="Ohorndotbelow">
          759 -15 callgsubr
          82 70 600 68 65 -20 hstemhm
          57 96 179 96 118 86 -28 96 hintmask 01111010
          -91 callsubr
          hintmask 01101001
          -83 callgsubr
          hintmask 10000100
          -176 -561 -81 callsubr
        </CharString>
        <CharString name="Ohorngrave">
          17 callgsubr
          35 -20 107 -20 hstemhm
          57 96 393 86 -28 96 hintmask 11010110
          -91 callsubr
          hintmask 11000101
          -83 callgsubr
          hintmask 00101000
          -129 385 -72 callsubr
        </CharString>
        <CharString name="Ohornhookabove">
          -54 callgsubr
          41 -21 45 -20 189 -20 hstemhm
          57 96 393 86 -28 96 hintmask 11010110
          -91 callsubr
          hintmask 11000101
          -83 callgsubr
          hintmask 00101000
          -124 510 -107 callgsubr
        </CharString>
        <CharString name="Ohorntilde">
          -54 callgsubr
          20 -11 callsubr
          57 96 393 86 -28 96 hintmask 11001100
          -91 callsubr
          hintmask 11001010
          -83 callgsubr
          hintmask 00010000
          -54 498 -102 callgsubr
        </CharString>
        <CharString name="Ohungarumlaut">
          17 callgsubr
          167 -100 callgsubr
          -226 554 -66 callgsubr
        </CharString>
        <CharString name="Omacron">
          -54 callgsubr
          40 69 hstemhm
          57 96 452 96 hintmask 11011000
          -106 callgsubr
          hintmask 00100000
          -40 397 -61 callsubr
        </CharString>
        <CharString name="Omega">
          -55 callgsubr
        </CharString>
        <CharString name="Omicron">
          -54 callgsubr
          hstem
          57 96 452 96 vstem
          -106 callgsubr
          endchar
        </CharString>
        <CharString name="Oogonek">
          -54 callgsubr
          hstem
          57 96 452 96 vstem
          -53 callgsubr
          endchar
        </CharString>
        <CharString name="Oogonekacute">
          17 callgsubr
          122 -20 hstemhm
          57 96 452 96 hintmask 11001100
          -53 callgsubr
          hintmask 00110000
          -34 509 -95 callgsubr
        </CharString>
        <CharString name="Orogate">
          759 57 96 194 64 194 96 vstem
          701 344 rmoveto
          198 -131 154 -159 18 vhcurveto
          168 -64 -168 vlineto
          -159 -18 -131 -154 -198 vvcurveto
          -195 132 -151 158 -18 vhcurveto
          -168 64 168 vlineto
          159 18 131 151 195 vvcurveto
          -96 15 rmoveto
          -188 -107 -123 -119 -119 -107 123 188 183 112 106 114 114 112 -107 -182 vhcurveto
          endchar
        </CharString>
        <CharString name="Oslash">
          36 callsubr
          hstem
          57 91 41 91 238 91 41 91 vstem
          -80 callsubr
          endchar
        </CharString>
        <CharString name="Oslash.dup">
          36 callsubr
          hstem
          57 91 41 91 238 91 41 91 vstem
          -80 callsubr
          endchar
        </CharString>
        <CharString name="Oslashacute">
          36 callsubr
          27 22 callgsubr
          57 91 41 91 238 91 41 91 hintmask 1111001111000000
          -80 callsubr
          hintmask 0000110000000000
          -59 524 -95 callgsubr
        </CharString>
        <CharString name="Otilde">
          -54 callgsubr
          20 65 -7 65 -101 callgsubr
          hintmask 00010000
          -55 500 -102 callgsubr
        </CharString>
        <CharString name="P">
          -29 callgsubr
        </CharString>
        <CharString name="Phi">
          742 21 -21 106 66 350 66 106 -20 hstem
          57 93 173 90 178 93 vstem
          684 347 rmoveto
          124 -121 102 -150 15 vhcurveto
          106 -90 -107 vlineto
          -153 -17 -113 -104 -119 vvcurveto
          -119 113 -104 153 -17 vhcurveto
          -107 90 106 vlineto
          150 15 121 102 124 vvcurveto
          -361 -175 rmoveto
          -122 20 -51 79 76 vvcurveto
          76 51 79 122 20 vhcurveto
          268 -175 rmoveto
          -72 -49 -86 -129 -17 vhcurveto
          350 vlineto
          130 -18 48 -85 -72 vvcurveto
          endchar
        </CharString>
        <CharString name="Pi">
          727 21 -21 626 65 hstem
          95 96 344 96 vstem
          631 hmoveto
          691 -536 -691 96 626 344 -626 vlineto
          endchar
        </CharString>
        <CharString name="Psi">
          799 21 -21 547 68 79 -20 hstem
          126 90 135 90 141 90 vstem
          741 550 rmoveto
          65 -80 vlineto
          -43 -36 -10 -165 -74 -1 -156 -140 -35 hvcurveto
          519 -90 -519 vlineto
          -135 35 0 164 48 vvcurveto
          149 -15 44 -64 vhcurveto
          -80 -65 hlineto
          64 -4 5 -77 -66 vvcurveto
          1 -122 49 -150 175 -24 rrcurveto
          -107 90 107 vlineto
          229 30 2 225 64 vvcurveto
          37 6 83 63 4 vhcurveto
          endchar
        </CharString>
        <CharString name="Q">
          759 -106 -21 105 68 602 68 hstem
          57 93 458 93 vstem
          -95 callsubr
          31 39 7 9 26 vhcurveto
          85 -121 rlineto
          112 hlineto
          -123 160 rlineto
          89 63 63 113 135 vvcurveto
          -93 1 rmoveto
          -129 -54 -84 -50 -39 vhcurveto
          -78 101 rlineto
          -94 hlineto
          99 -141 rlineto
          -5 -17 -17 -2 -18 hhcurveto
          -117 -112 112 187 184 109 119 120 120 109 -120 -183 hvcurveto
          endchar
        </CharString>
        <CharString name="R">
          666 21 -21 315 30 callgsubr
          hintmask 00001000
          636 hmoveto
          -202 325 rlineto
          hintmask 11110100
          -92 callsubr
          endchar
        </CharString>
        <CharString name="Racute">
          4 callsubr
          31 callgsubr
          97 93 244 -29 callsubr
          hintmask 11100101
          -92 callsubr
          hintmask 00011000
          3 361 -95 callgsubr
        </CharString>
        <CharString name="Rcaron">
          4 callsubr
          51 callsubr
          97 93 244 -29 callsubr
          hintmask 11100101
          -92 callsubr
          hintmask 00011000
          -32 363 -83 callsubr
        </CharString>
        <CharString name="Rcedilla">
          666 26 callgsubr
          315 65 255 59 hstemhm
          97 93 244 -29 callsubr
          hintmask 11111101
          -92 callsubr
          -149 -663 -86 callgsubr
        </CharString>
        <CharString name="Rcommaaccent">
          666 26 callgsubr
          315 65 255 59 hstemhm
          97 93 244 -29 callsubr
          hintmask 00111101
          -92 callsubr
          hintmask 11000000
          -149 -663 -86 callgsubr
        </CharString>
        <CharString name="Rdblgrave">
          4 callsubr
          73 -23 callgsubr
          97 93 244 -29 callsubr
          hintmask 11100101
          -92 callsubr
          hintmask 00011000
          -70 239 -87 callgsubr
        </CharString>
        <CharString name="Rdotaccent">
          4 callsubr
          42 96 hstemhm
          97 93 95 96 53 -29 callsubr
          hintmask 11101001
          -92 callsubr
          hintmask 00010100
          -140 229 -81 callsubr
        </CharString>
        <CharString name="Rdotbelow">
          666 -11 callgsubr
          315 64 callgsubr
          hstemhm
          97 93 95 96 53 -29 callsubr
          hintmask 01111001
          -92 callsubr
          hintmask 10000100
          -140 -707 -81 callsubr
        </CharString>
        <CharString name="Rdotbelowmacron">
          666 -11 callgsubr
          315 64 callgsubr
          62 69 hstemhm
          97 93 95 96 53 87 0 87 hintmask 0000000100000000
          636 hmoveto
          -202 325 rlineto
          hintmask 1111011010000000
          -92 callsubr
          -140 -707 rmoveto
          96 -96 -96 vlineto
          hintmask 0000100000000000
          233 956 -61 callsubr
        </CharString>
        <CharString name="Rho">
          -29 callgsubr
        </CharString>
        <CharString name="S">
          37 callgsubr
          hstem
          52 callsubr
          vstem
          513 191 rmoveto
          -99 callgsubr
          endchar
        </CharString>
        <CharString name="S_S">
          1142 -22 74 593 71 hstem
          52 callsubr
          115 85 286 85 vstem
          513 191 rmoveto
          -99 callgsubr
          571 hmoveto
          -99 callgsubr
          endchar
        </CharString>
        <CharString name="Sacute">
          37 callgsubr
          51 22 callgsubr
          52 callsubr
          hintmask 11001100
          513 191 rmoveto
          -99 callgsubr
          hintmask 00110000
          -36 677 -95 callgsubr
        </CharString>
        <CharString name="Scaron">
          37 callgsubr
          41 -21 134 -20 hstemhm
          52 callsubr
          hintmask 11001100
          513 191 rmoveto
          -99 callgsubr
          hintmask 00110000
          -71 679 -83 callsubr
        </CharString>
        <CharString name="Scedilla">
          37 callgsubr
          hstem
          52 callsubr
          vstem
          513 191 rmoveto
          -99 callgsubr
          -178 -237 1 callsubr
          endchar
        </CharString>
        <CharString name="Scircumflex">
          37 callgsubr
          41 -21 134 -20 hstemhm
          52 callsubr
          hintmask 11001100
          513 191 rmoveto
          -99 callgsubr
          hintmask 00110000
          -71 545 -103 callsubr
          endchar
        </CharString>
        <CharString name="Sdotbelow">
          571 -15 callgsubr
          82 74 593 71 hstemhm
          57 85 96 96 94 85 hintmask 01110100
          513 191 rmoveto
          -99 callgsubr
          hintmask 10001000
          -179 -391 -81 callsubr
        </CharString>
        <CharString name="Sigma">
          742 0 76 548 70 hstem
          684 hmoveto
          76 -113 vlineto
          -299 -2 rlineto
          -60 hlineto
          197 273 -228 279 rlineto
          61 hlineto
          319 -2 rlineto
          123 70 -627 -68 hlineto
          239 -293 -239 -333 rlineto
          endchar
        </CharString>
        <CharString name="T">
          38 callgsubr
          hstem
          303 96 vstem
          -74 callgsubr
          endchar
        </CharString>
        <CharString name="T_uni0303">
          38 callgsubr
          48 -11 callsubr
          303 96 hintmask 11001000
          -74 callgsubr
          hintmask 00010000
          -83 241 -102 callgsubr
        </CharString>
        <CharString name="T_uni0308">
          38 callgsubr
          48 86 hstemhm
          214 87 2 96 3 87 hintmask 11001000
          -74 callgsubr
          hintmask 00110100
          -303 118 -74 callsubr
          endchar
        </CharString>
        <CharString name="Tau">
          38 callgsubr
          hstem
          303 96 vstem
          -74 callgsubr
          endchar
        </CharString>
        <CharString name="Tcaron">
          38 callgsubr
          69 -21 134 -20 hstemhm
          303 96 hintmask 11001000
          -74 callgsubr
          hintmask 00110000
          -97 252 -83 callsubr
        </CharString>
        <CharString name="Tcedilla">
          702 -171 -21 168 -20 65 78 callgsubr
          hstemhm
          243 141 -81 96 hintmask 01110100
          -74 callgsubr
          -220 -642 rmoveto
          -65 hlineto
          hintmask 11001000
          -76 -168 rlineto
          74 hlineto
          endchar
        </CharString>
        <CharString name="Tdotbelow">
          702 -11 callgsubr
          618 70 hstemhm
          303 96 hintmask 01110000
          -74 callgsubr
          hintmask 10010000
          -205 -818 -81 callsubr
        </CharString>
        <CharString name="Theta">
          799 -22 67 258 90 258 65 hstem
          57 90 504 90 vstem
          741 344 rmoveto
          209 -156 163 -186 -186 -156 -164 -208 -205 156 -161 186 186 156 161 205 vhcurveto
          -90 hmoveto
          -180 -118 -119 -134 -134 -118 120 179 185 119 122 133 133 119 -123 -184 vhcurveto
          -58 -41 rmoveto
          90 -388 -90 vlineto
          endchar
        </CharString>
        <CharString name="Thorn">
          600 21 -21 180 59 270 59 126 -20 hstem
          98 90 267 87 vstem
          542 374 rmoveto
          94 -79 100 -142 vhcurveto
          -133 126 -90 -694 90 180 126 hlineto
          167 61 116 78 hvcurveto
          -87 hmoveto
          -48 -37 -87 -133 vhcurveto
          -97 270 89 hlineto
          120 58 -73 -62 hvcurveto
          endchar
        </CharString>
        <CharString name="Tlinebelow">
          702 -186 69 138 78 callgsubr
          hstemhm
          303 96 hintmask 01110000
          -74 callgsubr
          hintmask 10000000
          -68 -804 -61 callsubr
        </CharString>
        <CharString name="U">
          -32 callsubr
          hstem
          95 96 337 83 vstem
          -101 callsubr
          endchar
        </CharString>
        <CharString name="U_uni032F">
          707 -221 78 callsubr
          40 59 657 -20 hstemhm
          95 96 337 83 hintmask 00111100
          -101 callsubr
          hintmask 11000000
          -84 -475 -75 callgsubr
        </CharString>
        <CharString name="Uacute">
          -32 callsubr
          93 22 callgsubr
          95 96 337 83 hintmask 11001100
          -101 callsubr
          hintmask 00110000
          -67 635 -95 callgsubr
        </CharString>
        <CharString name="Ubreve">
          -32 callsubr
          72 -17 callgsubr
          -20 hstemhm
          95 96 337 83 hintmask 11001100
          -101 callsubr
          hintmask 00110000
          -84 693 -105 callgsubr
          endchar
        </CharString>
        <CharString name="Ucaron">
          -32 callsubr
          83 -21 134 -20 hstemhm
          95 96 337 83 hintmask 11001100
          -101 callsubr
          hintmask 00110000
          -102 637 -83 callsubr
        </CharString>
        <CharString name="Ucircumflex">
          -32 callsubr
          83 -21 134 -20 hstemhm
          95 96 337 83 hintmask 11001100
          -101 callsubr
          hintmask 00110000
          -102 503 -103 callsubr
          endchar
        </CharString>
        <CharString name="Udblgrave">
          -32 callsubr
          93 -23 callgsubr
          95 96 337 83 hintmask 11001100
          -101 callsubr
          hintmask 00110000
          -111 513 -87 callgsubr
        </CharString>
        <CharString name="Udieresis">
          -32 callsubr
          62 86 49 callgsubr
          hintmask 11010010
          -101 callsubr
          hintmask 00101100
          11 callgsubr
          endchar
        </CharString>
        <CharString name="Udieresisacute">
          -32 callsubr
          62 86 73 -21 122 -20 49 callgsubr
          hintmask 1100010010000000
          -101 callsubr
          hintmask 0011101100000000
          11 callgsubr
          140 260 -95 callgsubr
        </CharString>
        <CharString name="Udieresiscaron">
          -32 callsubr
          62 86 63 -21 134 -20 49 callgsubr
          hintmask 1100010010000000
          -101 callsubr
          hintmask 0011101100000000
          11 callgsubr
          105 262 -83 callsubr
        </CharString>
        <CharString name="Udieresisgrave">
          -32 callsubr
          62 86 73 -21 122 -20 49 callgsubr
          hintmask 1100010010000000
          -101 callsubr
          hintmask 0011101100000000
          11 callgsubr
          44 138 -72 callsubr
        </CharString>
        <CharString name="Udotbelow">
          707 -15 callgsubr
          82 59 657 -20 hstemhm
          95 96 115 96 126 83 hintmask 01110100
          -101 callsubr
          hintmask 10001000
          -209 -433 -81 callsubr
        </CharString>
        <CharString name="Ugrave">
          -32 callsubr
          93 22 callgsubr
          95 96 337 83 hintmask 11001100
          -101 callsubr
          hintmask 00110000
          -163 513 -72 callsubr
        </CharString>
        <CharString name="Uhookabove">
          -32 callsubr
          83 -21 214 -20 hstemhm
          95 96 337 83 hintmask 11001100
          -101 callsubr
          hintmask 00110000
          -158 638 -107 callgsubr
        </CharString>
        <CharString name="Uhorn">
          707 -22 59 744 -20 hstem
          95 96 335 83 16 87 vstem
          -93 callgsubr
          endchar
        </CharString>
        <CharString name="Uhornacute">
          707 -22 59 730 -21 35 -20 107 -20 hstemhm
          95 96 335 83 16 87 hintmask 10101110
          -93 callgsubr
          hintmask 01010000
          -195 174 -95 callgsubr
        </CharString>
        <CharString name="Uhorndotbelow">
          707 -15 callgsubr
          82 59 744 -20 hstemhm
          95 96 115 96 124 83 16 87 hintmask 01110110
          -93 callgsubr
          hintmask 10001000
          -309 -894 -81 callsubr
        </CharString>
        <CharString name="Uhorngrave">
          707 -22 59 730 -21 35 -20 107 -20 hstemhm
          95 96 335 83 16 87 hintmask 10101110
          -93 callgsubr
          hintmask 01010000
          -263 52 -72 callsubr
        </CharString>
        <CharString name="Uhornhookabove">
          707 -22 59 720 -21 45 -20 189 -20 hstemhm
          95 96 335 83 16 87 hintmask 10101110
          -93 callgsubr
          hintmask 01010000
          -258 177 -107 callgsubr
        </CharString>
        <CharString name="Uhorntilde">
          707 -22 59 699 -11 callsubr
          95 96 335 83 16 87 hintmask 10011100
          -93 callgsubr
          hintmask 00100000
          -188 165 -80 callgsubr
        </CharString>
        <CharString name="Uhungarumlaut">
          -32 callsubr
          93 -23 callgsubr
          95 96 337 83 hintmask 11001100
          -101 callsubr
          hintmask 00110000
          -259 680 -66 callgsubr
        </CharString>
        <CharString name="Umacron">
          -32 callsubr
          82 69 hstemhm
          95 96 337 83 hintmask 11011000
          -101 callsubr
          hintmask 00100000
          -73 523 -61 callsubr
        </CharString>
        <CharString name="Uogonek">
          707 -212 70 120 59 657 -20 hstem
          95 96 337 83 vstem
          611 233 rmoveto
          461 -83 -461 vlineto
          -134 -87 -62 -84 -83 -83 62 133 vhcurveto
          462 -96 -460 vlineto
          -140 109 -103 127 -12 vhcurveto
          -34 -28 -24 -38 2 -40 -50 callsubr
          34 26 28 34 23 rrcurveto
          119 19 95 103 130 vvcurveto
          endchar
        </CharString>
        <CharString name="Upsilon">
          799 21 -21 644 72 hstem
          57 85 209 96 209 85 cntrmask 00111000
          741 555 rmoveto
          105 -3 -84 56 -77 hhcurveto
          -128 -36 -137 -82 -14 hvcurveto
          -1 hlineto
          103 -17 -42 116 -118 hhcurveto
          -78 -83 -56 -105 -3 hvcurveto
          83 hlineto
          60 3 40 29 39 hhcurveto
          91 38 -94 -175 hvcurveto
          -375 96 375 vlineto
          195 48 74 81 39 40 -29 -60 3 vhcurveto
          endchar
        </CharString>
        <CharString name="Uring">
          707 -22 59 657 47 74 47 hstemhm
          95 96 47 64 102 64 60 83 hintmask 11010010
          -101 callsubr
          hintmask 01101100
          -207 545 -76 callgsubr
          endchar
        </CharString>
        <CharString name="Utilde">
          -32 callsubr
          62 -11 callsubr
          95 96 337 83 hintmask 11001100
          -101 callsubr
          hintmask 00010000
          -88 626 -102 callgsubr
        </CharString>
        <CharString name="V">
          687 24 callgsubr
          672 694 rmoveto
          -83 hlineto
          -125 -312 -11 -27 -88 -220 -13 -59 rlinecurve
          -1 hlineto
          -10 53 -79 196 -25 63 -122 306 rcurveline
          -101 hlineto
          281 -694 rlineto
          96 hlineto
          endchar
        </CharString>
        <CharString name="W">
          972 24 callgsubr
          -91 callgsubr
          endchar
        </CharString>
        <CharString name="Wacute">
          972 -35 callsubr
          93 22 callgsubr
          hintmask 11000000
          -91 callgsubr
          hintmask 00110000
          -70 868 -95 callgsubr
        </CharString>
        <CharString name="Wcircumflex">
          972 -35 callsubr
          83 -21 134 -20 hstemhm
          hintmask 11000000
          -91 callgsubr
          hintmask 00110000
          -105 736 -103 callsubr
          endchar
        </CharString>
        <CharString name="Wdieresis">
          972 60 callgsubr
          349 87 101 87 hintmask 11001000
          -91 callgsubr
          hintmask 00111000
          -311 736 -74 callsubr
          endchar
        </CharString>
        <CharString name="Wgrave">
          972 -35 callsubr
          93 22 callgsubr
          hintmask 11000000
          -91 callgsubr
          hintmask 00110000
          -166 746 -72 callsubr
        </CharString>
        <CharString name="X">
          -20 callgsubr
        </CharString>
        <CharString name="Xi">
          685 0 80 -80 81 237 80 209 81 -80 80 hstemhm
          hintmask 00001000
          635 607 rmoveto
          81 -586 vlineto
          hintmask 00010000
          -81 129 vlineto
          hintmask 00001000
          164 1 rlineto
          hintmask 01010000
          164 -1 rlineto
          135 -607 rmoveto
          81 -132 vlineto
          hintmask 10000000
          -167 -1 rlineto
          hintmask 01100000
          -167 1 rlineto
          -132 -81 hlineto
          527 318 rmoveto
          80 -456 -80 vlineto
          endchar
        </CharString>
        <CharString name="Y">
          687 24 callgsubr
          297 93 vstem
          -78 callsubr
          endchar
        </CharString>
        <CharString name="Yacute">
          687 -35 callsubr
          93 22 callgsubr
          297 93 hintmask 11001000
          -78 callsubr
          hintmask 00110000
          144 590 -95 callgsubr
        </CharString>
        <CharString name="Ycircumflex">
          687 -35 callsubr
          83 -21 134 -20 hstemhm
          297 93 hintmask 11001000
          -78 callsubr
          hintmask 00110000
          109 458 -103 callsubr
          endchar
        </CharString>
        <CharString name="Ydieresis">
          687 60 callgsubr
          206 87 4 93 4 87 hintmask 11001000
          -78 callsubr
          hintmask 00110100
          -97 458 -74 callsubr
          endchar
        </CharString>
        <CharString name="Ydotbelow">
          60 callsubr
          694 -20 hstemhm
          296 96 -95 93 hintmask 01101000
          -78 callsubr
          hintmask 10010000
          2 -478 -81 callsubr
        </CharString>
        <CharString name="Ygrave">
          687 -35 callsubr
          93 22 callgsubr
          297 93 hintmask 11001000
          -78 callsubr
          hintmask 00110000
          48 468 -72 callsubr
        </CharString>
        <CharString name="Yhookabove">
          687 -35 callsubr
          83 -21 214 -20 hstemhm
          297 93 hintmask 11001000
          -78 callsubr
          hintmask 00110000
          53 593 -107 callgsubr
        </CharString>
        <CharString name="Ytilde">
          687 -35 callsubr
          62 -11 callsubr
          297 93 hintmask 11001000
          -78 callsubr
          hintmask 00010000
          123 581 -102 callgsubr
        </CharString>
        <CharString name="Z">
          39 callsubr
          hstem
          57 519 vstem
          -72 callgsubr
          endchar
        </CharString>
        <CharString name="Zacute">
          39 callsubr
          31 callgsubr
          57 519 hintmask 11001000
          -72 callgsubr
          hintmask 00110000
          448 868 -95 callgsubr
        </CharString>
        <CharString name="Zcaron">
          39 callsubr
          51 callsubr
          57 519 hintmask 11001000
          -72 callgsubr
          hintmask 00110000
          413 870 -83 callsubr
        </CharString>
        <CharString name="Zdotaccent">
          39 callsubr
          42 96 hstemhm
          57 519 -310 96 hintmask 11010000
          -72 callgsubr
          hintmask 00101000
          305 736 -81 callsubr
        </CharString>
        <CharString name="Zdotbelow">
          628 -15 callgsubr
          104 70 557 67 hstemhm
          57 519 -310 96 hintmask 01110000
          -72 callgsubr
          hintmask 10001000
          305 -200 -81 callsubr
        </CharString>
        <CharString name="Zeta">
          39 callsubr
          hstem
          57 519 vstem
          -72 callgsubr
          endchar
        </CharString>
        <CharString name="a">
          -69 callgsubr
          hstem
          -24 callsubr
          vstem
          -107 callsubr
          endchar
        </CharString>
        <CharString name="aacute">
          -69 callgsubr
          87 -21 167 -103 callgsubr
          53 502 -77 callsubr
        </CharString>
        <CharString name="abreve">
          -69 callgsubr
          60 -17 callgsubr
          -103 callgsubr
          0 callsubr
          endchar
        </CharString>
        <CharString name="abreveacute">
          -69 callgsubr
          60 71 266 -103 callgsubr
          82 509 -62 callgsubr
        </CharString>
        <CharString name="abrevedotbelow">
          25 callgsubr
          60 -17 callgsubr
          -20 hstemhm
          54 77 68 96 44 83 hintmask 0111111010000000
          -107 callsubr
          0 callsubr
          hintmask 1000000100000000
          -126 -901 -81 callsubr
        </CharString>
        <CharString name="abrevegrave">
          -69 callgsubr
          60 -17 callgsubr
          -103 callgsubr
          82 509 -60 callgsubr
        </CharString>
        <CharString name="abrevehookabove">
          -69 callgsubr
          60 71 338 -103 callgsubr
          0 callsubr
          -74 150 -107 callgsubr
        </CharString>
        <CharString name="abrevetilde">
          -69 callgsubr
          60 71 164 65 -7 65 -12 callsubr
          hintmask 11100011
          -107 callsubr
          hintmask 00010100
          0 callsubr
          -4 178 -85 callsubr
        </CharString>
        <CharString name="acaron">
          -69 callgsubr
          85 -21 172 -103 callgsubr
          63 505 -81 callgsubr
        </CharString>
        <CharString name="acircumflex">
          -69 callgsubr
          85 -21 172 -103 callgsubr
          63 333 -88 callsubr
          endchar
        </CharString>
        <CharString name="acircumflexacute">
          -69 callgsubr
          85 -21 291 -103 callgsubr
          64 333 -78 callgsubr
        </CharString>
        <CharString name="acircumflexdotbelow">
          25 callgsubr
          85 72 callsubr
          hstemhm
          54 77 68 96 44 83 hintmask 0111111010000000
          -107 callsubr
          63 333 -88 callsubr
          hintmask 1000000100000000
          -48 -725 -81 callsubr
        </CharString>
        <CharString name="acircumflexgrave">
          -69 callgsubr
          85 -21 134 -103 callgsubr
          64 333 -79 callsubr
        </CharString>
        <CharString name="acircumflexhookabove">
          -69 callgsubr
          85 -21 363 -103 callgsubr
          64 333 -103 callsubr
          103 284 -107 callgsubr
        </CharString>
        <CharString name="acircumflextilde">
          -69 callgsubr
          85 -21 189 65 -7 65 -12 callsubr
          hintmask 11100011
          -107 callsubr
          hintmask 00010100
          64 333 -103 callsubr
          74 312 -85 callsubr
        </CharString>
        <CharString name="acute">
          514 548 -31 callgsubr
          hstem
          402 694 -77 callsubr
        </CharString>
        <CharString name="acute.cap">
          514 517 46 callgsubr
          hstem
          448 618 -95 callgsubr
        </CharString>
        <CharString name="acute.dup">
          514 548 -31 callgsubr
          hstem
          402 694 -77 callsubr
        </CharString>
        <CharString name="acute.ts1">
          514 560 -21 187 -20 hstem
          427 726 rmoveto
          -83 hlineto
          -101 -140 -33 -47 rlineto
          64 hlineto
          endchar
        </CharString>
        <CharString name="adblgrave">
          -69 callgsubr
          87 -21 167 -103 callgsubr
          55 335 -87 callgsubr
        </CharString>
        <CharString name="adieresis">
          -69 callgsubr
          107 86 hstemhm
          54 77 -7 87 73 87 -32 83 hintmask 11101001
          -107 callsubr
          hintmask 00010110
          -128 376 -15 callsubr
        </CharString>
        <CharString name="adotbelow">
          25 callgsubr
          hstemhm
          54 77 68 96 44 83 hintmask 01111010
          -107 callsubr
          hintmask 10000100
          -44 -392 -81 callsubr
        </CharString>
        <CharString name="ae">
          -77 callgsubr
        </CharString>
        <CharString name="ae.dup">
          -77 callgsubr
        </CharString>
        <CharString name="aeacute">
          742 -11 65 0 63 0 63 39 -16 callsubr
          -63 63 2 callsubr
          47 77 116 89 -16 77 -67 62 -62 89 -83 89 232 62 hintmask 0000010000010000
          712 219 rmoveto
          36 -1 70 -35 59 vhcurveto
          58 -33 -55 19 -46 hhcurveto
          -38 -61 -11 -65 -58 hvcurveto
          49 -33 -49 27 -62 hhcurveto
          -65 -47 -16 -28 -50 hvcurveto
          7 -71 rlineto
          hintmask 0000010001000000
          25 33 48 27 73 hhcurveto
          hintmask 0000000000100000
          12 36 0 -43 25 hvcurveto
          hintmask 0100000011000000
          16 -27 0 -15 -65 vvcurveto
          -142 -1 -140 -39 -91 vvcurveto
          hintmask 1000000000100000
          -29 16 -99 103 30 139 0 75 55 vhcurveto
          -39 35 58 -36 75 hhcurveto
          55 53 19 30 41 hvcurveto
          -6 69 rlineto
          -48 -57 -61 -5 -24 hhcurveto
          hintmask 0001000000001010
          -77 -65 66 99 -5 hvcurveto
          238 59 rmoveto
          hintmask 0101100010000110
          -232 hlineto
          68 17 50 50 57 hhcurveto
          39 54 -24 -94 15 hvcurveto
          -316 -148 rmoveto
          -21 0 -23 -35 -17 vhcurveto
          -12 -27 -37 -3 -17 hhcurveto
          -62 -32 31 33 28 23 15 55 14 hvcurveto
          hintmask 0010000000010000
          10 40 40 5 41 hhcurveto
          6 1 -1 -9 1 hvcurveto
          3 -21 0 -2 -27 vvcurveto
          hintmask 0000001100000000
          182 564 -77 callsubr
        </CharString>
        <CharString name="agrave">
          -69 callgsubr
          87 -21 167 -103 callgsubr
          -20 335 -62 callsubr
        </CharString>
        <CharString name="ahookabove">
          -69 callgsubr
          64 -21 214 -103 callgsubr
          8 447 -107 callgsubr
        </CharString>
        <CharString name="amacron">
          -69 callgsubr
          115 69 -12 callsubr
          hintmask 11101100
          -107 callsubr
          hintmask 00010000
          93 384 -61 callsubr
        </CharString>
        <CharString name="ampersand">
          779 -22 68 37 65 193 65 245 65 hstemhm
          43 83 35 73 -68 68 53 83 0 73 hintmask 1010000100000000
          721 -7 rmoveto
          71 vlineto
          -15 -52 -44 -3 -22 hhcurveto
          -17 -41 0 35 -48 hvcurveto
          49 42 89 95 49 169 -66 19 rcurveline
          -31 -108 -56 -101 -86 -72 -18 16 -94 105 -46 95 rrcurveto
          hintmask 1101101010000000
          74 64 82 70 82 vvcurveto
          77 -51 82 -83 -90 -53 -96 -106 -53 11 -57 20 -53 vhcurveto
          -23 -19 -58 -46 -22 -20 rrcurveto
          -12 -12 -39 -42 -64 vvcurveto
          -91 78 -79 110 84 73 30 28 47 vhcurveto
          -51 69 58 -7 40 hhcurveto
          45 48 8 7 26 hvcurveto
          -351 565 rmoveto
          -47 -38 -46 -72 -61 vhcurveto
          -26 80 0 58 11 vvcurveto
          53 31 45 43 53 9 -70 -23 vhcurveto
          9 -475 rmoveto
          -29 -52 -61 -8 -33 hhcurveto
          -75 -32 62 47 hvcurveto
          hintmask 0100010000000000
          25 7 29 28 28 vhcurveto
          4 4 3 2 56 46 34 -62 26 -32 16 -22 25 -31 25 -32 29 -27 rrcurveto
          endchar
        </CharString>
        <CharString name="anglearc">
          799 -71 -21 686 -20 hstem
          572 42 vstem
          741 21 rmoveto
          9 -6 8 -8 3 vhcurveto
          -138 49 rlineto
          17 52 8 54 55 vvcurveto
          55 -8 54 -17 52 vhcurveto
          138 49 rlineto
          8 3 6 8 9 vvcurveto
          15 -14 10 -14 -5 vhcurveto
          -138 -50 -19 49 -27 45 -33 41 rlinecurve
          5 -4 -6 3 -6 hhcurveto
          -12 -9 -9 -12 -5 1 -5 3 -3 hvcurveto
          30 -38 25 -41 17 -44 -464 -166 rcurveline
          -8 -3 -6 -8 -9 vvcurveto
          -9 6 -8 8 -3 vhcurveto
          464 -166 -17 -44 -25 -41 -30 -38 rlinecurve
          -3 -3 -1 -5 -5 vvcurveto
          -12 9 -9 12 6 6 3 5 4 vhcurveto
          33 41 27 45 19 49 138 -50 rcurveline
          14 -5 14 10 15 vvcurveto
          -169 230 rmoveto
          -50 -8 -50 -14 -47 vhcurveto
          -410 147 410 147 rlineto
          14 -47 8 -50 -50 vvcurveto
          endchar
        </CharString>
        <CharString name="angleleft">
          400 -229 -21 1000 -20 21 -20 hstemhm
          hintmask 00100000
          342 -228 rmoveto
          2 vlineto
          -2 12 -7 13 -5 12 -140 361 rcurveline
          -21 54 rlineto
          -2 7 -6 9 8 vvcurveto
          4 2 5 2 4 vhcurveto
          34 88 125 323 rlineto
          6 16 13 21 17 vvcurveto
          12 -8 11 -12 vhcurveto
          hintmask 11000000
          -5 -1 -18 -3 -4 -27 -7 -16 rlinecurve
          -163 -421 rlineto
          -4 -10 -7 -12 -11 vvcurveto
          -10 6 -11 4 -9 vhcurveto
          21 -54 142 -366 4 -9 7 -40 23 -1 rlinecurve
          12 10 10 12 hvcurveto
          endchar
        </CharString>
        <CharString name="angleright">
          400 -229 -21 469 20 491 20 1 -20 hstemhm
          hintmask 00010000
          286 251 rmoveto
          11 -7 11 -4 10 vhcurveto
          -163 420 rlineto
          11 -5 -6 37 -22 hhcurveto
          hintmask 11100000
          -5 -1 rlineto
          -10 -7 -13 -7 -12 8 -13 4 -10 hvcurveto
          162 -417 rlineto
          3 -8 6 -10 -9 vvcurveto
          -4 -2 -4 -1 -4 vhcurveto
          -8 -19 -8 -23 -9 -22 -9 -23 rlinecurve
          -90 -231 -53 -137 rlineto
          -2 -5 -1 -5 -6 vvcurveto
          -11 2 10 -7 11 hhcurveto
          20 2 5 27 6 15 165 425 rcurveline
          3 10 7 11 11 vvcurveto
          endchar
        </CharString>
        <CharString name="aogonek">
          494 -11 65 -54 54 344 63 -12 callsubr
          hintmask 01111000
          452 -53 callsubr
          -1 44 44 56 callsubr
          15 289 hlineto
          99 -73 73 -99 -65 -48 -17 -27 -48 vhcurveto
          6 -71 rlineto
          37 50 49 15 55 hhcurveto
          56 34 -45 -65 hvcurveto
          -42 vlineto
          -172 -4 -113 -45 -81 vvcurveto
          hintmask 10000000
          -47 31 -80 87 20 87 2 47 63 vhcurveto
          hintmask 01011000
          -38 vlineto
          -12 callgsubr
          -65 callsubr
          -113 327 rmoveto
          -21 0 -25 -36 -21 vhcurveto
          -15 -25 -33 -4 -20 hhcurveto
          -51 -43 24 40 71 195 3 13 hvcurveto
          endchar
        </CharString>
        <CharString name="aogonekacute">
          494 -11 65 -54 54 344 63 87 -21 167 -20 -12 callsubr
          hintmask 01100110
          452 -53 callsubr
          -1 44 44 56 callsubr
          15 289 hlineto
          99 -73 73 -99 -65 -48 -17 -27 -48 vhcurveto
          6 -71 rlineto
          37 50 49 15 55 hhcurveto
          56 34 -45 -65 hvcurveto
          -42 vlineto
          -172 -4 -113 -45 -81 vvcurveto
          hintmask 10000000
          -47 31 -80 87 20 87 2 47 63 vhcurveto
          hintmask 01000110
          -38 vlineto
          -12 callgsubr
          -65 callsubr
          -113 327 rmoveto
          -21 0 -25 -36 -21 vhcurveto
          -15 -25 -33 -4 -20 hhcurveto
          -51 -43 24 40 71 195 3 13 hvcurveto
          hintmask 00011000
          53 502 -77 callsubr
        </CharString>
        <CharString name="aring">
          -69 callgsubr
          56 47 74 47 hstemhm
          54 77 1 64 102 64 -23 83 hintmask 1110010010000000
          -107 callsubr
          hintmask 0001101100000000
          -41 409 -67 callsubr
        </CharString>
        <CharString name="aringacute">
          -69 callgsubr
          56 47 74 47 157 -20 hstemhm
          54 77 1 64 102 64 -23 83 hintmask 1110001001000000
          -107 callsubr
          hintmask 0001110110000000
          -41 409 -76 callgsubr
          28 242 -95 callgsubr
        </CharString>
        <CharString name="asciicircum">
          556 583 -21 123 59 hstem
          -5 566 vstem
          561 584 rmoveto
          -283 160 -283 -160 11 -22 271 123 272 -123 rlineto
          endchar
        </CharString>
        <CharString name="asciitilde">
          556 193 43 -25 43 -8 43 -25 43 hstemhm
          hintmask 10010000
          555 290 7 callsubr
          hintmask 01000000
          -5 callgsubr
          hintmask 00100000
          20 10 20 11 17 14 rrcurveto
          endchar
        </CharString>
        <CharString name="asciitilde.low">
          556 0 43 -25 43 -8 43 -25 43 hstemhm
          0 555 hintmask 10010000
          555 97 7 callsubr
          hintmask 01001000
          -5 callgsubr
          hintmask 00101000
          20 10 20 11 17 14 rrcurveto
          endchar
        </CharString>
        <CharString name="asterisk">
          514 327 57 callgsubr
          hstem
          220 73 vstem
          447 436 rmoveto
          22 -12 6 -12 6 vhcurveto
          -113 58 112 57 rlineto
          11 6 14 7 22 vvcurveto
          22 -17 15 -19 -10 -4 -2 -8 -12 vhcurveto
          -101 -70 9 137 rlineto
          25 -21 11 -15 -19 -18 -13 -23 vhcurveto
          9 -137 -101 69 rlineto
          11 -15 -2 0 -9 hhcurveto
          -19 -17 -15 -22 -22 12 -6 12 -6 hvcurveto
          113 -58 -112 -57 rlineto
          -11 -6 -14 -7 -22 vvcurveto
          -22 17 -15 19 10 2 0 14 20 vhcurveto
          95 66 -9 -137 rlineto
          -25 21 -11 15 19 18 13 23 vhcurveto
          -1 9 -8 128 101 -69 rlineto
          -11 15 2 0 9 hhcurveto
          19 17 15 22 hvcurveto
          endchar
        </CharString>
        <CharString name="asterisk.math">
          514 50 57 callgsubr
          hstem
          223 62 vstem
          447 161 rmoveto
          28 -31 9 -21 10 vhcurveto
          -27 13 -27 19 -29 10 rrcurveto
          2 vlineto
          29 10 27 19 27 13 rrcurveto
          21 10 31 9 28 vvcurveto
          20 -16 19 -21 vhcurveto
          -2 hlineto
          -15 -14 -13 -9 -12 hvcurveto
          -27 -17 -27 -23 -28 -16 rrcurveto
          43 8 42 43 vvcurveto
          9 vlineto
          21 -19 13 -18 -19 -17 -14 -22 vhcurveto
          -7 vlineto
          -9 1 -9 1 -9 vhcurveto
          3 -57 rlineto
          1 -15 2 -14 -15 vvcurveto
          -28 16 -27 23 -27 17 rrcurveto
          9 -12 -14 13 -15 hhcurveto
          -2 hlineto
          -21 -16 -19 -20 -28 31 -9 21 -10 hvcurveto
          27 -13 27 -19 29 -10 rrcurveto
          -2 vlineto
          -29 -10 -27 -19 -27 -13 rrcurveto
          -21 -10 -31 -9 -28 vvcurveto
          -20 16 -19 21 vhcurveto
          2 hlineto
          15 14 13 9 12 hvcurveto
          27 17 27 23 28 16 rrcurveto
          -15 -2 -14 -1 -15 vhcurveto
          -3 -57 rlineto
          -1 -9 -1 -9 -9 vvcurveto
          -7 vlineto
          -22 17 -14 19 18 19 13 21 vhcurveto
          9 vlineto
          42 -8 44 42 vvcurveto
          28 -16 27 -23 27 -17 rrcurveto
          -9 12 14 -13 15 hhcurveto
          2 hlineto
          21 16 19 20 hvcurveto
          endchar
        </CharString>
        <CharString name="at">
          685 510 65 0 65 0 65 hstem
          57 79 110 79 223 79 cntrmask 11100000
          627 87 rmoveto
          -52 hlineto
          -16 -2 0 -4 -8 hvcurveto
          -23 -58 -53 -6 -36 hhcurveto
          -153 -113 135 158 170 126 123 135 54 47 -31 -56 21 hvcurveto
          18 -33 -31 4 -18 hhcurveto
          -103 -88 -99 -129 -129 88 -99 103 71 119 60 182 91 -2 253 -227 -183 -158 -156 -202 -200 155 -158 187 107 81 54 44 40 hvcurveto
          -79 260 rmoveto
          -92 -51 -71 -61 -58 -53 68 95 95 53 68 58 61 51 -71 -92 vhcurveto
          endchar
        </CharString>
        <CharString name="atilde">
          -69 callgsubr
          88 65 -7 65 -105 callsubr
          hintmask 00001000
          78 480 -97 callsubr
        </CharString>
        <CharString name="b">
          531 -11 25 callsubr
          83 80 -80 83 245 83 hintmask 01110000
          43 callgsubr
          297 -80 -694 vlineto
          hintmask 11001100
          -9 callgsubr
        </CharString>
        <CharString name="backslash">
          514 750 -20 hstem
          456 -228 rmoveto
          4 -2 4 -3 9 vhcurveto
          -349 938 rlineto
          12 -4 -4 11 -16 hhcurveto
          -9 -12 -7 -15 -4 2 -4 3 -9 hvcurveto
          349 -938 rlineto
          -12 4 4 -11 16 hhcurveto
          9 12 7 15 hvcurveto
          endchar
        </CharString>
        <CharString name="baht">
          686 0 59 269 65 242 59 hstemhm
          98 90 113 68 146 84 -58 87 hintmask 10111100
          628 188 rmoveto
          89 -91 70 -107 16 vhcurveto
          99 25 70 59 73 vvcurveto
          87 -99 78 -131 8 vhcurveto
          69 -68 -68 -203 -694 203 -68 68 68 3 vlineto
          hintmask 00001010
          150 106 92 96 hvcurveto
          -113 330 rmoveto
          -48 -49 -55 -97 -17 vhcurveto
          233 vlineto
          hintmask 01111100
          80 -13 66 -42 -58 vvcurveto
          -214 -125 rmoveto
          -113 242 113 hlineto
          240 -446 rmoveto
          -65 -74 -56 -98 -8 vhcurveto
          266 vlineto
          hintmask 11011010
          92 -11 80 -56 -70 vvcurveto
          -240 -130 rmoveto
          -113 269 113 hlineto
          endchar
        </CharString>
        <CharString name="bar">
          286 750 -20 hstem
          121 43 vstem
          164 -215 rmoveto
          -13 callsubr
          endchar
        </CharString>
        <CharString name="bigcircle">
          5 callgsubr
          614 -84 callgsubr
          endchar
        </CharString>
        <CharString name="blanksymbol">
          531 -11 25 callsubr
          0 83 0 80 -80 83 245 83 hintmask 01101000
          43 callgsubr
          139 vlineto
          97 85 -45 51 -52 -45 rlineto
          67 -80 -137 vlineto
          hintmask 00010000
          -83 -73 45 -51 38 33 rlineto
          -466 vlineto
          hintmask 11000110
          -9 callgsubr
        </CharString>
        <CharString name="braceleft">
          33 callsubr
          -237 rmoveto
          11 -8 1 -9 vhcurveto
          -64 4 -50 30 -14 50 rrcurveto
          -3 12 0 8 30 vvcurveto
          150 vlineto
          29 0 49 -1 9 vhcurveto
          -10 56 -51 32 -54 16 rrcurveto
          116 35 0 65 45 vvcurveto
          150 vlineto
          98 0 16 33 29 vhcurveto
          37 33 41 2 27 2 rrcurveto
          5 1 5 4 7 vvcurveto
          13 -9 0 -12 -109 -88 -53 -72 -1 vhcurveto
          -196 vlineto
          -79 0 -20 -35 -32 vhcurveto
          -37 -32 -45 -2 -18 -1 rrcurveto
          -5 -8 -3 -10 -10 8 -3 5 hvcurveto
          73 -3 47 -35 13 -52 rrcurveto
          2 -8 0 -2 -37 vvcurveto
          -198 vlineto
          -39 0 -42 61 -37 vhcurveto
          -30 49 65 -4 23 hhcurveto
          12 9 0 13 hvcurveto
          endchar
        </CharString>
        <CharString name="braceright">
          33 callsubr
          250 rmoveto
          10 -8 3 -5 vhcurveto
          -73 3 -47 35 -13 52 rrcurveto
          -2 8 0 2 37 vvcurveto
          198 vlineto
          39 0 42 -61 37 vhcurveto
          31 -51 -67 3 -18 hhcurveto
          -12 -10 0 -13 -11 8 0 9 -1 hvcurveto
          64 -4 50 -30 14 -50 rrcurveto
          3 -12 0 -8 -30 vvcurveto
          -150 vlineto
          -29 0 -49 1 -9 vhcurveto
          10 -56 51 -32 54 -16 rrcurveto
          -116 -35 0 -65 -45 vvcurveto
          -150 vlineto
          -98 0 -16 -33 -29 vhcurveto
          -37 -33 -41 -2 -27 -2 rrcurveto
          -5 -1 -5 -4 -7 vvcurveto
          -13 10 0 12 105 91 52 73 1 vhcurveto
          196 vlineto
          79 0 20 35 32 vhcurveto
          37 32 45 2 18 1 rrcurveto
          5 8 3 10 hvcurveto
          endchar
        </CharString>
        <CharString name="bracketleft">
          299 -250 65 870 65 hstem
          103 77 vstem
          276 -250 rmoveto
          65 -96 870 96 65 -173 -1000 vlineto
          endchar
        </CharString>
        <CharString name="bracketright">
          299 -250 65 870 65 hstem
          118 77 vstem
          195 -250 rmoveto
          1000 -173 -65 96 -870 -96 -65 vlineto
          endchar
        </CharString>
        <CharString name="breve">
          72 callgsubr
          109 -20 hstem
          431 701 -105 callgsubr
          endchar
        </CharString>
        <CharString name="breve.cap">
          514 496 -17 callgsubr
          -20 hstem
          431 676 -105 callgsubr
          endchar
        </CharString>
        <CharString name="breve.ts1">
          628 525 71 130 -20 hstem
          82 65 333 65 vstem
          545 726 rmoveto
          -65 hlineto
          -84 -89 -46 -78 -78 -88 48 82 vhcurveto
          -65 hlineto
          -126 120 -75 112 108 123 70 131 vhcurveto
          endchar
        </CharString>
        <CharString name="brokenbar">
          286 750 -20 hstem
          121 43 vstem
          164 343 rmoveto
          372 vlineto
          14 0 21 -21 -22 0 -19 -16 vhcurveto
          -372 vlineto
          -17 7 -17 15 14 7 17 17 vhcurveto
          -558 vmoveto
          372 vlineto
          17 -7 17 -14 -15 -7 -17 -17 vhcurveto
          -372 vlineto
          -8 callsubr
          endchar
        </CharString>
        <CharString name="bullet">
          799 116 290 hstem
          255 290 58 callgsubr
          endchar
        </CharString>
        <CharString name="c">
          17 callsubr
          hstem
          36 83 vstem
          -82 callgsubr
          endchar
        </CharString>
        <CharString name="cacute">
          17 callsubr
          2 callsubr
          36 83 hintmask 11001000
          -82 callgsubr
          hintmask 00110000
          -31 657 -77 callsubr
        </CharString>
        <CharString name="caron">
          514 39 callgsubr
          412 697 -81 callgsubr
        </CharString>
        <CharString name="caron.cap">
          52 callgsubr
          134 -20 hstem
          413 620 -83 callsubr
        </CharString>
        <CharString name="caron.ts1">
          628 511 -21 258 -20 hstem
          489 748 rmoveto
          -64 -2 -32 -50 -79 -135 -100 169 -12 16 -19 2 rlineto
          -45 hlineto
          11 -24 15 -24 13 -23 93 -169 rcurveline
          -9 5 1 -9 14 hhcurveto
          48 hlineto
          14 3 15 10 6 hvcurveto
          29 52 61 112 13 23 14 22 11 24 rlinecurve
          endchar
        </CharString>
        <CharString name="ccaron">
          17 callsubr
          85 72 callsubr
          hstemhm
          36 83 hintmask 11001000
          -82 callgsubr
          hintmask 00110000
          -21 660 -81 callgsubr
        </CharString>
        <CharString name="ccedilla">
          17 callsubr
          hstem
          36 83 vstem
          -82 callgsubr
          -127 -83 1 callsubr
          endchar
        </CharString>
        <CharString name="ccircumflex">
          17 callsubr
          85 72 callsubr
          hstemhm
          36 83 hintmask 11001000
          -82 callgsubr
          hintmask 00110000
          -21 488 -88 callsubr
          endchar
        </CharString>
        <CharString name="cdotaccent">
          17 callsubr
          102 96 hstemhm
          36 83 84 96 hintmask 11010000
          -82 callgsubr
          hintmask 00101000
          -128 526 -81 callsubr
        </CharString>
        <CharString name="cedilla">
          13 callgsubr
        </CharString>
        <CharString name="cedilla.dup">
          13 callgsubr
        </CharString>
        <CharString name="cent">
          457 393 68 hstem
          36 83 98 68 vstem
          427 37 rmoveto
          -6 71 -41 -28 -45 -18 -50 -4 rlinecurve
          334 vlineto
          50 -2 30 -13 44 -30 13 70 rcurveline
          -50 29 -30 12 -57 3 rrcurveto
          51 -68 -55 vlineto
          -114 -23 -67 -106 -106 vvcurveto
          -110 74 -99 107 -20 vhcurveto
          -61 68 58 vlineto
          58 5 45 18 39 24 rrcurveto
          -210 27 rmoveto
          -60 19 -38 62 78 vvcurveto
          65 27 75 71 23 vhcurveto
          endchar
        </CharString>
        <CharString name="cent.oldstyle">
          17 callsubr
          hstem
          36 83 24 83 115 68 vstem
          -21 callgsubr
          -12 -12 1 3 -10 hvcurveto
          95 327 31 -6 25 -13 32 -22 rlinecurve
          13 70 -31 18 -23 11 -27 7 rlinecurve
          17 59 rlineto
          -71 hlineto
          -15 -51 rlineto
          -9 hlineto
          -142 -85 -120 -119 -83 41 -76 66 -41 hvcurveto
          -26 -90 rlineto
          71 hlineto
          18 63 rlineto
          -4 17 18 -2 18 hhcurveto
          70 53 21 27 45 hvcurveto
          -175 356 rmoveto
          -87 -297 rlineto
          -29 30 -17 45 52 vvcurveto
          74 35 89 98 7 vhcurveto
          endchar
        </CharString>
        <CharString name="centigrade">
          885 -21 68 420 43 139 46 -46 68 -65 43 hstemhm
          294 96 hintmask 10100100
          833 42 rmoveto
          22 -5 23 -1 22 vhcurveto
          -24 -13 -21 -18 -27 -10 rrcurveto
          -18 -38 -44 -3 -41 hhcurveto
          -155 -87 159 141 140 84 162 160 55 47 -15 -26 48 hvcurveto
          7 -5 7 -5 8 -3 15 87 rcurveline
          hintmask 10010100
          23 -64 -63 12 -70 hhcurveto
          -192 -138 -183 -185 -181 125 -189 215 69 60 14 37 62 hvcurveto
          6 4 2 2 6 vvcurveto
          -605 540 rmoveto
          hintmask 01100000
          57 -46 56 -70 vhcurveto
          -10 hlineto
          -58 -6 -44 -52 -57 vvcurveto
          -57 46 -56 70 vhcurveto
          10 hlineto
          58 6 44 52 57 vvcurveto
          -43 hmoveto
          -38 -33 -34 -38 -36 -29 29 35 -6 vhcurveto
          6 vlineto
          hintmask 00001000
          38 33 34 38 36 29 -29 -35 6 vhcurveto
          endchar
        </CharString>
        <CharString name="circumflex">
          514 39 callgsubr
          412 525 -88 callsubr
          endchar
        </CharString>
        <CharString name="circumflex.cap">
          52 callgsubr
          134 -20 hstem
          413 486 -103 callsubr
          endchar
        </CharString>
        <CharString name="circumflex.dup">
          514 39 callgsubr
          412 525 -88 callsubr
          endchar
        </CharString>
        <CharString name="colon">
          286 0 86 272 26 callsubr
          358 rmoveto
          33 callgsubr
          86 -358 rmoveto
          33 callgsubr
          endchar
        </CharString>
        <CharString name="colonmonetary">
          73 callsubr
          165 68 55 callgsubr
          -12 602 9 hlineto
          48 callsubr
          -10 80 -68 -89 hlineto
          -157 -39 -104 -152 -169 vvcurveto
          -167 102 -154 159 -39 vhcurveto
          -89 68 80 11 vlineto
          90 39 15 41 70 hvcurveto
          -278 27 rmoveto
          -104 41 -61 122 123 vvcurveto
          129 65 117 100 40 vhcurveto
          endchar
        </CharString>
        <CharString name="comma">
          286 -106 -21 127 26 callsubr
          1 -64 callgsubr
          endchar
        </CharString>
        <CharString name="copyleft">
          5 callgsubr
          614 -84 callgsubr
          -124 hmoveto
          118 -84 105 -121 -39 -35 -6 -15 -40 vhcurveto
          10 -52 rlineto
          21 33 31 11 41 hhcurveto
          86 60 -85 -97 -92 -55 -90 -93 -59 -21 14 24 -36 hvcurveto
          -4 -45 rlineto
          -25 43 23 -9 55 hhcurveto
          122 83 106 117 hvcurveto
          endchar
        </CharString>
        <CharString name="copyright">
          5 callgsubr
          614 -84 callgsubr
          -164 -189 rmoveto
          -3 45 rlineto
          -24 -37 -21 -14 -59 hhcurveto
          -92 -56 90 92 97 60 85 87 40 32 -11 -21 32 hvcurveto
          10 52 rlineto
          15 -40 -35 6 -39 hhcurveto
          -121 -84 -105 -118 -116 83 -107 123 54 24 9 25 42 hvcurveto
          endchar
        </CharString>
        <CharString name="copyright.alt">
          666 -111 40 100 40 446 40 hstem
          0 40 586 40 vstem
          666 222 rmoveto
          205 -128 128 -205 -204 -129 -128 -205 -204 129 -129 204 205 128 129 204 vhcurveto
          -40 hmoveto
          -180 -113 -113 -180 -180 -113 113 180 180 113 113 180 180 113 -113 -180 vhcurveto
          -134 -200 rmoveto
          -4 47 rlineto
          -25 -38 -22 -15 -62 hhcurveto
          -98 -59 96 97 102 63 91 92 43 33 -12 -23 34 hvcurveto
          11 56 rlineto
          16 -43 -37 6 -41 hhcurveto
          -128 -89 -111 -125 -123 88 -113 130 58 24 10 26 45 hvcurveto
          endchar
        </CharString>
        <CharString name="currency">
          799 48 42 320 42 hstem
          198 42 320 42 vstem
          642 9 rmoveto
          15 15 -15 15 -10 10 -75 75 rcurveline
          28 34 17 44 48 vvcurveto
          48 -17 45 -29 34 vhcurveto
          75 75 10 10 15 15 -15 15 rlinecurve
          -15 16 -14 -14 -11 -11 -75 -75 rcurveline
          27 -35 -44 17 -47 hhcurveto
          -48 -44 -17 -28 -35 hvcurveto
          -76 76 -11 12 -14 13 -15 -15 rlinecurve
          -15 -15 15 -15 10 -10 76 -76 rcurveline
          -28 -35 -17 -44 -48 vvcurveto
          -48 16 -44 28 -34 vhcurveto
          -75 -75 -10 -10 -15 -15 15 -15 rlinecurve
          15 -16 14 14 11 11 75 75 rcurveline
          -28 35 44 -17 49 hhcurveto
          48 44 17 28 35 hvcurveto
          75 -75 11 -11 13 -14 16 16 rlinecurve
          -82 241 rmoveto
          -88 -72 -72 -88 -89 -71 72 88 88 71 72 89 88 72 -72 -88 vhcurveto
          endchar
        </CharString>
        <CharString name="cwm">
          0 endchar
        </CharString>
        <CharString name="cwmascender">
          0 endchar
        </CharString>
        <CharString name="cwmcapital">
          0 endchar
        </CharString>
        <CharString name="d">
          531 -11 76 callgsubr
          245 83 -80 80 hintmask 11110100
          -34 callgsubr
          hintmask 11011000
          -51 callgsubr
          endchar
        </CharString>
        <CharString name="dagger">
          457 395 71 239 -20 hstem
          193 71 vstem
          400 430 43 callsubr
          rrcurveto
          18 1 22 11 71 vhcurveto
          4 21 8 53 35 vvcurveto
          8 0 35 -35 -36 0 -34 -9 -20 3 -33 9 -56 vhcurveto
          11 -71 1 -22 -18 vvcurveto
          1 callgsubr
          -2 -23 0 -8 -11 -53 rrcurveto
          -11 -56 0 -11 -49 vvcurveto
          -160 13 -178 7 -72 vhcurveto
          -19 2 1 -6 12 hhcurveto
          4 9 0 12 2 hvcurveto
          15 141 6 141 141 vvcurveto
          50 0 10 -11 56 vhcurveto
          -11 53 0 8 -2 23 41 callgsubr
          endchar
        </CharString>
        <CharString name="daggerdbl">
          457 -61 71 -23 70 -23 71 hstemhm
          169 71 -47 71 cntrmask 11100000
          hintmask 11110000
          400 477 43 callsubr
          1 16 1 17 9 43 rrcurveto
          hintmask 11101000
          9 46 4 31 22 vvcurveto
          41 -30 0 -5 -14 -22 -6 -35 -29 7 -35 6 -32 vhcurveto
          9 -48 1 -12 1 -19 1 callgsubr
          -1 -16 -1 -17 -9 -43 rrcurveto
          -9 -46 -4 -31 -22 vvcurveto
          -41 30 0 5 14 22 6 35 29 -7 35 -6 32 vhcurveto
          hintmask 11110000
          -9 48 -1 12 -1 19 41 callgsubr
          -455 vmoveto
          20 -15 15 -20 -25 -19 -5 -10 -36 vhcurveto
          -23 -6 -7 0 -15 -2 1 18 1 17 12 56 rrcurveto
          hintmask 11101000
          6 33 4 31 19 vvcurveto
          41 -30 0 -5 -14 -22 -6 -35 -21 3 -26 11 -56 vhcurveto
          7 -34 2 -16 1 -21 -21 2 -2 0 -35 10 rrcurveto
          8 -29 -18 3 -19 hhcurveto
          -24 -12 -17 -18 -19 14 -16 22 hvcurveto
          hintmask 11110000
          21 22 4 9 33 hvcurveto
          26 8 4 0 18 2 -1 -18 -1 -17 -12 -56 rrcurveto
          hintmask 11101000
          -6 -33 -4 -31 -19 vvcurveto
          -41 30 0 5 14 22 6 35 21 -3 26 -11 56 vhcurveto
          hintmask 11110000
          -7 34 -2 16 -1 21 21 -2 2 0 35 -10 rrcurveto
          -7 24 21 -4 21 hhcurveto
          22 14 16 19 hvcurveto
          endchar
        </CharString>
        <CharString name="dblbracketleft">
          414 -249 43 914 43 hstem
          120 43 85 43 vstem
          391 -249 rmoveto
          43 -100 914 100 43 -271 -1000 vlineto
          128 43 rmoveto
          -85 914 85 hlineto
          endchar
        </CharString>
        <CharString name="dblbracketright">
          414 -249 43 914 43 hstem
          122 43 85 43 vstem
          293 -249 rmoveto
          1000 -270 -43 99 -914 -99 -43 vlineto
          227 43 rmoveto
          -85 914 85 hlineto
          endchar
        </CharString>
        <CharString name="dblgrave.ts1">
          514 562 -21 185 -20 hstem
          232 541 rmoveto
          61 callsubr
          235 hmoveto
          61 callsubr
          endchar
        </CharString>
        <CharString name="dblverticalbar">
          412 750 -20 hstem
          121 43 83 43 vstem
          164 -215 rmoveto
          -13 callsubr
          126 hmoveto
          -13 callsubr
          endchar
        </CharString>
        <CharString name="dcaron">
          531 -11 65 336 65 68 -21 114 78 hstemhm
          36 83 245 83 -80 80 hintmask 11011010
          -34 callgsubr
          hintmask 11111100
          -51 callgsubr
          199 279 -86 callgsubr
        </CharString>
        <CharString name="dcroat">
          531 -11 65 336 65 80 68 91 -20 hstemhm
          36 83 245 83 -80 80 hintmask 11111010
          531 535 rmoveto
          68 -84 91 -80 -91 -155 -68 155 -135 vlineto
          47 -56 -64 8 -32 hhcurveto
          -101 -78 -105 -128 -129 77 -104 98 hvcurveto
          hintmask 11101100
          30 63 7 56 60 hvcurveto
          -52 83 535 vlineto
          -83 -394 rmoveto
          -19 0 -2 -11 -14 vhcurveto
          -36 -27 -34 -16 -36 hhcurveto
          -65 -72 47 120 128 85 41 63 46 32 -26 -26 19 hvcurveto
          endchar
        </CharString>
        <CharString name="ddotbelow">
          531 -15 callgsubr
          93 76 callgsubr
          99 96 50 83 -80 80 hintmask 01111001
          -34 callgsubr
          hintmask 01101010
          -51 callgsubr
          hintmask 10000100
          -50 -538 -81 callsubr
        </CharString>
        <CharString name="degree">
          385 409 42 201 42 hstem
          50 42 201 42 vstem
          335 552 rmoveto
          79 -63 63 -79 -79 -64 -63 -79 -79 64 -64 79 79 63 64 79 vhcurveto
          -42 hmoveto
          -56 -45 -45 -55 -56 -45 45 56 55 45 45 56 55 45 -45 -55 vhcurveto
          endchar
        </CharString>
        <CharString name="diameter">
          799 -70 42 558 42 hstem
          78 42 558 42 vstem
          741 572 rmoveto
          12 -9 9 -12 -6 -5 -2 -4 -4 vhcurveto
          -94 -95 rlineto
          50 -57 -74 30 -81 hhcurveto
          -177 -144 -144 -177 -81 30 -75 50 -56 hvcurveto
          -95 -95 rlineto
          -4 -4 -2 -5 -6 vvcurveto
          -12 9 -9 12 6 5 2 4 4 vhcurveto
          95 95 rlineto
          -49 56 74 -30 81 hhcurveto
          177 144 144 177 81 -30 74 -50 57 hvcurveto
          95 94 rlineto
          4 4 2 5 6 vvcurveto
          -63 -321 rmoveto
          -154 -125 -125 -154 -69 -64 25 42 -48 vhcurveto
          393 394 rlineto
          42 -49 25 -64 -69 vvcurveto
          -97 211 rmoveto
          -393 -393 rlineto
          -42 49 -26 63 70 vvcurveto
          154 125 125 154 70 63 -25 -43 49 vhcurveto
          endchar
        </CharString>
        <CharString name="died">
          514 -6 -21 393 73 -71 73 187 -20 hstemhm
          215 84 hintmask 00111000
          456 368 rmoveto
          73 -157 187 -84 vlineto
          hintmask 11001000
          -189 -158 -73 158 -393 84 vlineto
          hintmask 00101000
          395 vlineto
          endchar
        </CharString>
        <CharString name="dieresis">
          514 568 86 hstem
          134 87 73 87 vstem
          10 callsubr
          endchar
        </CharString>
        <CharString name="dieresis.cap">
          514 486 86 hstem
          120 87 101 87 vstem
          12 callgsubr
          endchar
        </CharString>
        <CharString name="dieresis.dup">
          514 568 86 hstem
          134 87 73 87 vstem
          10 callsubr
          endchar
        </CharString>
        <CharString name="dieresis.ts1">
          514 595 90 hstem
          112 90 109 90 vstem
          202 595 rmoveto
          90 -90 -90 vlineto
          289 hmoveto
          90 -90 -90 vlineto
          endchar
        </CharString>
        <CharString name="discount">
          514 1 130 491 130 hstem
          79 130 96 130 vstem
          455 729 rmoveto
          11 -8 11 -12 vhcurveto
          -5 -1 -23 -4 -34 -93 -24 -46 rlinecurve
          -225 -445 -43 -87 rlineto
          -7 -15 -17 -22 -15 vvcurveto
          -12 9 -10 13 vhcurveto
          1 hlineto
          18 1 7 24 7 14 286 568 rcurveline
          37 75 rlineto
          7 13 13 19 14 vvcurveto
          -246 -87 rmoveto
          79 vlineto
          27 -15 4 -18 vhcurveto
          -64 hlineto
          -5 -5 0 -1 -4 hvcurveto
          -12 -2 -8 -10 -13 -5 1 -6 -5 vvcurveto
          -63 vlineto
          -20 12 -5 14 vhcurveto
          74 hlineto
          16 10 4 16 4 hvcurveto
          226 -609 rmoveto
          68 vlineto
          19 -8 11 -20 vhcurveto
          -71 hlineto
          -5 -5 0 -1 -4 hvcurveto
          -8 -1 -7 -7 -2 -8 rrcurveto
          -87 vlineto
          -24 16 -2 16 vhcurveto
          67 hlineto
          19 12 5 27 hvcurveto
          endchar
        </CharString>
        <CharString name="divide">
          799 80 86 63 43 -22 86 0 86 hstemhm
          356 86 hintmask 01000000
          741 250 rmoveto
          22 -22 0 -15 vhcurveto
          -610 hlineto
          hintmask 00100000
          -15 -22 0 -22 hvcurveto
          hintmask 01000000
          -21 20 0 13 vhcurveto
          618 hlineto
          hintmask 00100000
          14 19 0 21 hvcurveto
          -299 86 rmoveto
          hintmask 10011000
          33 callgsubr
          86 -256 rmoveto
          33 callgsubr
          endchar
        </CharString>
        <CharString name="divorced">
          514 -92 -21 141 76 -75 75 294 75 -75 76 141 -20 hstemhm
          -209 75 223 82 44 84 44 81 223 75 hintmask 0101001100000000
          171 252 rmoveto
          107 -76 114 -119 vhcurveto
          -10 hlineto
          -115 -15 -60 -105 -102 vvcurveto
          -103 72 -120 114 123 71 119 105 vhcurveto
          551 hmoveto
          hintmask 0000100000000000
          104 -73 118 -114 vhcurveto
          hintmask 1011011111100000
          -5 -4 -1 -5 hhcurveto
          -116 -13 -62 -105 -104 vvcurveto
          -108 73 -114 120 vhcurveto
          10 hlineto
          116 14 60 105 104 vvcurveto
          -423 -365 rmoveto
          728 -84 -728 vlineto
          -126 366 rmoveto
          -5 -1 -4 -4 vvcurveto
          -58 -5 -21 -78 -83 hhcurveto
          -79 -34 78 69 67 33 80 79 78 33 -78 -67 hvcurveto
          558 -2 rmoveto
          -69 -34 -78 -79 -76 -27 70 67 -7 vhcurveto
          68 24 89 87 77 35 -77 -70 vhcurveto
          endchar
        </CharString>
        <CharString name="dlinebelow">
          531 -186 69 106 76 callgsubr
          245 83 -80 80 hintmask 01111010
          -34 callgsubr
          hintmask 01101100
          -51 callgsubr
          hintmask 10000000
          86 -524 -61 callsubr
        </CharString>
        <CharString name="dollar">
          514 -35 -21 49 68 572 68 49 -20 hstem
          57 78 91 62 90 78 vstem
          456 197 rmoveto
          79 -48 102 -120 24 vhcurveto
          234 vlineto
          59 -6 42 -22 37 -29 13 69 rcurveline
          -54 39 -48 13 -49 4 rrcurveto
          46 -62 -47 vlineto
          -96 -15 -73 -80 -97 vvcurveto
          -67 41 -99 128 -26 vhcurveto
          -260 vlineto
          -84 8 -59 43 -24 21 -13 -72 rcurveline
          63 -47 65 -17 52 -5 rrcurveto
          -46 62 48 vlineto
          105 18 63 92 95 vvcurveto
          -230 221 rmoveto
          -58 14 -33 46 48 vvcurveto
          37 23 54 68 16 vhcurveto
          152 -450 rmoveto
          -51 -30 -53 -60 -18 vhcurveto
          243 vlineto
          52 -14 38 -49 -58 vvcurveto
          endchar
        </CharString>
        <CharString name="dollar.oldstyle">
          627 -9 68 -62 -21 693 68 14 -20 hstemhm
          57 78 90 62 53 62 90 78 hintmask 00010010
          570 202 rmoveto
          87 -62 76 -82 31 vhcurveto
          -8 3 -8 4 -8 1 rrcurveto
          258 vlineto
          43 -10 39 -13 38 -21 6 -3 6 -4 7 -2 rrcurveto
          5 20 6 24 20 vvcurveto
          23 -123 29 -13 4 vhcurveto
          -8 2 -6 1 0 vvcurveto
          19 -62 vlineto
          hintmask 00100110
          -14 -53 vlineto
          hintmask 01011100
          14 -62 -25 vlineto
          0 -18 -7 -12 -4 vhcurveto
          -76 -32 -62 -63 -84 vvcurveto
          -3 vlineto
          1 -84 72 -65 74 -26 rrcurveto
          15 -5 6 -3 0 vvcurveto
          -283 vlineto
          -60 9 -55 28 -51 32 -4 -17 -2 -18 -3 -17 rrcurveto
          -1 -4 -2 -6 -5 vvcurveto
          -32 167 -38 11 -1 vhcurveto
          -22 62 vlineto
          hintmask 10000110
          15 53 vlineto
          hintmask 01101111
          -15 62 26 vlineto
          0 30 11 16 8 vhcurveto
          67 36 55 64 81 vvcurveto
          -230 219 rmoveto
          -53 13 rlineto
          235 53 vlineto
          -115 -218 rmoveto
          -35 18 -55 20 64 vvcurveto
          52 49 30 41 19 vhcurveto
          267 -464 rmoveto
          -56 -46 -37 -44 -22 vhcurveto
          228 vlineto
          47 -16 43 -46 -51 vvcurveto
          -152 -131 rmoveto
          hintmask 10000110
          -53 276 hlineto
          53 -13 rlineto
          endchar
        </CharString>
        <CharString name="dong">
          531 -68 68 hstem
          504 543 rmoveto
          65 -79 86 -76 -86 -148 -65 148 -128 vlineto
          44 -54 -60 8 -31 hhcurveto
          -96 -74 -100 -121 -123 73 -99 93 29 60 7 53 57 hvcurveto
          -49 79 508 vlineto
          79 -611 rmoveto
          68 -470 -68 vlineto
          312 237 rmoveto
          -18 0 -2 -11 -14 vhcurveto
          -34 -25 -33 -15 -34 hhcurveto
          -62 -68 45 114 121 81 39 60 43 31 -24 -25 18 hvcurveto
          endchar
        </CharString>
        <CharString name="dotaccent">
          286 563 69 callsubr
          563 -81 callsubr
        </CharString>
        <CharString name="dotaccent.alt">
          286 521 69 callsubr
          521 -81 callsubr
        </CharString>
        <CharString name="dotaccent.cap">
          286 486 69 callsubr
          486 -81 callsubr
        </CharString>
        <CharString name="dotlessi">
          -27 callgsubr
          hstem
          82 80 vstem
          -44 callgsubr
          endchar
        </CharString>
        <CharString name="dotlessj">
          15 callgsubr
          hstem
          111 80 vstem
          -70 callsubr
          endchar
        </CharString>
        <CharString name="e">
          -56 callgsubr
          hstem
          35 74 258 60 vstem
          -106 callsubr
          endchar
        </CharString>
        <CharString name="eacute">
          -56 callgsubr
          87 -21 167 -98 callgsubr
          6 416 -77 callsubr
        </CharString>
        <CharString name="ebreve">
          -56 callgsubr
          60 -17 callgsubr
          -98 callgsubr
          35 423 -105 callgsubr
          endchar
        </CharString>
        <CharString name="ecaron">
          -56 callgsubr
          85 -21 172 -98 callgsubr
          16 419 -81 callgsubr
        </CharString>
        <CharString name="ecircumflex">
          -56 callgsubr
          85 -21 172 -98 callgsubr
          16 247 -88 callsubr
          endchar
        </CharString>
        <CharString name="ecircumflexacute">
          -56 callgsubr
          85 -21 291 -98 callgsubr
          17 247 -78 callgsubr
        </CharString>
        <CharString name="ecircumflexdotbelow">
          457 -15 callgsubr
          93 -45 callsubr
          85 72 callsubr
          69 callgsubr
          hintmask 0111111010000000
          -106 callsubr
          16 247 -88 callsubr
          hintmask 1000000100000000
          -47 -725 -81 callsubr
        </CharString>
        <CharString name="ecircumflexgrave">
          -56 callgsubr
          85 -21 134 -98 callgsubr
          17 247 -79 callsubr
        </CharString>
        <CharString name="ecircumflexhookabove">
          -56 callgsubr
          85 -21 363 -98 callgsubr
          17 247 -103 callsubr
          103 284 -107 callgsubr
        </CharString>
        <CharString name="ecircumflextilde">
          -56 callgsubr
          85 -21 189 65 -7 65 3 callgsubr
          hintmask 11100011
          -106 callsubr
          hintmask 00010100
          17 247 -103 callsubr
          74 312 -85 callsubr
        </CharString>
        <CharString name="edblgrave">
          -56 callgsubr
          87 -21 167 -98 callgsubr
          8 249 -87 callgsubr
        </CharString>
        <CharString name="edieresis">
          -56 callgsubr
          107 86 hstemhm
          35 74 -4 87 73 87 15 60 hintmask 11101001
          -106 callsubr
          hintmask 00010110
          -175 290 -15 callsubr
        </CharString>
        <CharString name="edotaccent">
          -56 callgsubr
          102 96 69 callgsubr
          hintmask 11101010
          -106 callsubr
          hintmask 00010100
          -90 285 -81 callsubr
        </CharString>
        <CharString name="edotbelow">
          457 -15 callgsubr
          93 -45 callsubr
          69 callgsubr
          hintmask 01111010
          -106 callsubr
          hintmask 10000100
          -90 -478 -81 callsubr
        </CharString>
        <CharString name="egrave">
          -56 callgsubr
          87 -21 167 -98 callgsubr
          -67 249 -62 callsubr
        </CharString>
        <CharString name="ehookabove">
          -56 callgsubr
          64 -21 214 -98 callgsubr
          -39 361 -107 callgsubr
        </CharString>
        <CharString name="eight">
          514 14 callgsubr
          hstemhm
          57 74 52 74 -1 74 52 74 hintmask 00000110
          470 -46 callgsubr
        </CharString>
        <CharString name="eight.oldstyle">
          579 14 callgsubr
          hstemhm
          76 53 callsubr
          503 -49 callgsubr
        </CharString>
        <CharString name="eight.prop">
          579 14 callgsubr
          hstemhm
          90 74 52 74 -1 74 52 74 hintmask 00000110
          503 -46 callgsubr
        </CharString>
        <CharString name="eight.taboldstyle">
          514 14 callgsubr
          hstemhm
          43 53 callsubr
          470 -49 callgsubr
        </CharString>
        <CharString name="ellipsis">
          642 0 86 hstem
          100 86 92 86 92 86 cntrmask 01110000
          186 hmoveto
          33 callgsubr
          264 hmoveto
          33 callgsubr
          264 hmoveto
          33 callgsubr
          endchar
        </CharString>
        <CharString name="emacron">
          -56 callgsubr
          115 69 3 callgsubr
          hintmask 11101100
          -106 callsubr
          hintmask 00010000
          46 298 -61 callsubr
        </CharString>
        <CharString name="emdash">
          1028 242 65 hstem
          0 1027 vstem
          1027 242 rmoveto
          65 -1027 -65 vlineto
          endchar
        </CharString>
        <CharString name="emdash.alt">
          685 243 65 hstem
          684 243 rmoveto
          65 -684 -65 vlineto
          endchar
        </CharString>
        <CharString name="endash">
          514 242 65 hstem
          0 513 vstem
          513 242 rmoveto
          65 -513 -65 vlineto
          endchar
        </CharString>
        <CharString name="eng">
          531 -208 68 530 65 63 callgsubr
          vstem
          -84 callsubr
          -68 -16 -72 -58 vhcurveto
          -68 vlineto
          98 59 101 107 hvcurveto
          endchar
        </CharString>
        <CharString name="eogonek">
          457 -212 70 -45 59 117 -45 callsubr
          hstemhm
          35 74 6 74 0 63 90 74 hintmask 1010110100000000
          -20 callsubr
          hintmask 1011010110000000
          -17 callsubr
          45 36 46 26 26 8 27 11 27 17 -6 69 rcurveline
          -45 -63 -59 -8 -35 hhcurveto
          -83 -64 73 92 -3 hvcurveto
          258 59 rmoveto
          hintmask 0001101000000000
          -252 hlineto
          64 16 49 54 63 hhcurveto
          37 68 -17 -101 19 hvcurveto
          endchar
        </CharString>
        <CharString name="eogonekacute">
          457 -212 70 -45 59 117 -45 callsubr
          2 callsubr
          35 74 6 74 0 63 90 74 hintmask 1010100101000000
          -20 callsubr
          hintmask 1011000101100000
          -17 callsubr
          45 36 46 26 26 8 27 11 27 17 -6 69 rcurveline
          -45 -63 -59 -8 -35 hhcurveto
          -83 -64 73 92 -3 hvcurveto
          258 59 rmoveto
          hintmask 0001100010000000
          -252 hlineto
          64 16 49 54 63 hhcurveto
          37 68 -17 -101 19 hvcurveto
          hintmask 0000011000000000
          6 416 -77 callsubr
        </CharString>
        <CharString name="equal">
          799 124 43 167 43 hstem
          57 684 vstem
          741 355 18 callsubr
          -209 vmoveto
          21 -19 0 -14 vhcurveto
          -618 76 callsubr
          610 hlineto
          15 22 0 22 hvcurveto
          endchar
        </CharString>
        <CharString name="ereversed">
          -56 callgsubr
          hstem
          35 60 258 74 vstem
          427 226 rmoveto
          128 -92 107 -116 -38 -64 -12 -63 -42 vhcurveto
          -39 -60 -1 -76 -31 vvcurveto
          318 hlineto
          -92 -3 -64 -73 -83 hhcurveto
          -35 -59 8 45 -63 hvcurveto
          -6 -69 rlineto
          -37 58 58 -12 48 hhcurveto
          125 98 105 132 hvcurveto
          -80 52 rmoveto
          -252 hlineto
          101 19 68 17 37 hhcurveto
          63 49 -54 -64 16 hvcurveto
          endchar
        </CharString>
        <CharString name="estimated">
          690 -10 65 307 59 225 66 hstem
          575 85 vstem
          660 362 rmoveto
          96 -20 109 -72 68 vhcurveto
          52 -54 -77 25 -75 hhcurveto
          -206 -127 -185 -182 hvcurveto
          -7 vlineto
          3 -178 143 -162 186 -8 rrcurveto
          19 hlineto
          68 2 71 6 65 19 51 15 rcurveline
          8 3 12 0 12 vvcurveto
          20 -5 21 -1 20 vhcurveto
          -31 -97 -81 -22 -97 hhcurveto
          -12 hlineto
          -130 10 -92 115 -17 125 -3 40 rcurveline
          6 vlineto
          10 5 1 7 vhcurveto
          443 59 rmoveto
          -448 hlineto
          115 23 86 110 127 hhcurveto
          109 89 -81 -144 14 hvcurveto
          endchar
        </CharString>
        <CharString name="eth">
          -55 callsubr
          hstem
          29 84 287 84 vstem
          484 245 rmoveto
          151 -66 139 -108 93 vhcurveto
          63 50 -39 49 -76 -60 -40 25 -44 20 -47 13 rlinecurve
          -37 -53 38 -13 37 -17 33 -21 rlinecurve
          -64 -51 39 -49 77 61 47 -41 38 -50 27 -57 rlinecurve
          20 -39 -36 7 -30 hhcurveto
          -128 -100 -111 -130 -132 106 -99 121 97 53 56 19 19 hvcurveto
          59 62 0 78 41 vvcurveto
          -84 -20 rmoveto
          -94 -56 -74 -87 -77 -67 59 114 117 74 49 69 90 54 -78 -93 vhcurveto
          endchar
        </CharString>
        <CharString name="etilde">
          -56 callgsubr
          88 65 -7 65 -99 callsubr
          hintmask 00001000
          31 394 -97 callsubr
        </CharString>
        <CharString name="eturned">
          -40 callsubr
        </CharString>
        <CharString name="exclam">
          326 0 86 112 -21 517 -20 hstem
          120 86 vstem
          206 694 rmoveto
          -86 hlineto
          8 -517 rlineto
          70 hlineto
          8 -177 rmoveto
          33 callgsubr
          endchar
        </CharString>
        <CharString name="exclamdown">
          326 -173 -21 517 -20 111 86 hstem
          120 86 vstem
          206 414 rmoveto
          33 callgsubr
          86 -608 rmoveto
          -8 474 rlineto
          43 -70 -43 vlineto
          -8 -474 rlineto
          endchar
        </CharString>
        <CharString name="f">
          -25 callsubr
        </CharString>
        <CharString name="f_f">
          600 -1 callsubr
          205 80 vstem
          357 623 rmoveto
          71 vlineto
          5 -20 -30 6 -32 hhcurveto
          -100 -72 -75 -98 hvcurveto
          -88 -3 callgsubr
          112 62 -115 116 vlineto
          71 64 9 30 10 31 0 -17 42 vhcurveto
          285 hmoveto
          71 vlineto
          5 -20 -30 6 -32 hhcurveto
          -100 -72 -75 -98 hvcurveto
          -532 80 382 112 62 -115 116 vlineto
          71 64 9 30 10 31 0 -17 42 vhcurveto
          endchar
        </CharString>
        <CharString name="f_f_i">
          836 21 -21 382 62 117 62 -14 86 -55 65 hstemhm
          103 80 205 80 204 80 hintmask 11010001
          755 609 rmoveto
          33 callgsubr
          83 -609 rmoveto
          444 -80 -444 vlineto
          -85 382 rmoveto
          62 -122 118 vlineto
          hintmask 00001000
          63 35 15 26 34 27 -18 0 vhcurveto
          hintmask 00010000
          73 vlineto
          hintmask 11101110
          7 -22 -8 3 -31 hhcurveto
          -78 -60 -73 -99 hvcurveto
          -533 80 382 vlineto
          -140 241 -5 callsubr
          endchar
        </CharString>
        <CharString name="f_f_l">
          836 21 -21 382 62 117 62 17 65 hstem
          103 80 205 80 204 80 vstem
          328 623 -5 callsubr
          424 -623 rmoveto
          694 -80 -694 vlineto
          -85 382 rmoveto
          62 -122 118 vlineto
          63 35 15 26 29 25 -13 -4 7 vhcurveto
          71 vlineto
          3 -7 -25 8 -30 hhcurveto
          -74 -63 -70 -102 hvcurveto
          -533 80 382 vlineto
          endchar
        </CharString>
        <CharString name="f_i">
          551 21 -21 382 62 165 86 -55 65 hstemhm
          103 80 204 80 hintmask 11100100
          470 609 rmoveto
          33 callgsubr
          83 -609 rmoveto
          444 -80 -444 vlineto
          -84 382 rmoveto
          62 -123 118 vlineto
          hintmask 11011000
          64 37 14 24 18 23 -4 -15 21 vhcurveto
          73 vlineto
          3 -8 -25 8 -29 hhcurveto
          -76 -62 -71 -101 hvcurveto
          -89 -3 callgsubr
          vlineto
          endchar
        </CharString>
        <CharString name="f_k">
          816 -1 callsubr
          206 76 -10 callsubr
          605 -382 rmoveto
          -41 callsubr
          endchar
        </CharString>
        <CharString name="f_l">
          551 -1 callsubr
          204 80 -10 callsubr
          284 -382 rmoveto
          694 -80 -694 vlineto
          endchar
        </CharString>
        <CharString name="five">
          514 -22 28 callsubr
          203 -75 callsubr
        </CharString>
        <CharString name="five.oldstyle">
          575 -216 27 callgsubr
          9 -75 callsubr
        </CharString>
        <CharString name="five.prop">
          575 -22 27 callgsubr
          203 -75 callsubr
        </CharString>
        <CharString name="five.taboldstyle">
          514 -216 28 callsubr
          9 -75 callsubr
        </CharString>
        <CharString name="florin">
          -25 callsubr
        </CharString>
        <CharString name="four">
          514 21 -21 callsubr
          65 422 -20 hstem
          306 78 vstem
          484 -6 callsubr
        </CharString>
        <CharString name="four.oldstyle">
          531 -173 -21 194 65 417 -20 hstemhm
          309 84 -78 78 hintmask 11110000
          493 -7 callsubr
        </CharString>
        <CharString name="four.prop">
          531 21 -21 callsubr
          65 422 -20 hstem
          315 78 vstem
          493 -6 callsubr
        </CharString>
        <CharString name="four.taboldstyle">
          514 -173 -21 194 65 417 -20 hstemhm
          300 84 -78 78 hintmask 11110000
          484 -7 callsubr
        </CharString>
        <CharString name="fraction">
          575 518 44 callgsubr
          50 hlineto
          endchar
        </CharString>
        <CharString name="fraction.alt">
          0 231 44 callgsubr
          50 hlineto
          endchar
        </CharString>
        <CharString name="g">
          -52 callgsubr
          -28 callgsubr
          hintmask 0000110010000000
          -7 callgsubr
          hintmask 1000000101000000
          -52 -33 -12 -43 -28 vvcurveto
          -73 98 -62 129 vhcurveto
          hintmask 0110100001110000
          129 99 61 75 139 -166 2 -44 hvcurveto
          -92 hlineto
          -13 -45 0 52 20 4 6 5 8 hvcurveto
          -18 27 34 -11 34 hhcurveto
          92 73 75 88 34 -10 28 -16 27 hvcurveto
          -4 5 0 2 0 vvcurveto
          hintmask 0001010010001000
          5 49 0 13 8 37 0 -4 29 vhcurveto
          -180 -96 rmoveto
          -81 -51 -23 -40 -46 -45 29 74 vhcurveto
          hintmask 0110001100110000
          81 51 23 40 46 45 -29 -74 vhcurveto
          91 -363 rmoveto
          -44 -73 -31 -80 -78 -76 29 47 0 0 65 77 vhcurveto
          94 hlineto
          21 115 0 -66 hvcurveto
          endchar
        </CharString>
        <CharString name="gacute">
          -52 callgsubr
          93 -21 167 -20 -28 callgsubr
          hintmask 0000110000100000
          499 388 -102 callsubr
          hintmask 0000000110000000
          -44 765 -77 callsubr
        </CharString>
        <CharString name="gbreve">
          -52 callgsubr
          66 -17 callgsubr
          -20 -28 callgsubr
          hintmask 0000110000100000
          499 388 -102 callsubr
          hintmask 0000000110000000
          -15 772 -105 callgsubr
          endchar
        </CharString>
        <CharString name="gcaron">
          -52 callgsubr
          91 72 callsubr
          -28 callgsubr
          hintmask 0000110000100000
          499 388 -102 callsubr
          hintmask 0000000110000000
          -34 768 -81 callgsubr
        </CharString>
        <CharString name="gcedilla">
          -52 callgsubr
          82 78 114 -20 -28 callgsubr
          hintmask 0000110110110000
          260 729 rmoveto
          -38 hlineto
          -40 -115 rlineto
          -77 77 78 -23 vlineto
          263 -227 -102 callsubr
          endchar
        </CharString>
        <CharString name="gcircumflex">
          -52 callgsubr
          91 72 callsubr
          -28 callgsubr
          hintmask 0000110000100000
          499 388 -102 callsubr
          hintmask 0000000110000000
          -34 596 -88 callsubr
          endchar
        </CharString>
        <CharString name="gcommaaccent">
          -52 callgsubr
          82 78 114 -20 -28 callgsubr
          hintmask 0000110110110000
          260 729 rmoveto
          -38 hlineto
          -40 -115 rlineto
          -77 77 78 -23 vlineto
          263 -227 -102 callsubr
          endchar
        </CharString>
        <CharString name="gdotaccent">
          -52 callgsubr
          108 96 hstemhm
          29 74 -40 74 36 96 -87 74 63 74 17 74 -59 74 hintmask 0000110001000000
          -7 callgsubr
          hintmask 1000000010010000
          -52 -33 -12 -43 -28 vvcurveto
          -73 98 -62 129 vhcurveto
          hintmask 0110100000011100
          129 99 61 75 139 -166 2 -44 hvcurveto
          -92 hlineto
          -13 -45 0 52 20 4 6 5 8 hvcurveto
          -18 27 34 -11 34 hhcurveto
          92 73 75 88 34 -10 28 -16 27 hvcurveto
          -4 5 0 2 0 vvcurveto
          hintmask 0001010001000010
          5 49 0 13 8 37 0 -4 29 vhcurveto
          -180 -96 rmoveto
          -81 -51 -23 -40 -46 -45 29 74 vhcurveto
          hintmask 0110001010001100
          81 51 23 40 46 45 -29 -74 vhcurveto
          91 -363 rmoveto
          -44 -73 -31 -80 -78 -76 29 47 0 0 65 77 vhcurveto
          94 hlineto
          21 115 0 -66 hvcurveto
          hintmask 0000000100100000
          -141 634 -81 callsubr
        </CharString>
        <CharString name="germandbls">
          -47 callsubr
        </CharString>
        <CharString name="germandbls.dup">
          -47 callsubr
        </CharString>
        <CharString name="gnaborretni">
          485 -137 86 374 19 callgsubr
          -51 -35 -51 -14 -40 -4 rlinecurve
          -4 344 rlineto
          5 30 1 29 26 42 callsubr
          -70 33 -71 104 -13 vhcurveto
          -25 68 24 vlineto
          48 5 59 14 58 33 rrcurveto
          -230 212 rmoveto
          -2 -197 rlineto
          -37 9 -18 25 52 vvcurveto
          44 14 16 13 13 vhcurveto
          11 13 11 12 8 13 rrcurveto
          endchar
        </CharString>
        <CharString name="grave">
          514 548 -31 callgsubr
          hstem
          329 527 -62 callsubr
        </CharString>
        <CharString name="grave.cap">
          514 517 46 callgsubr
          hstem
          352 496 -72 callsubr
        </CharString>
        <CharString name="grave.ts1">
          514 561 -21 186 -20 hstem
          303 540 rmoveto
          -134 185 -26 1 rlineto
          -57 hlineto
          153 -186 rlineto
          endchar
        </CharString>
        <CharString name="greater">
          54 callsubr
          251 rmoveto
          13 -11 6 -9 4 vhcurveto
          -564 271 rlineto
          -14 7 -7 0 0 vvcurveto
          -13 -8 -11 -10 -12 6 -5 14 -7 hvcurveto
          535 -256 -535 -257 rlineto
          -14 -7 -6 -5 -12 vvcurveto
          -7 6 -14 16 vhcurveto
          0 6 0 12 6 vhcurveto
          566 272 rlineto
          11 5 9 5 14 vvcurveto
          endchar
        </CharString>
        <CharString name="guarani">
          685 -22 68 188 65 281 68 0 68 hstemhm
          66 96 119 68 183 83 hintmask 11100110
          615 27 rmoveto
          272 -216 -65 133 -168 vlineto
          -7 -23 -48 -13 -58 hhcurveto
          -19 -18 2 5 -17 hvcurveto
          588 vlineto
          5 17 18 2 19 hhcurveto
          81 55 -26 -42 52 hvcurveto
          16 86 rlineto
          hintmask 10011110
          42 -75 -73 8 -55 hhcurveto
          -19 -18 -2 -3 -18 hvcurveto
          85 -68 -104 vlineto
          -130 -54 -85 -138 -153 vvcurveto
          -156 88 -136 127 -53 vhcurveto
          -104 68 84 vlineto
          -2 17 18 -2 18 hhcurveto
          69 76 17 32 68 hvcurveto
          -334 59 rmoveto
          -73 52 -46 99 110 vvcurveto
          109 46 99 73 53 vhcurveto
          endchar
        </CharString>
        <CharString name="guillemotleft">
          514 21 -21 438 -20 hstem
          286 3 callsubr
          236 3 callsubr
          endchar
        </CharString>
        <CharString name="guillemotright">
          514 21 -21 438 -20 hstem
          400 219 rmoveto
          -107 219 rlineto
          -65 hlineto
          88 -219 -88 -219 rlineto
          65 hlineto
          -64 32 callgsubr
        </CharString>
        <CharString name="guilsinglleft">
          343 21 -21 438 -20 hstem
          286 3 callsubr
          endchar
        </CharString>
        <CharString name="guilsinglright">
          343 21 -21 438 -20 hstem
          229 32 callgsubr
        </CharString>
        <CharString name="h">
          0 callgsubr
          239 -20 41 callsubr
          hintmask 11110100
          -47 callgsubr
          hintmask 11001100
          -39 callsubr
          endchar
        </CharString>
        <CharString name="h_uni0303">
          0 callgsubr
          239 -20 62 65 -7 65 41 callsubr
          hintmask 11100101
          -47 callgsubr
          hintmask 11000011
          -39 callsubr
          hintmask 00001000
          69 859 -97 callsubr
        </CharString>
        <CharString name="hbar">
          0 callgsubr
          80 68 91 -20 41 callsubr
          hintmask 11111010
          449 hmoveto
          297 vlineto
          74 -20 84 -121 -57 -54 -27 -45 -36 vhcurveto
          152 104 68 -104 91 -80 -91 -84 -68 84 -535 vlineto
          hintmask 11000110
          -39 callsubr
          endchar
        </CharString>
        <CharString name="hbrevebelow">
          531 62 callsubr
          103 73 callgsubr
          239 -20 41 callsubr
          hintmask 00111101
          -47 callgsubr
          hintmask 00110011
          -39 callsubr
          hintmask 11000000
          73 -62 -105 callgsubr
          endchar
        </CharString>
        <CharString name="hcircumflex">
          0 callgsubr
          239 -20 83 -21 134 -20 41 callsubr
          hintmask 11100101
          -47 callgsubr
          hintmask 11000011
          -39 callsubr
          hintmask 00011000
          55 736 -103 callsubr
          endchar
        </CharString>
        <CharString name="hdieresis">
          0 callgsubr
          239 -20 62 86 hstemhm
          81 80 -80 83 -36 87 101 87 -37 83 hintmask 1110100010000000
          -47 callgsubr
          hintmask 1100010010000000
          -39 callsubr
          hintmask 0001001100000000
          -151 736 -74 callsubr
          endchar
        </CharString>
        <CharString name="hdotbelow">
          531 -11 callgsubr
          390 65 239 -20 hstemhm
          81 80 -80 83 53 96 53 83 hintmask 01111001
          -47 callgsubr
          hintmask 01100101
          -39 callsubr
          hintmask 10000010
          -53 -200 -81 callsubr
        </CharString>
        <CharString name="hungarumlaut">
          514 548 -31 callgsubr
          hstem
          256 694 -66 callgsubr
        </CharString>
        <CharString name="hungarumlaut.cap">
          514 517 -31 callgsubr
          hstem
          256 663 -66 callgsubr
        </CharString>
        <CharString name="hungarumlaut.ts1">
          514 560 -21 187 -20 hstem
          256 726 59 callgsubr
          253 187 59 callgsubr
          endchar
        </CharString>
        <CharString name="hyphen">
          -4 callgsubr
        </CharString>
        <CharString name="hyphen.alt">
          171 191 62 hstem
          285 191 -2 callsubr
        </CharString>
        <CharString name="hyphen.dup">
          -4 callgsubr
        </CharString>
        <CharString name="hyphen.prop">
          343 302 62 hstem
          34 274 vstem
          308 302 -2 callsubr
        </CharString>
        <CharString name="hyphendbl">
          343 13 callsubr
        </CharString>
        <CharString name="hyphendbl.alt">
          171 13 callsubr
        </CharString>
        <CharString name="i">
          -27 callgsubr
          139 96 hstemhm
          75 96 -89 -33 callsubr
          hintmask 00110000
          89 563 -81 callsubr
        </CharString>
        <CharString name="i_j">
          495 -205 68 700 96 hstemhm
          74 96 -88 80 154 96 -80 80 hintmask 01100100
          170 563 rmoveto
          96 -96 -96 vlineto
          338 hmoveto
          96 vlineto
          hintmask 01011000
          -96 -96 hlineto
          -154 -563 rmoveto
          444 -80 -444 vlineto
          330 -59 rmoveto
          503 vlineto
          hintmask 10000100
          -80 -511 hlineto
          -17 0 -18 -21 -16 vhcurveto
          -12 -15 -18 -7 -25 hhcurveto
          -23 -30 8 23 -25 hvcurveto
          -17 -65 rlineto
          -28 50 48 -6 26 hhcurveto
          68 62 54 92 hvcurveto
          endchar
        </CharString>
        <CharString name="iacute">
          10 callgsubr
          217 694 -77 callsubr
        </CharString>
        <CharString name="ibreve">
          -27 callgsubr
          97 -17 callgsubr
          -20 -38 callgsubr
          hintmask 00110000
          215 701 -105 callgsubr
          endchar
        </CharString>
        <CharString name="icaron">
          -27 callgsubr
          122 72 callsubr
          -38 callgsubr
          hintmask 00110000
          196 697 -81 callgsubr
        </CharString>
        <CharString name="icircumflex">
          -27 callgsubr
          122 72 callsubr
          -38 callgsubr
          hintmask 00110000
          196 525 -88 callsubr
          endchar
        </CharString>
        <CharString name="idblgrave">
          15 callsubr
          hintmask 00110000
          188 527 -87 callgsubr
        </CharString>
        <CharString name="idieresis">
          -27 callgsubr
          144 86 hstemhm
          0 87 -5 80 -2 87 hintmask 11001000
          -44 callgsubr
          hintmask 00110100
          5 568 -15 callsubr
        </CharString>
        <CharString name="idieresisacute">
          -27 callgsubr
          144 86 31 callgsubr
          0 87 -5 80 -2 87 hintmask 11000010
          -44 callgsubr
          hintmask 00111101
          5 568 -71 callgsubr
          154 260 -95 callgsubr
        </CharString>
        <CharString name="idotbelow">
          245 -11 callgsubr
          444 -20 139 96 hstemhm
          75 96 -89 80 hintmask 01100100
          -44 callgsubr
          89 563 rmoveto
          hintmask 00011000
          96 -96 -96 vlineto
          hintmask 10001000
          96 -763 -81 callsubr
        </CharString>
        <CharString name="igrave">
          10 callgsubr
          80 527 -62 callsubr
        </CharString>
        <CharString name="ihookabove">
          -27 callgsubr
          101 -21 214 -20 -38 callgsubr
          hintmask 00110000
          141 639 -107 callgsubr
        </CharString>
        <CharString name="imacron">
          -27 callgsubr
          152 69 hstemhm
          82 80 hintmask 11010000
          -44 callgsubr
          hintmask 00100000
          226 576 -61 callsubr
        </CharString>
        <CharString name="imacron.alt">
          -27 callgsubr
          152 69 hstemhm
          82 80 hintmask 11010000
          -44 callgsubr
          hintmask 00100000
          140 576 -2 callgsubr
        </CharString>
        <CharString name="infinity">
          1028 -24 58 -56 67 354 67 -56 58 hstemhm
          57 64 786 64 hintmask 10101000
          469 212 rmoveto
          -94 -52 -72 -84 -104 hhcurveto
          -82 -38 94 94 89 42 88 80 78 54 -66 -63 49 hvcurveto
          483 -48 rmoveto
          hintmask 01010100
          -89 -42 -88 -80 -78 -54 66 63 -49 vhcurveto
          -45 58 rlineto
          94 52 72 84 104 hhcurveto
          82 38 -94 -94 hvcurveto
          64 hmoveto
          132 -93 114 -127 -106 -75 -81 -95 -57 vhcurveto
          -23 30 rlineto
          hintmask 10101000
          72 -56 -68 72 -91 hhcurveto
          -125 -93 -114 -130 -132 93 -114 127 106 75 81 95 57 hvcurveto
          23 -30 rlineto
          hintmask 01000100
          -72 56 68 -72 91 hhcurveto
          125 93 114 130 hvcurveto
          endchar
        </CharString>
        <CharString name="interrobang">
          485 286 hmoveto
          33 callgsubr
          214 549 rmoveto
          70 -34 71 -103 13 vhcurveto
          25 -69 vlineto
          1 -24 -49 -5 -58 -14 -58 -33 rlinecurve
          24 -67 50 35 52 14 39 4 rlinecurve
          5 -344 rlineto
          -5 -30 -1 -29 -26 vvcurveto
          -32 70 55 vlineto
          36 8 82 77 77 vhcurveto
          21 22 30 30 70 vvcurveto
          -83 2 rmoveto
          -44 -14 -16 -13 -13 vhcurveto
          -12 -13 -10 -12 -9 -13 3 197 rcurveline
          37 -9 18 -25 -52 vvcurveto
          endchar
        </CharString>
        <CharString name="iogonek">
          245 -212 70 163 57 callgsubr
          164 96 hstem
          82 80 vstem
          170 588 rmoveto
          96 -96 -96 vlineto
          133 -775 rmoveto
          -33 callgsubr
          44 44 56 callsubr
          444 -80 -444 15 vlineto
          -12 callgsubr
          -65 callsubr
          endchar
        </CharString>
        <CharString name="iogonekacute">
          245 -212 70 163 57 callgsubr
          124 -31 callgsubr
          hstem
          82 80 vstem
          207 -53 callsubr
          -1 44 44 56 callsubr
          444 -80 -444 15 vlineto
          -12 callgsubr
          -65 callsubr
          92 881 -77 callsubr
        </CharString>
        <CharString name="itilde">
          -27 callgsubr
          125 65 -7 65 -38 callgsubr
          hintmask 00010000
          211 672 -102 callgsubr
        </CharString>
        <CharString name="j">
          15 callgsubr
          139 96 hstemhm
          95 96 -80 80 hintmask 11001000
          -70 callsubr
          hintmask 00101000
          622 vmoveto
          96 vlineto
          hintmask 00110000
          -96 -96 hlineto
          endchar
        </CharString>
        <CharString name="jacute">
          15 callgsubr
          124 -23 callgsubr
          111 80 hintmask 11001000
          -70 callsubr
          hintmask 00111000
          137 753 -77 callsubr
        </CharString>
        <CharString name="jcaron">
          15 callgsubr
          122 72 callsubr
          hstemhm
          111 80 hintmask 11001000
          -70 callsubr
          hintmask 00110000
          107 756 -81 callgsubr
        </CharString>
        <CharString name="jcircumflex">
          15 callgsubr
          122 72 callsubr
          hstemhm
          111 80 hintmask 11001000
          -70 callsubr
          hintmask 00110000
          107 584 -88 callsubr
          endchar
        </CharString>
        <CharString name="k">
          502 24 callgsubr
          85 76 vstem
          484 hmoveto
          -41 callsubr
          endchar
        </CharString>
        <CharString name="kcedilla">
          502 16 callgsubr
          hstem
          85 76 vstem
          484 hmoveto
          -41 callsubr
          -108 -156 -86 callgsubr
        </CharString>
        <CharString name="kcommaaccent">
          502 9 callsubr
          85 76 hintmask 00111000
          484 hmoveto
          -41 callsubr
          hintmask 11000000
          -108 -156 -86 callgsubr
        </CharString>
        <CharString name="l">
          245 24 callgsubr
          82 80 vstem
          -22 callgsubr
          endchar
        </CharString>
        <CharString name="l_uni0303">
          245 -35 callsubr
          62 -11 callsubr
          82 80 hintmask 11001000
          -22 callgsubr
          hintmask 00010000
          211 859 -102 callgsubr
        </CharString>
        <CharString name="lacute">
          245 -35 callsubr
          93 22 callgsubr
          82 80 hintmask 11001000
          -22 callgsubr
          34 callsubr
        </CharString>
        <CharString name="lcaron">
          245 21 -21 523 -21 114 78 hstem
          82 80 vstem
          -22 callgsubr
          196 617 -86 callgsubr
        </CharString>
        <CharString name="lcedilla">
          245 16 callgsubr
          hstem
          82 80 vstem
          -22 callgsubr
          80 -156 -86 callgsubr
        </CharString>
        <CharString name="lcommaaccent">
          245 9 callsubr
          82 80 hintmask 00111000
          -22 callgsubr
          hintmask 11001000
          80 -156 -86 callgsubr
        </CharString>
        <CharString name="ldot">
          303 21 -21 321 96 277 -20 hstem
          82 80 64 96 vstem
          -22 callgsubr
          240 321 -81 callsubr
        </CharString>
        <CharString name="ldotbelow">
          245 -11 callgsubr
          694 -20 hstemhm
          75 96 -89 80 hintmask 01101000
          -22 callgsubr
          hintmask 10010000
          89 -200 -81 callsubr
        </CharString>
        <CharString name="ldotbelowmacron">
          245 -11 callgsubr
          694 -20 82 69 hstemhm
          75 96 -89 80 hintmask 01100100
          -22 callgsubr
          89 -200 rmoveto
          hintmask 10001000
          96 -96 -96 vlineto
          hintmask 00010000
          245 956 -61 callsubr
        </CharString>
        <CharString name="leaf">
          1028 -51 27 167 26 -1 27 -26 26 191 27 -26 26 194 26 118 26 -26 27 hstemhm
          244 26 282 26 428 26 hintmask 0000000010000000
          1040 722 rmoveto
          23 -46 4 -24 6 vhcurveto
          16 -64 -66 7 -65 hhcurveto
          hintmask 1010001101110000
          -7 -7 0 -1 -7 hvcurveto
          -67 -6 -64 -8 -66 -19 -290 -86 -220 -248 -50 -305 rrcurveto
          -6 -32 -4 -34 -33 vvcurveto
          -24 49 -5 25 -6 vhcurveto
          -14 58 62 -8 60 hhcurveto
          386 342 283 398 63 hvcurveto
          4 30 4 32 30 vvcurveto
          -487 -303 rmoveto
          -21 -51 -26 -28 -20 vhcurveto
          -204 -144 rlineto
          335 vlineto
          21 43 26 24 17 vhcurveto
          66 47 72 36 77 25 rrcurveto
          -280 vlineto
          -5 1 -5 -6 vvcurveto
          199 -250 rmoveto
          -124 -131 -198 -69 -183 hhcurveto
          -21 hlineto
          -42 1 -43 5 -41 8 -21 5 -21 6 -21 4 232 163 rcurveline
          hintmask 0001100000000000
          662 219 rmoveto
          -28 -62 -53 -62 -45 -50 rrcurveto
          -8 -7 -7 -10 -11 hhcurveto
          -475 hlineto
          272 191 rlineto
          hintmask 0100011101110000
          427 336 rmoveto
          -318 -226 -101 -71 rlineto
          274 vlineto
          3 -1 4 4 vvcurveto
          33 160 8 50 59 57 -7 -13 58 vhcurveto
          12 -3 12 -4 12 -2 rrcurveto
          -753 -521 rmoveto
          -2 -11 -64 -47 -164 -116 6 52 5 50 14 50 rlinecurve
          36 133 72 121 97 97 rrcurveto
          769 170 rmoveto
          -3 -22 -1 -23 -3 -22 -11 -68 -20 -68 -28 -64 rrcurveto
          -9 -5 -1 -11 -14 hhcurveto
          -320 hlineto
          endchar
        </CharString>
        <CharString name="less">
          54 callsubr
          -30 rmoveto
          13 -7 4 -11 5 vhcurveto
          -537 259 535 256 rlineto
          9 4 11 6 13 vvcurveto
          11 -8 11 -14 vhcurveto
          0 -6 0 -12 -6 vhcurveto
          -566 -272 rlineto
          -9 -4 -11 -6 -13 vvcurveto
          -14 9 -5 11 -5 vhcurveto
          564 -271 rlineto
          14 -7 6 0 0 vvcurveto
          16 6 14 7 hvcurveto
          endchar
        </CharString>
        <CharString name="lira">
          687 -6 68 182 68 70 68 hstem
          22 callsubr
          43 19 48 7 50 rrcurveto
          136 68 -134 hlineto
          -6 34 -2 9 -3 8 -3 9 rlinecurve
          -4 10 rlineto
          152 68 -176 3 hlineto
          34 callgsubr
          -126 -91 -117 -127 17 vhcurveto
          -82 -68 103 hlineto
          13 -38 2 -6 2 -6 1 -6 rlinecurve
          3 -14 rlineto
          -124 -68 122 hlineto
          -14 -75 -48 -63 -50 -59 24 callsubr
        </CharString>
        <CharString name="logicalnot">
          799 335 42 hstem
          699 42 vstem
          741 145 rmoveto
          211 vlineto
          12 -9 9 -12 vhcurveto
          -642 hlineto
          -12 -9 -9 -12 -12 9 -9 12 hvcurveto
          621 -190 hlineto
          -12 9 -9 12 12 9 9 12 vhcurveto
          endchar
        </CharString>
        <CharString name="longs">
          293 640 65 hstem
          82 80 vstem
          335 623 rmoveto
          71 vlineto
          3 -12 -32 8 -38 hhcurveto
          -97 -74 -73 -100 hvcurveto
          -532 80 560 vlineto
          72 62 8 28 9 33 0 -17 41 vhcurveto
          endchar
        </CharString>
        <CharString name="lslash">
          333 24 callgsubr
          130 80 vstem
          316 448 rmoveto
          -40 44 -66 -58 rlineto
          260 -80 -328 vlineto
          -95 -84 38 -45 57 50 rlineto
          -287 80 357 vlineto
          endchar
        </CharString>
        <CharString name="m">
          816 31 callsubr
          63 callgsubr
          202 83 cntrmask 00111000
          -26 callsubr
          endchar
        </CharString>
        <CharString name="macron">
          514 576 69 hstem
          442 576 -61 callsubr
        </CharString>
        <CharString name="macron.alt">
          514 576 69 hstem
          356 576 -2 callgsubr
        </CharString>
        <CharString name="macron.cap">
          514 506 69 hstem
          442 506 -61 callsubr
        </CharString>
        <CharString name="macron.cap.alt">
          514 506 69 hstem
          356 506 -2 callgsubr
        </CharString>
        <CharString name="macron.dup">
          514 576 69 hstem
          442 576 -61 callsubr
        </CharString>
        <CharString name="macron.ts1">
          799 682 43 -42 43 1 -20 hstemhm
          hintmask 00100000
          712 704 rmoveto
          16 -14 7 -17 vhcurveto
          hintmask 01000000
          -9 -8 -1 -9 hhcurveto
          -543 hlineto
          hintmask 10000000
          -3 -3 0 -1 -3 hvcurveto
          -11 -2 -5 -10 -9 vvcurveto
          hintmask 01000000
          -13 9 -8 15 vhcurveto
          553 hlineto
          hintmask 10000000
          6 7 -1 7 hhcurveto
          14 14 6 16 hvcurveto
          endchar
        </CharString>
        <CharString name="married">
          514 29 75 295 74 hstem
          -95 74 184 187 184 74 cntrmask 00111000
          608 252 rmoveto
          123 -101 98 -121 -43 -58 -14 -28 -28 vhcurveto
          28 -35 -49 14 -45 hhcurveto
          -123 -100 -100 -123 -123 101 -98 121 43 58 14 28 28 hvcurveto
          1 hlineto
          -28 25 65 -14 43 hhcurveto
          119 99 102 121 hvcurveto
          -74 hmoveto
          -83 -61 -65 -86 -30 -22 9 10 -25 vhcurveto
          22 42 18 37 49 vvcurveto
          49 -17 34 -23 45 vhcurveto
          9 27 21 11 29 hhcurveto
          83 64 -63 -84 hvcurveto
          -331 -129 rmoveto
          -10 -25 -22 -9 -30 hhcurveto
          -86 -61 65 83 83 62 64 85 29 21 -11 -9 27 hvcurveto
          -23 -45 -17 -34 -49 vvcurveto
          -35 8 -38 18 -31 vhcurveto
          4 -8 6 -8 4 -8 rrcurveto
          66 128 rmoveto
          -5 -43 -7 -22 rlineto
          -9 19 -4 22 22 vvcurveto
          24 5 20 7 23 vhcurveto
          8 -22 rlineto
          endchar
        </CharString>
        <CharString name="mdotbelow">
          816 -11 callgsubr
          390 65 hstemhm
          81 83 196 96 -90 32 callsubr
          hintmask 01110110
          -26 callsubr
          hintmask 10001000
          -195 -200 -81 callsubr
        </CharString>
        <CharString name="minus">
          799 229 43 hstem
          741 250 18 callsubr
          endchar
        </CharString>
        <CharString name="multiply">
          799 -41 callgsubr
          endchar
        </CharString>
        <CharString name="n">
          0 callgsubr
          63 callgsubr
          vstem
          -84 callsubr
          endchar
        </CharString>
        <CharString name="nacute">
          0 callgsubr
          93 -23 callgsubr
          40 callgsubr
          hintmask 11001100
          -84 callsubr
          hintmask 00110000
          44 694 -77 callsubr
        </CharString>
        <CharString name="naira">
          727 21 -21 244 68 70 68 244 -20 hstem
          98 82 366 82 vstem
          673 244 rmoveto
          68 -45 70 45 68 -45 244 -82 -244 -191 vlineto
          -74 145 -8 16 -12 24 -5 7 rlinecurve
          -26 52 rlineto
          -132 -244 -45 -68 45 -70 -45 -68 45 -244 82 244 191 hlineto
          74 -145 8 -16 12 -24 5 -7 rlinecurve
          26 -52 rlineto
          132 244 hlineto
          -362 206 rmoveto
          -86 166 1 hlineto
          155 -304 rmoveto
          -156 70 120 hlineto
          246 -70 rmoveto
          -121 hlineto
          -35 70 rlineto
          156 hlineto
          -304 vmoveto
          -1 hlineto
          -85 166 rlineto
          86 hlineto
          endchar
        </CharString>
        <CharString name="ncaron">
          0 callgsubr
          91 72 callsubr
          hstemhm
          40 callgsubr
          hintmask 11001100
          -84 callsubr
          hintmask 00110000
          54 697 -81 callgsubr
        </CharString>
        <CharString name="ncedilla">
          531 26 callgsubr
          390 65 63 callgsubr
          vstem
          -84 callsubr
          -62 -156 -86 callgsubr
        </CharString>
        <CharString name="ncommaaccent">
          531 26 callgsubr
          390 65 hstemhm
          40 callgsubr
          hintmask 00111100
          -84 callsubr
          hintmask 11000000
          -62 -156 -86 callgsubr
        </CharString>
        <CharString name="ndotaccent">
          0 callgsubr
          108 96 68 callgsubr
          hintmask 11010100
          -84 callsubr
          hintmask 00101000
          -52 563 -81 callsubr
        </CharString>
        <CharString name="ndotbelow">
          531 -11 callgsubr
          390 65 68 callgsubr
          hintmask 01110100
          -84 callsubr
          hintmask 10001000
          -52 -200 -81 callsubr
        </CharString>
        <CharString name="nine">
          514 -22 49 callsubr
          hstem
          43 87 33 87 129 91 vstem
          470 -54 callsubr
        </CharString>
        <CharString name="nine.oldstyle">
          579 -216 49 callsubr
          hstemhm
          76 47 callsubr
          503 -58 callgsubr
        </CharString>
        <CharString name="nine.prop">
          579 -22 49 callsubr
          hstem
          76 87 33 87 129 91 vstem
          503 -54 callsubr
        </CharString>
        <CharString name="nine.taboldstyle">
          514 -216 49 callsubr
          hstemhm
          43 47 callsubr
          470 -58 callgsubr
        </CharString>
        <CharString name="ntilde">
          0 callgsubr
          94 -11 callsubr
          40 callgsubr
          hintmask 11001100
          -84 callsubr
          hintmask 00010000
          69 672 -102 callgsubr
        </CharString>
        <CharString name="numbersign">
          856 -173 -21 318 43 167 43 317 -20 hstem
          57 741 vstem
          798 146 rmoveto
          21 -19 0 -14 vhcurveto
          -220 hlineto
          45 167 rlineto
          175 hlineto
          14 19 0 21 22 -22 0 -15 hvcurveto
          -158 20 callgsubr
          -190 20 callgsubr
          -229 hlineto
          -15 -22 0 -22 -21 20 0 13 hvcurveto
          220 hlineto
          -45 -167 rlineto
          -175 76 callsubr
          158 20 callsubr
          190 20 callsubr
          229 hlineto
          15 22 0 22 hvcurveto
          -253 188 rmoveto
          -45 -167 rlineto
          -190 hlineto
          45 167 rlineto
          endchar
        </CharString>
        <CharString name="numero">
          840 22 -21 81 61 11 62 45 66 154 61 17 62 74 -20 hstemhm
          98 82 211 83 78 67 -66 66 77 65 -65 67 hintmask 0001100000101000
          763 397 rmoveto
          60 -33 85 -72 -71 -34 -78 -67 -57 34 -79 71 72 33 79 57 vhcurveto
          -2 -243 rmoveto
          hintmask 1111111111010000
          62 -209 -62 vlineto
          -78 -153 rmoveto
          694 -83 -613 vlineto
          0 -4 38 -6 23 vhcurveto
          -151 552 rlineto
          -132 -694 82 620 hlineto
          3 -21 1 -20 6 -21 152 -558 rcurveline
          354 397 rmoveto
          -32 -11 -39 -27 -33 -6 39 32 37 2 46 37 37 1 -46 -37 vhcurveto
          endchar
        </CharString>
        <CharString name="o">
          -55 callsubr
          hstem
          71 callsubr
          vstem
          -104 callgsubr
          endchar
        </CharString>
        <CharString name="oacute">
          -55 callsubr
          2 callsubr
          71 callsubr
          hintmask 11001100
          -104 callgsubr
          hintmask 00110000
          2 464 -77 callsubr
        </CharString>
        <CharString name="obreve">
          -55 callsubr
          60 -17 callgsubr
          -20 hstemhm
          71 callsubr
          hintmask 11001100
          -104 callgsubr
          hintmask 00110000
          31 471 -105 callgsubr
          endchar
        </CharString>
        <CharString name="ocaron">
          -55 callsubr
          85 72 callsubr
          hstemhm
          71 callsubr
          hintmask 11001100
          -104 callgsubr
          hintmask 00110000
          12 467 -81 callgsubr
        </CharString>
        <CharString name="ocircumflex">
          -55 callsubr
          85 72 callsubr
          hstemhm
          71 callsubr
          hintmask 11001100
          -104 callgsubr
          hintmask 00110000
          12 295 -88 callsubr
          endchar
        </CharString>
        <CharString name="ocircumflexacute">
          -55 callsubr
          85 -21 291 -20 hstemhm
          71 callsubr
          hintmask 11001100
          -104 callgsubr
          hintmask 00110100
          13 295 -78 callgsubr
        </CharString>
        <CharString name="ocircumflexdotbelow">
          44 callsubr
          85 72 callsubr
          hstemhm
          30 83 96 96 95 83 hintmask 01111101
          -104 callgsubr
          12 295 -88 callsubr
          hintmask 10000010
          -48 -725 -81 callsubr
        </CharString>
        <CharString name="ocircumflexgrave">
          -55 callsubr
          85 -21 134 -20 hstemhm
          71 callsubr
          hintmask 11001100
          -104 callgsubr
          hintmask 00110100
          13 295 -79 callsubr
        </CharString>
        <CharString name="ocircumflexhookabove">
          -55 callsubr
          85 -21 363 -20 hstemhm
          71 callsubr
          hintmask 11001100
          -104 callgsubr
          hintmask 00110000
          13 295 -103 callsubr
          103 284 -107 callgsubr
        </CharString>
        <CharString name="ocircumflextilde">
          -55 callsubr
          85 -21 189 -11 callsubr
          71 callsubr
          hintmask 11000110
          -104 callgsubr
          hintmask 00101000
          13 295 -103 callsubr
          74 312 -97 callsubr
        </CharString>
        <CharString name="odblgrave">
          -55 callsubr
          2 callsubr
          71 callsubr
          hintmask 11001100
          -104 callgsubr
          hintmask 00110000
          4 297 -87 callgsubr
        </CharString>
        <CharString name="odieresis">
          -55 callsubr
          107 86 hstemhm
          30 83 21 87 73 87 19 83 hintmask 11010010
          -104 callgsubr
          hintmask 00101100
          -179 338 -15 callsubr
        </CharString>
        <CharString name="odotbelow">
          44 callsubr
          hstemhm
          30 83 96 96 95 83 hintmask 01110100
          -104 callgsubr
          hintmask 10001000
          -95 -430 -81 callsubr
        </CharString>
        <CharString name="oe">
          -64 callsubr
        </CharString>
        <CharString name="oe.dup">
          -64 callsubr
        </CharString>
        <CharString name="ogonek">
          514 -212 70 hstem
          356 -53 callsubr
          -1 44 44 56 callsubr
          -65 27 callsubr
        </CharString>
        <CharString name="ograve">
          -55 callsubr
          2 callsubr
          71 callsubr
          hintmask 11001100
          -104 callgsubr
          hintmask 00110000
          -71 297 -62 callsubr
        </CharString>
        <CharString name="ohm">
          -55 callgsubr
        </CharString>
        <CharString name="ohookabove">
          -55 callsubr
          64 -21 214 -20 hstemhm
          71 callsubr
          hintmask 11001100
          -104 callgsubr
          hintmask 00110000
          -43 409 -107 callgsubr
        </CharString>
        <CharString name="ohorn">
          -55 callsubr
          70 -20 42 callgsubr
          hintmask 00100100
          -18 callgsubr
          hintmask 11011000
          -96 callgsubr
          hintmask 00000100
          28 -33 11 -43 -43 vvcurveto
          endchar
        </CharString>
        <CharString name="ohornacute">
          -55 callsubr
          70 -20 37 -21 167 -20 42 callgsubr
          hintmask 00100001
          -18 callgsubr
          hintmask 11000110
          -96 callgsubr
          hintmask 00000001
          28 -33 11 -43 -43 vvcurveto
          hintmask 00011000
          -27 463 -77 callsubr
        </CharString>
        <CharString name="ohorndotbelow">
          44 callsubr
          70 -20 hstemhm
          29 84 96 96 93 84 -82 84 hintmask 00010001
          -18 callgsubr
          hintmask 01101010
          -96 callgsubr
          hintmask 00000001
          28 -33 11 -43 -43 vvcurveto
          hintmask 10000100
          -95 -431 -81 callsubr
        </CharString>
        <CharString name="ohorngrave">
          -55 callsubr
          70 -20 37 -21 167 -20 42 callgsubr
          hintmask 00100001
          -18 callgsubr
          hintmask 11000110
          -96 callgsubr
          hintmask 00000001
          28 -33 11 -43 -43 vvcurveto
          hintmask 00011000
          -71 296 -62 callsubr
        </CharString>
        <CharString name="ohornhookabove">
          -55 callsubr
          64 -21 27 -20 207 -20 42 callgsubr
          hintmask 00010001
          -18 callgsubr
          hintmask 11000110
          -96 callgsubr
          hintmask 00000001
          28 -33 11 -43 -43 vvcurveto
          hintmask 00101000
          -43 408 -107 callgsubr
        </CharString>
        <CharString name="ohorntilde">
          -55 callsubr
          70 -20 38 65 -7 65 42 callgsubr
          hintmask 00100001
          -18 callgsubr
          hintmask 11000110
          -96 callgsubr
          hintmask 00000001
          28 -33 11 -43 -43 vvcurveto
          hintmask 00001000
          27 441 -97 callsubr
        </CharString>
        <CharString name="ohungarumlaut">
          -55 callsubr
          2 callsubr
          71 callsubr
          hintmask 11001100
          -104 callgsubr
          hintmask 00110000
          -144 464 -66 callgsubr
        </CharString>
        <CharString name="omacron">
          -55 callsubr
          115 69 hstemhm
          71 callsubr
          hintmask 11011000
          -104 callgsubr
          hintmask 00100000
          42 346 -61 callsubr
        </CharString>
        <CharString name="one">
          514 0 62 487 62 65 -20 hstem
          224 85 vstem
          437 9 callgsubr
        </CharString>
        <CharString name="one.oldstyle">
          424 74 callgsubr
          38 86 48 86 hintmask 10110100
          386 -14 callgsubr
        </CharString>
        <CharString name="one.prop">
          423 0 62 487 62 65 -20 hstem
          172 85 vstem
          385 9 callgsubr
        </CharString>
        <CharString name="one.superior">
          379 -23 callsubr
          endchar
        </CharString>
        <CharString name="one.taboldstyle">
          514 74 callgsubr
          90 86 48 86 hintmask 10110100
          438 -14 callgsubr
        </CharString>
        <CharString name="onehalf">
          808 0 41 324 41 268 42 hstem
          -23 callsubr
          674 -311 rmoveto
          45 -135 vlineto
          -9 -8 67 callsubr
          46 33 58 vvcurveto
          69 -59 61 -98 -77 -45 -37 -59 -22 vhcurveto
          33 -35 rlineto
          70 18 38 58 callsubr
          -134 -105 rlineto
          -41 vlineto
          188 44 callgsubr
          49 hlineto
          endchar
        </CharString>
        <CharString name="onequarter">
          808 161 61 194 59 136 60 -56 60 hintmask 11100000
          -23 callsubr
          674 -211 19 callsubr
          -411 -654 rlineto
          50 hlineto
          hintmask 01010000
          35 callgsubr
        </CharString>
        <CharString name="oogonek">
          -55 callsubr
          hstem
          71 callsubr
          vstem
          -44 callsubr
          endchar
        </CharString>
        <CharString name="oogonekacute">
          -55 callsubr
          2 callsubr
          71 callsubr
          hintmask 11001100
          -44 callsubr
          hintmask 00110000
          2 464 -77 callsubr
        </CharString>
        <CharString name="openbullet">
          799 116 42 206 42 hstem
          255 42 206 42 58 callgsubr
          248 145 rmoveto
          -57 -46 -46 -57 -57 -46 46 57 57 46 46 57 57 46 -46 -57 vhcurveto
          endchar
        </CharString>
        <CharString name="ordfeminine">
          383 346 394 rmoveto
          202 vlineto
          69 -61 51 -83 -55 -40 -11 -19 -41 vhcurveto
          5 -50 rlineto
          26 42 42 10 46 hhcurveto
          47 28 -31 -46 hvcurveto
          -29 vlineto
          -144 -3 -95 -31 -57 vvcurveto
          -33 26 -56 73 17 73 1 33 53 vhcurveto
          -26 vlineto
          33 -62 rmoveto
          13 -15 11 -19 vhcurveto
          -173 77 callgsubr
          173 hlineto
          19 15 11 13 hvcurveto
          -36 160 rmoveto
          -15 0 -17 -30 -15 vhcurveto
          -11 -21 -28 -2 -16 hhcurveto
          -43 -36 16 28 50 163 2 11 hvcurveto
          endchar
        </CharString>
        <CharString name="ordmasculine">
          431 406 548 rmoveto
          91 -84 77 -107 -104 -86 -75 -93 -93 88 -69 102 104 87 71 91 vhcurveto
          -34 -216 rmoveto
          13 -16 11 -18 vhcurveto
          -245 77 callgsubr
          245 hlineto
          18 16 11 13 hvcurveto
          -36 223 rmoveto
          -81 -59 -40 -61 -65 -56 42 79 82 63 34 57 61 60 -36 -80 vhcurveto
          endchar
        </CharString>
</ttFont>
